<svg width="36" height="36" viewBox="0 0 36 36" fill="none" xmlns="http://www.w3.org/2000/svg">
<path d="M21.255 20.565L23.355 16.935C23.49 16.71 23.43 16.425 23.235 16.26L21.015 14.52C21.06 14.19 21.09 13.845 21.09 13.5C21.09 13.155 21.06 12.81 21.015 12.465L23.235 10.725C23.43 10.56 23.49 10.275 23.355 10.05L21.255 6.42C21.12 6.195 20.85 6.105 20.61 6.195L18 7.245C17.46 6.825 16.875 6.48 16.23 6.21L15.84 3.435C15.8148 3.31368 15.7492 3.20453 15.6537 3.12548C15.5583 3.04643 15.4389 3.00218 15.315 3H11.115C10.86 3 10.635 3.195 10.59 3.45L10.2 6.225C9.57001 6.495 8.97001 6.84 8.43001 7.26L5.82001 6.21C5.58001 6.12 5.31001 6.21 5.17501 6.435L3.075 10.065C2.94 10.29 3.00001 10.575 3.19501 10.74L5.415 12.48C5.37001 12.81 5.34001 13.155 5.34001 13.5C5.34001 13.845 5.37001 14.19 5.415 14.535L3.19501 16.275C3.00001 16.44 2.94 16.725 3.075 16.95L5.17501 20.58C5.31001 20.805 5.58001 20.895 5.82001 20.805L8.43001 19.755C8.97001 20.175 9.55501 20.52 10.2 20.79L10.59 23.565C10.635 23.805 10.86 24 11.115 24H15.315C15.57 24 15.795 23.805 15.84 23.55L16.23 20.775C16.86 20.505 17.46 20.16 18 19.74L20.61 20.79C20.85 20.88 21.12 20.79 21.255 20.565ZM13.215 16.5C11.565 16.5 10.215 15.15 10.215 13.5C10.215 11.85 11.565 10.5 13.215 10.5C14.865 10.5 16.215 11.85 16.215 13.5C16.215 15.15 14.865 16.5 13.215 16.5ZM32.88 28.005L31.44 26.895C31.47 26.685 31.5 26.46 31.5 26.235C31.5 26.01 31.485 25.785 31.44 25.575L32.865 24.465C32.985 24.36 33.03 24.18 32.94 24.03L31.59 21.705C31.515 21.555 31.335 21.51 31.17 21.555L29.505 22.23C29.16 21.96 28.785 21.735 28.365 21.57L28.11 19.8C28.1041 19.7198 28.0686 19.6447 28.0103 19.5893C27.9521 19.5338 27.8754 19.502 27.795 19.5H25.11C24.945 19.5 24.795 19.62 24.78 19.785L24.525 21.555C24.12 21.735 23.73 21.945 23.385 22.215L21.72 21.54C21.6436 21.5112 21.5594 21.5105 21.4825 21.538C21.4056 21.5655 21.3409 21.6193 21.3 21.69L19.95 24.015C19.875 24.165 19.89 24.345 20.025 24.45L21.45 25.56C21.3881 25.9978 21.3881 26.4422 21.45 26.88L20.025 27.99C19.905 28.095 19.86 28.275 19.95 28.425L21.3 30.75C21.375 30.9 21.555 30.945 21.72 30.9L23.385 30.225C23.73 30.495 24.105 30.72 24.525 30.885L24.78 32.655C24.81 32.82 24.945 32.94 25.11 32.94H27.795C27.96 32.94 28.11 32.82 28.125 32.655L28.38 30.885C28.785 30.705 29.175 30.495 29.505 30.225L31.185 30.9C31.335 30.96 31.515 30.9 31.605 30.75L32.955 28.425C33.045 28.29 33 28.11 32.88 28.005ZM26.445 28.245C25.9077 28.2448 25.3926 28.0312 25.0128 27.6511C24.633 27.2711 24.4198 26.7558 24.42 26.2185C24.4202 25.6812 24.6338 25.1661 25.0139 24.7863C25.3939 24.4065 25.9092 24.1933 26.4465 24.1935C26.9838 24.1937 27.4989 24.4073 27.8787 24.7874C28.2585 25.1674 28.4717 25.6827 28.4715 26.22C28.4713 26.7573 28.2577 27.2724 27.8776 27.6522C27.4976 28.032 26.9823 28.2452 26.445 28.245Z" fill="#946CC3"/>
</svg>
