<svg width="49" height="45" viewBox="0 0 49 45" fill="none" xmlns="http://www.w3.org/2000/svg">
<path d="M45.0135 1.5H3.98648C3.32703 1.5 2.69458 1.73919 2.22827 2.16494C1.76197 2.5907 1.5 3.16815 1.5 3.77027V41.2297C1.5 41.8318 1.76197 42.4093 2.22827 42.835C2.69458 43.2608 3.32703 43.5 3.98648 43.5H45.0135C45.6729 43.5 46.3054 43.2608 46.7717 42.835C47.238 42.4093 47.5 41.8318 47.5 41.2297V3.77027C47.5 3.16815 47.238 2.5907 46.7717 2.16494C46.3054 1.73919 45.6729 1.5 45.0135 1.5V1.5Z" stroke="#946CC3" stroke-width="3" stroke-linejoin="round"/>
<path d="M13.683 43.5L20.4451 30.6064L22.1628 34.1089L26.4975 23.1756L28.6742 25.7922L31.8102 19.4743L33.2172 21.0984L47.4999 5.60525L13.683 43.5ZM12.2884 11.2258H10.1466H12.2884ZM12.2884 11.2258V16.7294H16.2788C17.0804 16.7294 17.8492 16.4395 18.416 15.9234C18.9828 15.4073 19.3013 14.7074 19.3013 13.9776C19.3013 13.2478 18.9828 12.5478 18.416 12.0318C17.8492 11.5157 17.0804 11.2258 16.2788 11.2258H12.2884Z" stroke="#946CC3" stroke-width="3" stroke-linejoin="round"/>
<path d="M15.7519 9.39472V11.1961M12.2891 16.8677V22.7195H16.5442C16.9728 22.7271 17.3987 22.6571 17.797 22.5135C18.1954 22.3699 18.5582 22.1556 18.8642 21.8832C19.1703 21.6107 19.4134 21.2856 19.5794 20.9268C19.7453 20.568 19.8308 20.1828 19.8308 19.7936C19.8308 19.4045 19.7453 19.0192 19.5794 18.6604C19.4134 18.3016 19.1703 17.9765 18.8642 17.704C18.5582 17.4316 18.1954 17.2173 17.797 17.0737C17.3987 16.9301 16.9728 16.8601 16.5442 16.8677H12.2891ZM12.2891 22.7161H10.1466H12.2891ZM12.2841 22.7523V24.5526V22.7523ZM15.7519 22.7523V24.5526V22.7523ZM12.2841 9.39472V11.1961V9.39472Z" stroke="#946CC3" stroke-width="3" stroke-linejoin="round"/>
<path d="M47.0576 6.74999V43.5H14.7226L20.0769 33.8077L26.7115 25.7307L47.0576 6.74999Z" fill="#946CC3"/>
</svg>
