<svg width="54" height="50" viewBox="0 0 54 50" fill="none" xmlns="http://www.w3.org/2000/svg">
<path d="M0 0H10.7416V5H5.3708V45H10.7416V50H0V0ZM48.3372 5H42.9664V0H53.708V50H42.9664V45H48.3372V5ZM18.7978 7.5H21.4832V20H24.1686V22.5H16.1124V20H18.7978V10L16.1124 11.25V8.75L18.7978 7.5ZM34.9102 27.5H37.5956V40H40.281V42.5H32.2248V40H34.9102V30L32.2248 31.25V28.75L34.9102 27.5ZM18.7978 27.5C21.7517 27.5 24.1686 30.85 24.1686 35C24.1686 39.15 21.7517 42.5 18.7978 42.5C15.8438 42.5 13.427 39.15 13.427 35C13.427 30.85 15.8438 27.5 18.7978 27.5ZM18.7978 30C17.3208 30 16.1124 32.25 16.1124 35C16.1124 37.75 17.3208 40 18.7978 40C20.2748 40 21.4832 37.75 21.4832 35C21.4832 32.25 20.2748 30 18.7978 30ZM34.9102 7.5C37.8641 7.5 40.281 10.85 40.281 15C40.281 19.15 37.8641 22.5 34.9102 22.5C31.9562 22.5 29.5394 19.15 29.5394 15C29.5394 10.85 31.9562 7.5 34.9102 7.5ZM34.9102 10C33.4332 10 32.2248 12.25 32.2248 15C32.2248 17.75 33.4332 20 34.9102 20C36.3871 20 37.5956 17.75 37.5956 15C37.5956 12.25 36.3871 10 34.9102 10Z" fill="#946CC3"/>
</svg>
