<svg width="22" height="24" viewBox="0 0 22 24" fill="none" xmlns="http://www.w3.org/2000/svg">
<path d="M20.547 7.22008L13.2951 0.915623C12.6304 0.325982 11.7697 0 10.8779 0C9.98596 0 9.12536 0.325982 8.46058 0.915623L1.20875 7.22008C0.824851 7.56056 0.518499 7.97824 0.310096 8.44531C0.101693 8.91237 -0.00397951 9.41811 0.000114572 9.92884V20.4043C0.000114572 21.3579 0.382129 22.2725 1.06212 22.9468C1.74211 23.6212 2.66438 24 3.62603 24H18.1297C19.0913 24 20.0136 23.6212 20.6936 22.9468C21.3736 22.2725 21.7556 21.3579 21.7556 20.4043V9.91685C21.758 9.40814 21.6515 8.90471 21.4431 8.43984C21.2348 7.97496 20.9293 7.55922 20.547 7.22008ZM13.2951 21.6029H8.46058V15.61C8.46058 15.2922 8.58792 14.9873 8.81458 14.7625C9.04125 14.5378 9.34867 14.4115 9.66922 14.4115H12.0865C12.407 14.4115 12.7145 14.5378 12.9411 14.7625C13.1678 14.9873 13.2951 15.2922 13.2951 15.61V21.6029ZM19.3383 20.4043C19.3383 20.7222 19.211 21.027 18.9843 21.2518C18.7577 21.4766 18.4502 21.6029 18.1297 21.6029H15.7124V15.61C15.7124 14.6564 15.3304 13.7418 14.6504 13.0675C13.9704 12.3932 13.0481 12.0143 12.0865 12.0143H9.66922C8.70756 12.0143 7.7853 12.3932 7.10531 13.0675C6.42532 13.7418 6.0433 14.6564 6.0433 15.61V21.6029H3.62603C3.30548 21.6029 2.99806 21.4766 2.77139 21.2518C2.54473 21.027 2.41739 20.7222 2.41739 20.4043V9.91685C2.41761 9.74667 2.45437 9.57849 2.52522 9.4235C2.59608 9.2685 2.6994 9.13025 2.82833 9.01793L10.0802 2.72546C10.3007 2.5333 10.5843 2.42733 10.8779 2.42733C11.1714 2.42733 11.455 2.5333 11.6756 2.72546L18.9274 9.01793C19.0563 9.13025 19.1596 9.2685 19.2305 9.4235C19.3013 9.57849 19.3381 9.74667 19.3383 9.91685V20.4043Z" fill="white"/>
</svg>
