<svg width="34" height="34" viewBox="0 0 34 34" fill="none" xmlns="http://www.w3.org/2000/svg">
<path d="M15.5904 2.83333L25.9292 6.06333C26.2176 6.15335 26.4696 6.33318 26.6485 6.57657C26.8274 6.81997 26.9239 7.11417 26.9237 7.41625V9.91667H29.7571C30.1328 9.91667 30.4931 10.0659 30.7588 10.3316C31.0245 10.5973 31.1737 10.9576 31.1737 11.3333V22.6667C31.1737 23.0424 31.0245 23.4027 30.7588 23.6684C30.4931 23.9341 30.1328 24.0833 29.7571 24.0833L25.1954 24.0847C24.6472 24.8072 23.9813 25.4447 23.2121 25.9689L15.5904 31.1667L7.96875 25.9703C6.82482 25.1904 5.88873 24.1428 5.24186 22.9187C4.59499 21.6946 4.25694 20.331 4.25708 18.9465V7.41625C4.25725 7.11442 4.35382 6.82053 4.53271 6.57742C4.7116 6.33431 4.96346 6.1547 5.25158 6.06475L15.5904 2.83333ZM15.5904 5.79983L7.09041 8.4575V18.9465C7.09021 19.8138 7.2891 20.6696 7.67176 21.448C8.05443 22.2263 8.61065 22.9064 9.29758 23.4359L9.56533 23.6286L15.5904 27.7369L20.9482 24.0833H14.1737C13.798 24.0833 13.4377 23.9341 13.172 23.6684C12.9063 23.4027 12.7571 23.0424 12.7571 22.6667V11.3333C12.7571 10.9576 12.9063 10.5973 13.172 10.3316C13.4377 10.0659 13.798 9.91667 14.1737 9.91667H24.0904V8.4575L15.5904 5.79983ZM15.5904 17V21.25H28.3404V17H15.5904ZM15.5904 14.1667H28.3404V12.75H15.5904V14.1667Z" fill="#946CC3"/>
</svg>
