<svg width="55" height="51" viewBox="0 0 55 51" fill="none" xmlns="http://www.w3.org/2000/svg">
<path fill-rule="evenodd" clip-rule="evenodd" d="M0 4.25C0 3.12283 0.481418 2.04183 1.33835 1.2448C2.19528 0.447767 3.35752 0 4.56941 0H50.2635C51.4754 0 52.6376 0.447767 53.4945 1.2448C54.3515 2.04183 54.8329 3.12283 54.8329 4.25V46.75C54.8329 47.8772 54.3515 48.9582 53.4945 49.7552C52.6376 50.5522 51.4754 51 50.2635 51H4.56941C3.35752 51 2.19528 50.5522 1.33835 49.7552C0.481418 48.9582 0 47.8772 0 46.75V4.25ZM19.8008 19.8333C19.8008 20.9605 19.3193 22.0415 18.4624 22.8385C17.6055 23.6356 16.4432 24.0833 15.2314 24.0833C14.0195 24.0833 12.8572 23.6356 12.0003 22.8385C11.1434 22.0415 10.6619 20.9605 10.6619 19.8333C10.6619 18.7062 11.1434 17.6252 12.0003 16.8281C12.8572 16.0311 14.0195 15.5833 15.2314 15.5833C16.4432 15.5833 17.6055 16.0311 18.4624 16.8281C19.3193 17.6252 19.8008 18.7062 19.8008 19.8333ZM9.13881 30.7799C9.13881 30.6127 9.2104 30.3889 9.52874 30.0914C9.86078 29.7797 10.3878 29.4652 11.0808 29.1833C12.473 28.6167 14.1697 28.3333 15.2314 28.3333C16.293 28.3333 17.9882 28.6167 19.3819 29.1833C20.0749 29.4638 20.6004 29.7783 20.934 30.09C21.2538 30.3889 21.3239 30.6127 21.3239 30.7799V35.4167H24.3702V30.7799C24.3702 29.6636 23.8066 28.7612 23.0953 28.0939C22.3962 27.4408 21.496 26.9507 20.6019 26.5866C18.8229 25.8641 16.7103 25.5 15.2314 25.5C13.7509 25.5 11.6398 25.8641 9.86078 26.5866C8.9667 26.9507 8.06653 27.4408 7.36741 28.0939C6.6561 28.7612 6.09254 29.6636 6.09254 30.7799V35.4167H9.13881V30.7799ZM33.8989 30.0914C33.5791 30.3889 33.509 30.6127 33.509 30.7799V35.4167H30.4627V30.7799C30.4627 29.6636 31.0263 28.7612 31.7376 28.0939C32.4367 27.4408 33.3369 26.9507 34.231 26.5866C36.01 25.8641 38.1226 25.5 39.6015 25.5C41.0805 25.5 43.1931 25.8641 44.9721 26.5866C45.8662 26.9507 46.7664 27.4408 47.4655 28.0939C48.1783 28.7612 48.7403 29.6636 48.7403 30.7799V35.4167H45.6941V30.7799C45.6941 30.6127 45.6225 30.3889 45.3041 30.0914C44.9721 29.7797 44.4451 29.4652 43.7521 29.1833C42.3599 28.6167 40.6632 28.3333 39.6015 28.3333C38.5399 28.3333 36.8447 28.6167 35.451 29.1833C34.758 29.4638 34.2325 29.7783 33.8989 30.09V30.0914ZM39.6015 24.0833C40.8134 24.0833 41.9757 23.6356 42.8326 22.8385C43.6895 22.0415 44.1709 20.9605 44.1709 19.8333C44.1709 18.7062 43.6895 17.6252 42.8326 16.8281C41.9757 16.0311 40.8134 15.5833 39.6015 15.5833C38.3896 15.5833 37.2274 16.0311 36.3705 16.8281C35.5135 17.6252 35.0321 18.7062 35.0321 19.8333C35.0321 20.9605 35.5135 22.0415 36.3705 22.8385C37.2274 23.6356 38.3896 24.0833 39.6015 24.0833ZM31.9858 17C31.9858 18.1272 31.5044 19.2082 30.6475 20.0052C29.7906 20.8022 28.6283 21.25 27.4164 21.25C26.2046 21.25 25.0423 20.8022 24.1854 20.0052C23.3285 19.2082 22.847 18.1272 22.847 17C22.847 15.8728 23.3285 14.7918 24.1854 13.9948C25.0423 13.1978 26.2046 12.75 27.4164 12.75C28.6283 12.75 29.7906 13.1978 30.6475 13.9948C31.5044 14.7918 31.9858 15.8728 31.9858 17ZM24.7449 27.1518C24.8515 27.0399 25.0008 26.9492 25.4318 26.911C25.7125 26.8899 25.9942 26.8842 26.2756 26.894L26.5833 26.9011C26.8422 26.9082 27.1362 26.9167 27.4164 26.9167C27.6967 26.9167 27.9907 26.9082 28.2496 26.9025L28.5573 26.894C28.8386 26.8838 29.1204 26.889 29.4011 26.9096C29.8321 26.9492 29.9799 27.0399 30.088 27.1518L32.3605 25.2648C31.5609 24.4318 30.5632 24.1683 29.6981 24.089C29.1741 24.0422 28.5253 24.0592 27.9922 24.072C27.7759 24.0777 27.5779 24.0833 27.4164 24.0833C27.255 24.0833 27.057 24.0777 26.8407 24.072C26.3076 24.0578 25.6587 24.0437 25.1348 24.0904C24.2696 24.1683 23.272 24.4318 22.4723 25.2648L24.7449 27.1518Z" fill="#946CC3"/>
</svg>
