<svg width="25" height="24" viewBox="0 0 25 24" fill="none" xmlns="http://www.w3.org/2000/svg">
<path d="M16.5033 12.8512C17.689 11.9261 18.5544 10.6576 18.9792 9.22201C19.404 7.78646 19.3671 6.25531 18.8735 4.84156C18.3799 3.42782 17.4542 2.2018 16.2253 1.33405C14.9963 0.466309 13.5252 0 12.0165 0C10.5079 0 9.03671 0.466309 7.80775 1.33405C6.57879 2.2018 5.65313 3.42782 5.15954 4.84156C4.66595 6.25531 4.62898 7.78646 5.05378 9.22201C5.47857 10.6576 6.34401 11.9261 7.52968 12.8512C5.498 13.6584 3.7253 14.9972 2.40054 16.7249C1.07579 18.4525 0.248644 20.5043 0.00729483 22.6615C-0.0101753 22.819 0.00380761 22.9784 0.0484447 23.1305C0.0930818 23.2827 0.167499 23.4246 0.267448 23.5482C0.469303 23.7979 0.7629 23.9578 1.08365 23.9928C1.4044 24.0277 1.72603 23.9349 1.97778 23.7348C2.22953 23.5346 2.39079 23.2435 2.42607 22.9254C2.69163 20.581 3.8189 18.4158 5.59251 16.8434C7.36611 15.2711 9.66171 14.4019 12.0407 14.4019C14.4197 14.4019 16.7153 15.2711 18.4889 16.8434C20.2625 18.4158 21.3898 20.581 21.6553 22.9254C21.6882 23.2201 21.83 23.4922 22.0533 23.6894C22.2767 23.8865 22.5657 23.9946 22.8647 23.9928H22.9977C23.3148 23.9566 23.6045 23.7976 23.8039 23.5505C24.0032 23.3034 24.096 22.9882 24.062 22.6735C23.8195 20.5102 22.9879 18.4531 21.6563 16.7228C20.3248 14.9925 18.5435 13.6541 16.5033 12.8512ZM12.0165 11.9997C11.0597 11.9997 10.1244 11.7183 9.32891 11.1912C8.53338 10.6641 7.91334 9.91484 7.54719 9.03827C7.18105 8.16168 7.08525 7.19712 7.27191 6.26655C7.45857 5.33598 7.9193 4.48119 8.59584 3.81029C9.27239 3.13938 10.1344 2.68249 11.0727 2.49739C12.0111 2.31228 12.9838 2.40728 13.8678 2.77038C14.7517 3.13347 15.5072 3.74834 16.0388 4.53724C16.5703 5.32614 16.8541 6.25364 16.8541 7.20244C16.8541 8.47475 16.3444 9.69494 15.4372 10.5946C14.53 11.4943 13.2995 11.9997 12.0165 11.9997Z" fill="white"/>
</svg>
