<svg width="33" height="33" viewBox="0 0 33 33" fill="none" xmlns="http://www.w3.org/2000/svg">
<path d="M26.125 16.5L20.625 11M26.125 16.5L20.625 22M26.125 16.5H12.375M19.25 28.875C17.6249 28.875 16.0157 28.5549 14.5143 27.933C13.0129 27.3111 11.6487 26.3996 10.4996 25.2504C9.35043 24.1013 8.43889 22.7371 7.81699 21.2357C7.19509 19.7343 6.875 18.1251 6.875 16.5C6.875 14.8749 7.19509 13.2657 7.81699 11.7643C8.43889 10.2629 9.35043 8.89868 10.4996 7.74955C11.6487 6.60043 13.0129 5.68889 14.5143 5.06699C16.0157 4.44509 17.6249 4.125 19.25 4.125" stroke="#946CC3" stroke-width="2" stroke-linecap="round" stroke-linejoin="round"/>
</svg>
