<svg width="20" height="18" viewBox="0 0 20 18" fill="none" xmlns="http://www.w3.org/2000/svg">
<path d="M19.2513 16.4825L15.6314 13.17C17.0365 11.5537 17.717 9.50215 17.5329 7.43721C17.3488 5.37227 16.3141 3.45088 14.6416 2.06813C12.9691 0.685379 10.786 -0.0536394 8.54103 0.00303437C6.29607 0.0597081 4.15998 0.907766 2.57196 2.37283C0.983948 3.83789 0.0647189 5.8086 0.00328902 7.87974C-0.0581409 9.95088 0.742898 11.965 2.24169 13.508C3.74049 15.051 5.82312 16.0056 8.06136 16.1754C10.2996 16.3453 12.5233 15.7175 14.2752 14.4212L17.8658 17.7337C17.9565 17.8181 18.0644 17.8851 18.1833 17.9308C18.3022 17.9765 18.4297 18 18.5585 18C18.6873 18 18.8149 17.9765 18.9338 17.9308C19.0526 17.8851 19.1606 17.8181 19.2513 17.7337C19.4271 17.5659 19.5254 17.3416 19.5254 17.1081C19.5254 16.8747 19.4271 16.6504 19.2513 16.4825ZM8.80161 14.4212C7.4508 14.4212 6.13032 14.0516 5.00716 13.3593C3.884 12.6669 3.0086 11.6828 2.49166 10.5315C1.97473 9.38009 1.83948 8.11316 2.10301 6.89088C2.36654 5.6686 3.01702 4.54586 3.97219 3.66464C4.92736 2.78343 6.14432 2.18331 7.46918 1.94018C8.79404 1.69706 10.1673 1.82184 11.4153 2.29875C12.6633 2.77566 13.7299 3.58328 14.4804 4.61948C15.2309 5.65568 15.6314 6.87392 15.6314 8.12015C15.6314 9.79129 14.9119 11.394 13.631 12.5757C12.3502 13.7573 10.613 14.4212 8.80161 14.4212Z" fill="#808080"/>
</svg>
