<svg width="55" height="53" viewBox="0 0 55 53" fill="none" xmlns="http://www.w3.org/2000/svg">
<path d="M42.65 52.7757H46.8C48.9 52.7757 50.625 51.2397 50.875 49.2717L55 9.71995H42.5V0H37.575V9.71995H25.15L25.9 15.3359C30.175 16.4639 34.175 18.5039 36.575 20.7599C40.175 24.1679 42.65 27.6959 42.65 33.4558V52.7757ZM0 50.3757V47.9998H37.575V50.3757C37.575 51.6957 36.45 52.7757 35.05 52.7757H2.525C1.125 52.7757 0 51.6957 0 50.3757ZM37.575 33.5758C37.575 14.3759 0 14.3759 0 33.5758H37.575ZM0.05 38.3998H37.55V43.1998H0.05V38.3998Z" fill="#946CC3"/>
</svg>
