<svg width="21" height="16" viewBox="0 0 21 16" fill="none" xmlns="http://www.w3.org/2000/svg">
<path d="M15.4918 2.75411C15.4918 4.27517 16.7249 5.50822 18.2459 5.50822C19.767 5.50822 21 4.27517 21 2.75411C21 1.23306 19.767 5.17097e-06 18.2459 5.17097e-06C16.7249 5.17097e-06 15.4918 1.23306 15.4918 2.75411ZM0.688485 3.27051H18.2459V2.23772H0.688485V3.27051Z" fill="#808080"/>
<path d="M15.4918 13.082C15.4918 14.6031 16.7249 15.8361 18.2459 15.8361C19.767 15.8361 21 14.6031 21 13.082C21 11.561 19.767 10.3279 18.2459 10.3279C16.7249 10.3279 15.4918 11.561 15.4918 13.082ZM0.688485 13.5984H18.2459V12.5656H0.688485V13.5984Z" fill="#808080"/>
<path d="M5.50818 7.91807C5.50818 6.39702 4.27512 5.16396 2.75407 5.16396C1.23301 5.16396 -4.13677e-05 6.39702 -4.13677e-05 7.91807C-4.13677e-05 9.43912 1.23301 10.6722 2.75407 10.6722C4.27512 10.6722 5.50818 9.43912 5.50818 7.91807ZM20.3115 7.40167L2.75407 7.40167V8.43447L20.3115 8.43447V7.40167Z" fill="#808080"/>
</svg>
