<svg width="30" height="30" viewBox="0 0 30 30" fill="none" xmlns="http://www.w3.org/2000/svg">
<path d="M25.3191 15.0019C25.3027 17.6184 25.1911 20.2622 25.3959 22.8759C26.4431 20.3372 26.7206 17.6475 26.753 15.0089C26.7052 12.3642 26.4427 9.67875 25.3959 7.13297C25.208 9.74719 25.3027 12.3858 25.3191 15.0019ZM29.0625 15.0094C29.0011 11.0489 28.6542 7.06266 27.3853 3.19828C27.4064 7.2075 27.6436 11.2134 27.6263 15.2236C27.6098 19.087 27.3947 22.9495 27.3853 26.8111C28.6589 22.9514 29.0011 18.967 29.0625 15.0094ZM23.535 12.7242L23.4703 12.7102C23.2275 6.55312 22.0209 1.875 20.5702 1.875C20.2908 1.875 20.0212 2.05172 19.7648 2.37516C19.208 2.99484 12.0586 10.8248 5.93531 11.5819C5.21859 11.6705 4.53375 11.7441 3.89812 11.797C3.15844 11.8594 2.48531 11.8941 1.905 11.8941C1.905 11.8941 0.9375 13.3997 0.9375 15.0103C0.9375 16.6233 1.90687 18.1266 1.90687 18.1266C2.48719 18.1266 3.16125 18.1612 3.90094 18.2227C4.17047 18.2456 4.45266 18.2738 4.73859 18.3033V24.5855H8.52703L12.248 21.1092C16.403 23.8495 19.7887 27.668 19.7887 27.668V27.6553C20.0377 27.9591 20.2997 28.125 20.5702 28.125C22.0209 28.125 23.2275 23.4469 23.4708 17.2898L23.5355 17.2762C23.9306 17.2762 24.2517 16.2562 24.2517 15.0005C24.2512 13.7433 23.9302 12.7242 23.535 12.7242ZM20.5702 2.85844C21.24 3.44766 22.2792 6.87328 22.5253 12.5025L18.6619 11.6545C18.9694 6.53297 19.9345 3.41672 20.5702 2.85844ZM6.63281 16.2028C6.20531 16.2028 5.8575 15.7889 5.8575 15.2803C5.8575 14.7703 6.20531 14.3569 6.63281 14.3569C7.06125 14.3569 7.40719 14.7703 7.40719 15.2803C7.40766 15.7894 7.06125 16.2028 6.63281 16.2028ZM8.52703 21.045V19.1269C8.99063 19.3083 9.45469 19.5169 9.915 19.7484L8.52703 21.045ZM8.52703 18.1284V13.238H6.34078C6.42047 12.9487 6.51047 12.675 6.60375 12.4275C11.2303 11.5786 16.1452 7.32656 18.713 4.81312C18.0487 7.21922 17.6241 10.8877 17.6241 15C17.6241 19.1241 18.0511 22.8019 18.7195 25.208C16.5122 23.0475 12.5494 19.5858 8.52703 18.1284ZM20.5702 27.1416C19.935 26.5833 18.9694 23.4666 18.6619 18.345L22.5253 17.497C22.2792 23.1262 21.24 26.5523 20.5702 27.1416Z" fill="#946CC3"/>
</svg>
