<svg width="52" height="50" viewBox="0 0 52 50" fill="none" xmlns="http://www.w3.org/2000/svg">
<path d="M25.9666 1.81709C25.9666 1.33517 25.7589 0.872986 25.3892 0.532215C25.0195 0.191443 24.5181 0 23.9953 0C23.4724 0 22.971 0.191443 22.6013 0.532215C22.2316 0.872986 22.0239 1.33517 22.0239 1.81709V4.84559C21.192 5.1156 20.4366 5.55443 19.8134 6.12967L1.73221 22.7985C1.18303 23.3047 0.747398 23.9056 0.450186 24.567C0.152973 25.2284 0 25.9373 0 26.6531C0 27.369 0.152973 28.0779 0.450186 28.7393C0.747398 29.4007 1.18303 30.0016 1.73221 30.5078L14.5591 42.3262C15.1083 42.8324 15.7602 43.234 16.4777 43.5079C17.1953 43.7819 17.9643 43.9229 18.741 43.9229C19.5176 43.9229 20.2867 43.7819 21.0042 43.5079C21.7217 43.234 22.3737 42.8324 22.9228 42.3262L41.004 25.6598C41.5532 25.1536 41.9888 24.5527 42.286 23.8913C42.5832 23.2299 42.7362 22.521 42.7362 21.8051C42.7362 21.0893 42.5832 20.3804 42.286 19.719C41.9888 19.0576 41.5532 18.4567 41.004 17.9505L28.1745 6.12967C27.5521 5.55474 26.7975 5.11593 25.9666 4.84559V1.81709ZM22.0239 9.23084V12.7197C22.0239 13.2016 22.2316 13.6638 22.6013 14.0045C22.971 14.3453 23.4724 14.5368 23.9953 14.5368C24.5181 14.5368 25.0195 14.3453 25.3892 14.0045C25.7589 13.6638 25.9666 13.2016 25.9666 12.7197V9.23084L38.2126 20.5211C38.5818 20.8618 38.7891 21.3236 38.7891 21.8051C38.7891 22.2867 38.5818 22.7485 38.2126 23.0892L35.663 25.4393H4.44478L4.521 25.3666L22.0239 9.23084ZM45.7352 29.3206C45.5392 28.9822 45.2471 28.6992 44.8902 28.5019C44.5333 28.3046 44.1249 28.2004 43.7087 28.2004C43.2925 28.2004 42.8841 28.3046 42.5272 28.5019C42.1702 28.6992 41.8782 28.9822 41.6822 29.3206L36.4042 38.4449C33.4577 43.5279 37.4582 49.6673 43.7087 49.6673C49.9592 49.6673 53.9544 43.5279 51.0158 38.4449L45.7352 29.3206Z" fill="#946CC3"/>
</svg>
