<svg width="33" height="33" viewBox="0 0 33 33" fill="none" xmlns="http://www.w3.org/2000/svg">
<path d="M12.7187 30.25L12.1687 25.85C11.8707 25.7354 11.5898 25.5979 11.3258 25.4375C11.0618 25.2771 10.8042 25.1052 10.553 24.9219L6.4624 26.6406L2.68115 20.1094L6.22178 17.4281C6.19886 17.2677 6.1874 17.1128 6.1874 16.9634V16.0366C6.1874 15.8872 6.19886 15.7323 6.22178 15.5719L2.68115 12.8906L6.4624 6.35938L10.553 8.07812C10.8051 7.89479 11.0687 7.72292 11.3437 7.5625C11.6187 7.40208 11.8937 7.26458 12.1687 7.15L12.7187 2.75H20.2812L20.8312 7.15C21.1291 7.26458 21.41 7.40208 21.674 7.5625C21.938 7.72292 22.1956 7.89479 22.4468 8.07812L26.5374 6.35938L30.3186 12.8906L26.778 15.5719C26.8009 15.7323 26.8124 15.8872 26.8124 16.0366V16.9634C26.8124 17.1128 26.7895 17.2677 26.7437 17.4281L30.2843 20.1094L26.503 26.6406L22.4468 24.9219C22.1947 25.1052 21.9312 25.2771 21.6562 25.4375C21.3812 25.5979 21.1062 25.7354 20.8312 25.85L20.2812 30.25H12.7187ZM16.5687 21.3125C17.8978 21.3125 19.0322 20.8427 19.9718 19.9031C20.9114 18.9635 21.3812 17.8292 21.3812 16.5C21.3812 15.1708 20.9114 14.0365 19.9718 13.0969C19.0322 12.1573 17.8978 11.6875 16.5687 11.6875C15.2166 11.6875 14.0762 12.1573 13.1477 13.0969C12.2191 14.0365 11.7552 15.1708 11.7562 16.5C11.7562 17.8292 12.22 18.9635 13.1477 19.9031C14.0753 20.8427 15.2157 21.3125 16.5687 21.3125Z" fill="#946CC3"/>
</svg>
