<svg width="55" height="50" viewBox="0 0 55 50" fill="none" xmlns="http://www.w3.org/2000/svg">
<path d="M0 46.4285H54.355V50H0V46.4285ZM48.5313 16.0709C49.0461 16.0709 49.5399 15.8828 49.904 15.5479C50.268 15.213 50.4725 14.7588 50.4725 14.2852V8.92795C50.4724 8.56095 50.3493 8.20292 50.12 7.90257C49.8908 7.60221 49.5665 7.37413 49.1913 7.24935L27.8375 0.106385C27.411 -0.0354616 26.944 -0.0354616 26.5175 0.106385L5.16373 7.24935C4.78854 7.37413 4.46426 7.60221 4.23501 7.90257C4.00576 8.20292 3.88267 8.56095 3.8825 8.92795V14.2852C3.8825 14.7588 4.08703 15.213 4.45108 15.5479C4.81514 15.8828 5.3089 16.0709 5.82375 16.0709H7.76501V39.2856H3.8825V42.857H50.4725V39.2856H46.59V16.0709H48.5313ZM7.76501 10.178L27.1775 3.67787L46.59 10.178V12.4994H7.76501V10.178ZM31.06 39.2856H23.295V16.0709H31.06V39.2856ZM11.6475 16.0709H19.4125V39.2856H11.6475V16.0709ZM42.7075 39.2856H34.9425V16.0709H42.7075V39.2856Z" fill="#946CC3"/>
</svg>
