<svg width="29" height="24" viewBox="0 0 29 24" fill="none" xmlns="http://www.w3.org/2000/svg">
<g clip-path="url(#clip0_819_2678)">
<path d="M25.2138 24H3.03448C2.22996 23.9991 1.45863 23.6791 0.889747 23.1103C0.320861 22.5414 0.000876232 21.7701 0 20.9655L0 7.17242C0.000876232 6.3679 0.320861 5.59657 0.889747 5.02769C1.45863 4.4588 2.22996 4.13882 3.03448 4.13794H25.2138C26.0183 4.13882 26.7896 4.4588 27.3585 5.02769C27.9274 5.59657 28.2474 6.3679 28.2483 7.17242V20.9655C28.2474 21.7701 27.9274 22.5414 27.3585 23.1103C26.7896 23.6791 26.0183 23.9991 25.2138 24ZM3.03448 5.79311C2.66867 5.79311 2.31783 5.93843 2.05916 6.1971C1.80049 6.45577 1.65517 6.80661 1.65517 7.17242V20.9655C1.65517 21.3313 1.80049 21.6822 2.05916 21.9408C2.31783 22.1995 2.66867 22.3448 3.03448 22.3448H25.2138C25.5796 22.3448 25.9304 22.1995 26.1891 21.9408C26.4478 21.6822 26.5931 21.3313 26.5931 20.9655V7.17242C26.5931 6.80661 26.4478 6.45577 26.1891 6.1971C25.9304 5.93843 25.5796 5.79311 25.2138 5.79311H3.03448Z" fill="white"/>
<path d="M24.0965 11.5862H15.7859C15.5664 11.5862 15.3559 11.499 15.2007 11.3438C15.0455 11.1886 14.9583 10.9781 14.9583 10.7586C14.9583 10.5391 15.0455 10.3286 15.2007 10.1734C15.3559 10.0182 15.5664 9.93104 15.7859 9.93104H23.6171L26.2228 5.38979C26.2748 5.29157 26.346 5.20481 26.4322 5.13468C26.5183 5.06456 26.6178 5.0125 26.7245 4.98163C26.8312 4.95075 26.9431 4.94169 27.0534 4.95497C27.1637 4.96825 27.2702 5.00361 27.3666 5.05894C27.4629 5.11427 27.5472 5.18844 27.6142 5.27702C27.6813 5.3656 27.7299 5.46678 27.757 5.57452C27.7841 5.68227 27.7893 5.79438 27.7722 5.90416C27.755 6.01394 27.716 6.11915 27.6573 6.21352L24.8132 11.1708C24.7408 11.2969 24.6364 11.4017 24.5106 11.4746C24.3848 11.5475 24.2419 11.586 24.0965 11.5862ZM12.4623 11.5862H4.15168C4.0061 11.5861 3.86313 11.5475 3.7372 11.4745C3.61127 11.4015 3.50684 11.2965 3.43443 11.1702L0.589745 6.21297C0.489488 6.02335 0.466767 5.80221 0.52637 5.59617C0.585972 5.39013 0.723244 5.21527 0.909249 5.10846C1.09525 5.00165 1.31546 4.97123 1.52346 5.02361C1.73146 5.07599 1.91099 5.20708 2.02423 5.38924L4.63112 9.93104H12.4623C12.6818 9.93104 12.8923 10.0182 13.0475 10.1734C13.2027 10.3286 13.2899 10.5391 13.2899 10.7586C13.2899 10.9781 13.2027 11.1886 13.0475 11.3438C12.8923 11.499 12.6818 11.5862 12.4623 11.5862Z" fill="white"/>
<path d="M14.1241 13.2414C13.6333 13.2401 13.154 13.0934 12.7466 12.8198C12.3391 12.5461 12.0219 12.1579 11.835 11.7042C11.6481 11.2504 11.5999 10.7514 11.6965 10.2702C11.793 9.78905 12.03 9.34729 12.3775 9.00073C12.725 8.65417 13.1674 8.41837 13.6488 8.3231C14.1302 8.22784 14.6291 8.27739 15.0823 8.4655C15.5356 8.65361 15.923 8.97183 16.1955 9.37997C16.468 9.78812 16.6135 10.2679 16.6135 10.7586C16.6119 11.4178 16.3489 12.0493 15.8822 12.5148C15.4155 12.9802 14.7832 13.2415 14.1241 13.2414ZM14.1241 9.93104C13.9607 9.93235 13.8013 9.982 13.6661 10.0737C13.5309 10.1655 13.4259 10.2952 13.3642 10.4465C13.3026 10.5978 13.2872 10.764 13.3198 10.9241C13.3525 11.0842 13.4319 11.231 13.5479 11.3461C13.6639 11.4612 13.8113 11.5394 13.9717 11.5708C14.132 11.6022 14.2981 11.5854 14.4489 11.5226C14.5998 11.4597 14.7286 11.3537 14.8193 11.2177C14.9099 11.0818 14.9583 10.922 14.9583 10.7586C14.9571 10.5384 14.8687 10.3275 14.7123 10.1724C14.5559 10.0172 14.3444 9.93046 14.1241 9.93104Z" fill="white"/>
<path d="M14.1241 17.3793C13.9046 17.3793 13.6941 17.2921 13.5389 17.1369C13.3837 16.9817 13.2965 16.7712 13.2965 16.5517V12.4138C13.2965 12.1943 13.3837 11.9838 13.5389 11.8286C13.6941 11.6734 13.9046 11.5862 14.1241 11.5862C14.3436 11.5862 14.5541 11.6734 14.7093 11.8286C14.8645 11.9838 14.9517 12.1943 14.9517 12.4138V16.5517C14.9517 16.7712 14.8645 16.9817 14.7093 17.1369C14.5541 17.2921 14.3436 17.3793 14.1241 17.3793Z" fill="white"/>
<path d="M15.7859 15.7241H12.4623C12.2429 15.7241 12.0324 15.6369 11.8772 15.4817C11.722 15.3265 11.6348 15.116 11.6348 14.8966C11.6348 14.6771 11.722 14.4666 11.8772 14.3114C12.0324 14.1562 12.2429 14.069 12.4623 14.069H15.7859C16.0054 14.069 16.2159 14.1562 16.3711 14.3114C16.5263 14.4666 16.6135 14.6771 16.6135 14.8966C16.6135 15.116 16.5263 15.3265 16.3711 15.4817C16.2159 15.6369 16.0054 15.7241 15.7859 15.7241ZM9.13766 14.8966H5.81407C5.59458 14.8966 5.38408 14.8094 5.22888 14.6542C5.07367 14.499 4.98648 14.2885 4.98648 14.069V10.7586C4.98648 10.5391 5.07367 10.3286 5.22888 10.1734C5.38408 10.0182 5.59458 9.93103 5.81407 9.93103C6.03356 9.93103 6.24406 10.0182 6.39926 10.1734C6.55446 10.3286 6.64165 10.5391 6.64165 10.7586V13.2414H8.31007V10.7586C8.31007 10.5391 8.39726 10.3286 8.55246 10.1734C8.70767 10.0182 8.91817 9.93103 9.13766 9.93103C9.35714 9.93103 9.56765 10.0182 9.72285 10.1734C9.87805 10.3286 9.96524 10.5391 9.96524 10.7586V14.069C9.96524 14.2885 9.87805 14.499 9.72285 14.6542C9.56765 14.8094 9.35714 14.8966 9.13766 14.8966ZM22.4342 14.8966H19.1106C18.8911 14.8966 18.6806 14.8094 18.5254 14.6542C18.3702 14.499 18.283 14.2885 18.283 14.069V10.7586C18.283 10.5391 18.3702 10.3286 18.5254 10.1734C18.6806 10.0182 18.8911 9.93103 19.1106 9.93103C19.3301 9.93103 19.5406 10.0182 19.6958 10.1734C19.851 10.3286 19.9382 10.5391 19.9382 10.7586V13.2414H21.6066V10.7586C21.6066 10.5391 21.6938 10.3286 21.849 10.1734C22.0042 10.0182 22.2147 9.93103 22.4342 9.93103C22.6537 9.93103 22.8642 10.0182 23.0194 10.1734C23.1746 10.3286 23.2618 10.5391 23.2618 10.7586V14.069C23.2618 14.2885 23.1746 14.499 23.0194 14.6542C22.8642 14.8094 22.6537 14.8966 22.4342 14.8966ZM19.9415 5.7931C19.7763 5.79311 19.6149 5.74367 19.478 5.65114C19.3411 5.55862 19.2351 5.42724 19.1735 5.27393L17.7197 1.65517H10.5286L9.07476 5.27393C9.03426 5.37479 8.97429 5.46668 8.89827 5.54436C8.82226 5.62203 8.73169 5.68398 8.63173 5.72666C8.53178 5.76933 8.4244 5.7919 8.31572 5.79308C8.20705 5.79426 8.0992 5.77402 7.99834 5.73352C7.89749 5.69302 7.8056 5.63305 7.72792 5.55703C7.65024 5.48102 7.5883 5.39045 7.54562 5.29049C7.50294 5.19054 7.48037 5.08316 7.47919 4.97448C7.47802 4.8658 7.49826 4.75796 7.53876 4.6571L9.2011 0.519172C9.26267 0.365862 9.36872 0.234488 9.50559 0.141962C9.64246 0.0494366 9.80389 -5.73607e-06 9.9691 4.99134e-10H18.2792C18.4444 -5.73607e-06 18.6058 0.0494366 18.7427 0.141962C18.8796 0.234488 18.9856 0.365862 19.0472 0.519172L20.7095 4.6571C20.76 4.7827 20.7788 4.91874 20.7645 5.05332C20.7501 5.1879 20.703 5.3169 20.6272 5.42903C20.5514 5.54115 20.4492 5.63297 20.3297 5.69645C20.2101 5.75992 20.0769 5.79311 19.9415 5.7931ZM5.81407 24C5.59458 24 5.38408 23.9128 5.22888 23.7576C5.07367 23.6024 4.98648 23.3919 4.98648 23.1724V21.5172C4.98385 20.8571 4.71947 20.225 4.25133 19.7595C3.78319 19.2941 3.14953 19.0333 2.48938 19.0345H0.827586C0.608097 19.0345 0.397597 18.9473 0.242394 18.7921C0.0871919 18.6369 0 18.4264 0 18.2069C0 17.9874 0.0871919 17.7769 0.242394 17.6217C0.397597 17.4665 0.608097 17.3793 0.827586 17.3793H2.48938C4.77903 17.3793 6.64165 19.2353 6.64165 21.5172V23.1724C6.64165 23.3919 6.55446 23.6024 6.39926 23.7576C6.24406 23.9128 6.03356 24 5.81407 24ZM22.4342 24C22.2147 24 22.0042 23.9128 21.849 23.7576C21.6938 23.6024 21.6066 23.3919 21.6066 23.1724V21.5172C21.6066 19.2353 23.4692 17.3793 25.7589 17.3793H27.4207C27.6402 17.3793 27.8507 17.4665 28.0059 17.6217C28.1611 17.7769 28.2483 17.9874 28.2483 18.2069C28.2483 18.4264 28.1611 18.6369 28.0059 18.7921C27.8507 18.9473 27.6402 19.0345 27.4207 19.0345H25.7589C25.0987 19.0333 24.4651 19.2941 23.9969 19.7595C23.5288 20.225 23.2644 20.8571 23.2618 21.5172V23.1724C23.2618 23.3919 23.1746 23.6024 23.0194 23.7576C22.8642 23.9128 22.6537 24 22.4342 24ZM19.1106 20.6897H9.13766C8.91817 20.6897 8.70767 20.6025 8.55246 20.4473C8.39726 20.2921 8.31007 20.0816 8.31007 19.8621C8.31007 19.6426 8.39726 19.4321 8.55246 19.2769C8.70767 19.1217 8.91817 19.0345 9.13766 19.0345H19.1106C19.3301 19.0345 19.5406 19.1217 19.6958 19.2769C19.851 19.4321 19.9382 19.6426 19.9382 19.8621C19.9382 20.0816 19.851 20.2921 19.6958 20.4473C19.5406 20.6025 19.3301 20.6897 19.1106 20.6897Z" fill="white"/>
</g>
<defs>
<clipPath id="clip0_819_2678">
<rect width="28.2483" height="24" fill="white"/>
</clipPath>
</defs>
</svg>
