<svg width="37" height="36" viewBox="0 0 37 36" fill="none" xmlns="http://www.w3.org/2000/svg">
<path d="M18.4999 27.75C19.1423 27.75 19.6885 27.531 20.1387 27.093C20.5889 26.655 20.8134 26.124 20.8124 25.5H16.1874C16.1874 26.125 16.4125 26.6565 16.8627 27.0945C17.3128 27.5325 17.8586 27.751 18.4999 27.75ZM10.7916 24H26.2083V21H24.6666V17.1C24.6666 15.575 24.2616 14.181 23.4518 12.918C22.6419 11.655 21.5051 10.849 20.0416 10.5V9.75C20.0416 9.325 19.8936 8.9685 19.5976 8.6805C19.3016 8.3925 18.9357 8.249 18.4999 8.25C18.0631 8.25 17.6967 8.394 17.4007 8.682C17.1047 8.97 16.9572 9.326 16.9583 9.75V10.5C15.4937 10.85 14.3569 11.6565 13.5481 12.9195C12.7392 14.1825 12.3343 15.576 12.3333 17.1V21H10.7916V24ZM18.4999 33C16.3673 33 14.3631 32.606 12.4874 31.818C10.6117 31.03 8.98013 29.9615 7.59263 28.6125C6.20513 27.2625 5.10695 25.675 4.29809 23.85C3.48922 22.025 3.08428 20.075 3.08325 18C3.08325 15.925 3.4882 13.975 4.29809 12.15C5.10797 10.325 6.20616 8.7375 7.59263 7.3875C8.98013 6.0375 10.6117 4.969 12.4874 4.182C14.3631 3.395 16.3673 3.001 18.4999 3C20.6326 3 22.6367 3.394 24.5124 4.182C26.3881 4.97 28.0197 6.0385 29.4072 7.3875C30.7947 8.7375 31.8934 10.325 32.7033 12.15C33.5132 13.975 33.9176 15.925 33.9166 18C33.9166 20.075 33.5116 22.025 32.7018 23.85C31.8919 25.675 30.7937 27.2625 29.4072 28.6125C28.0197 29.9625 26.3881 31.0315 24.5124 31.8195C22.6367 32.6075 20.6326 33.001 18.4999 33Z" fill="#946CC3"/>
</svg>
