<svg width="61" height="50" viewBox="0 0 61 50" fill="none" xmlns="http://www.w3.org/2000/svg">
<path d="M30.5 0C13.644 0 3.16656e-10 12.6343 3.16656e-10 28.249V33.5456C-9.12353e-06 34.2014 0.197146 34.8442 0.569375 35.4021C0.941603 35.9599 1.4742 36.4107 2.10748 36.704L3.82108 37.4975C4.06067 44.1283 9.93882 49.4357 17.1562 49.4357H20.0156C21.5948 49.4357 22.875 48.25 22.875 46.7873V27.3662C22.875 25.9035 21.5948 24.7178 20.0156 24.7178H17.1562C13.4221 24.7178 10.047 26.139 7.62499 28.4285V28.249C7.62499 16.5666 17.8867 7.06224 30.5 7.06224C43.1133 7.06224 53.375 16.5666 53.375 28.249V28.4285C50.953 26.139 47.5778 24.7178 43.8437 24.7178H40.9843C39.4051 24.7178 38.125 25.9035 38.125 27.3662V46.7873C38.125 48.25 39.4051 49.4357 40.9843 49.4357H43.8437C51.0611 49.4357 56.9393 44.1282 57.1789 37.4975L58.8924 36.704C59.5257 36.4107 60.0583 35.9599 60.4305 35.4021C60.8028 34.8443 61 34.2014 61 33.5456V28.249C61 12.6371 47.3588 0 30.5 0Z" fill="#946CC3"/>
</svg>
