<svg width="39" height="49" viewBox="0 0 39 49" fill="none" xmlns="http://www.w3.org/2000/svg">
<path d="M38.4793 12.2883C38.8116 12.6164 39 13.0594 39 13.5242V47.25C39 48.218 38.2078 49 37.2273 49H1.77273C0.792187 49 0 48.218 0 47.25V1.75C0 0.782031 0.792187 0 1.77273 0H25.3001C25.771 0 26.2253 0.185938 26.5577 0.514063L38.4793 12.2883ZM34.9116 14.3281L24.4858 4.03594V14.3281H34.9116ZM26.2153 31.3502C25.3744 31.3228 24.4803 31.3868 23.4648 31.512C22.1187 30.6923 21.2123 29.5662 20.5686 27.912L20.6279 27.6724L20.6966 27.3891C20.9348 26.3977 21.0628 25.6741 21.101 24.9446C21.1298 24.3939 21.0988 23.8859 20.9996 23.415C20.8168 22.3984 20.0883 21.8039 19.1704 21.7673C18.3145 21.7328 17.5278 22.2048 17.3267 22.9359C16.9993 24.1183 17.191 25.6741 17.8852 28.3276C17.001 30.4084 15.8327 32.848 15.0488 34.2087C14.0023 34.7413 13.1874 35.2259 12.5027 35.7629C11.5997 36.4722 11.0358 37.2012 10.8807 37.9668C10.8053 38.3217 10.9189 38.7855 11.1776 39.1655C11.4712 39.5965 11.9133 39.8765 12.4434 39.917C13.7813 40.0192 15.4255 38.6575 17.2409 35.5824C17.4231 35.5223 17.6159 35.4588 17.8514 35.3801L18.5106 35.1602C18.9277 35.0213 19.2302 34.9218 19.5294 34.8261C20.8257 34.4094 21.8062 34.1463 22.6981 33.9965C24.2481 34.8157 26.0397 35.3527 27.2463 35.3527C28.2423 35.3527 28.9154 34.843 29.1586 34.0408C29.3719 33.3364 29.2029 32.5194 28.7442 32.0677C28.27 31.6077 27.3981 31.3879 26.2153 31.3502ZM12.4772 38.3731V38.3534L12.4844 38.3348C12.5655 38.128 12.6695 37.9306 12.7947 37.7464C13.0318 37.3866 13.3581 37.0081 13.7625 36.6051C13.9796 36.3891 14.2056 36.1785 14.471 35.9423C14.5303 35.8898 14.9092 35.5567 14.9801 35.4911L15.5989 34.9223L15.1491 35.6295C14.4666 36.7035 13.8494 37.4768 13.3209 37.981C13.1265 38.167 12.9553 38.3037 12.8168 38.3917C12.7711 38.4219 12.7227 38.4479 12.6722 38.4694C12.6495 38.4787 12.6296 38.4841 12.6096 38.4858C12.5886 38.4884 12.5672 38.4856 12.5476 38.4776C12.5267 38.469 12.5089 38.4544 12.4964 38.4358C12.4839 38.4173 12.4772 38.3954 12.4772 38.3731ZM19.454 26.4359L19.3288 26.6547L19.2513 26.4152C19.0795 25.8776 18.9532 25.0677 18.9183 24.337C18.8784 23.5058 18.9455 23.007 19.2114 23.007C19.5848 23.007 19.7559 23.5977 19.7692 24.4863C19.7814 25.2673 19.6568 26.0799 19.4535 26.4359H19.454ZM19.1322 29.633L19.2169 29.4115L19.3327 29.6193C19.9803 30.7809 20.8207 31.7499 21.7447 32.4253L21.9441 32.5708L21.701 32.62C20.7963 32.8048 19.9537 33.0827 18.8014 33.5415C18.9216 33.4934 17.6037 34.026 17.2702 34.1523L16.9794 34.2623L17.1345 33.9954C17.8187 32.8196 18.4508 31.4076 19.1316 29.633H19.1322ZM27.8639 33.8034C27.4285 33.973 26.4912 33.8215 24.8409 33.1259L24.4221 32.9498L24.8763 32.917C26.1671 32.8223 27.0812 32.8923 27.6141 33.0848C27.8412 33.1669 27.9925 33.2702 28.0595 33.3884C28.0948 33.4443 28.1066 33.5116 28.0926 33.576C28.0785 33.6404 28.0396 33.6968 27.9842 33.7334C27.9489 33.7641 27.9081 33.7878 27.8639 33.8034Z" fill="#EE0505"/>
</svg>
