<svg width="54" height="51" viewBox="0 0 54 51" fill="none" xmlns="http://www.w3.org/2000/svg">
<path d="M16.5816 47.1522L43.5822 21.8127L30.7574 9.77689L3.75679 35.1164C3.38507 35.4657 3.12102 35.9029 2.99265 36.3816L0 50.6778L15.2305 47.8693C15.7419 47.7493 16.2097 47.5012 16.5816 47.1522ZM52.2987 13.6325C53.388 12.6098 54 11.223 54 9.77689C54 8.33083 53.388 6.94397 52.2987 5.92129L47.6906 1.5967C46.6008 0.574333 45.1231 0 43.5822 0C42.0414 0 40.5636 0.574333 39.4739 1.5967L34.8658 5.92129L47.6906 17.9571L52.2987 13.6325Z" fill="#946CC3"/>
</svg>
