<svg width="24" height="25" viewBox="0 0 24 25" fill="none" xmlns="http://www.w3.org/2000/svg">
<path d="M23.7069 12.7777C23.7069 11.75 23.6262 11 23.4515 10.2222H12.0953V14.861H18.7612C18.6268 16.0139 17.9011 17.75 16.2884 18.9166L16.2658 19.0719L19.8564 21.9465L20.1051 21.9722C22.3898 19.7916 23.7069 16.5833 23.7069 12.7777Z" fill="#4285F4"/>
<path d="M12.0954 25C15.3611 25 18.1026 23.8888 20.1052 21.9722L16.2884 18.9166C15.267 19.6527 13.8962 20.1666 12.0954 20.1666C8.89683 20.1666 6.18212 17.9861 5.2144 14.9722L5.07255 14.9847L1.33897 17.9708L1.29015 18.1111C3.27914 22.1944 7.36469 25 12.0954 25Z" fill="#34A853"/>
<path d="M5.21439 14.9722C4.95904 14.1945 4.81127 13.3611 4.81127 12.5C4.81127 11.6389 4.95904 10.8056 5.20095 10.0278L5.19419 9.86214L1.41383 6.82806L1.29014 6.88886C0.47038 8.58332 0 10.4861 0 12.5C0 14.5139 0.47038 16.4166 1.29014 18.1111L5.21439 14.9722Z" fill="#FBBC05"/>
<path d="M12.0954 4.8333C14.3666 4.8333 15.8986 5.84718 16.7722 6.69446L20.1858 3.25C18.0893 1.23612 15.361 0 12.0954 0C7.36469 0 3.27914 2.80553 1.29015 6.88883L5.20096 10.0278C6.18211 7.01388 8.89683 4.8333 12.0954 4.8333Z" fill="#EB4335"/>
</svg>
