<svg width="280" height="223" viewBox="0 0 280 223" fill="none" xmlns="http://www.w3.org/2000/svg">
<path d="M133.937 168.882L101.051 183.073L60.3411 74.1605L88.1392 62.1655C90.949 60.953 94.1418 62.4179 95.2703 65.4369L133.936 168.882H133.937Z" fill="#F4A640"/>
<path d="M122.11 69.7113L59.1404 81.7021L74.8312 176.829L137.801 164.838L122.11 69.7113Z" fill="#ADCFD8"/>
<path d="M106.204 82.4766L78.0844 87.8311L78.1962 88.5091L106.316 83.1546L106.204 82.4766Z" fill="#55769F"/>
<path d="M111.827 79.6318L71.8924 87.2361L72.0043 87.9141L111.938 80.3098L111.827 79.6318Z" fill="#55769F"/>
<path d="M117.543 87.6649L69.0935 96.8906L69.2053 97.5686L117.654 88.3429L117.543 87.6649Z" fill="#55769F"/>
<path d="M118.082 90.9265L69.6328 100.152L69.7447 100.83L118.194 91.6045L118.082 90.9265Z" fill="#55769F"/>
<path d="M119.157 97.4512L70.708 106.677L70.8198 107.355L119.269 98.1292L119.157 97.4512Z" fill="#55769F"/>
<path d="M119.696 100.713L71.2474 109.939L71.3592 110.617L119.808 101.391L119.696 100.713Z" fill="#55769F"/>
<path d="M120.234 103.976L71.7844 113.202L71.8963 113.88L120.345 104.654L120.234 103.976Z" fill="#55769F"/>
<path d="M122.6 118.324L74.1514 127.55L74.2632 128.228L122.712 119.002L122.6 118.324Z" fill="#55769F"/>
<path d="M123.158 121.708L74.7087 130.934L74.8206 131.612L123.27 122.386L123.158 121.708Z" fill="#55769F"/>
<path d="M123.717 125.092L75.2676 134.317L75.3795 134.995L123.829 125.77L123.717 125.092Z" fill="#55769F"/>
<path d="M124.274 128.474L75.8251 137.7L75.9369 138.378L124.386 129.152L124.274 128.474Z" fill="#55769F"/>
<path d="M124.833 131.856L76.3837 141.082L76.4955 141.76L124.945 132.534L124.833 131.856Z" fill="#55769F"/>
<path d="M125.39 135.241L76.9413 144.467L77.0532 145.145L125.502 135.919L125.39 135.241Z" fill="#55769F"/>
<path d="M125.949 138.622L77.5 147.848L77.6119 148.526L126.061 139.3L125.949 138.622Z" fill="#55769F"/>
<path d="M113.034 67.3391L51.1873 84.8218L74.0646 178.251L135.911 160.768L113.034 67.3391Z" fill="#DAEEF7"/>
<path d="M98.1519 81.4595L70.5341 89.2664L70.6972 89.9323L98.315 82.1254L98.1519 81.4595Z" fill="#55769F"/>
<path d="M103.54 78.131L64.3184 89.2181L64.4815 89.884L103.703 78.7969L103.54 78.131Z" fill="#55769F"/>
<path d="M109.85 85.6336L62.265 99.0847L62.428 99.7506L110.013 86.2995L109.85 85.6336Z" fill="#55769F"/>
<path d="M110.632 88.8376L63.0477 102.289L63.2107 102.955L110.796 89.5035L110.632 88.8376Z" fill="#55769F"/>
<path d="M112.203 95.2463L64.6183 108.697L64.7813 109.363L112.366 95.9122L112.203 95.2463Z" fill="#55769F"/>
<path d="M112.988 98.4499L65.4035 111.901L65.5665 112.567L113.151 99.1158L112.988 98.4499Z" fill="#55769F"/>
<path d="M113.771 101.655L66.1863 115.107L66.3493 115.772L113.934 102.321L113.771 101.655Z" fill="#55769F"/>
<path d="M117.222 115.749L69.637 129.2L69.8 129.866L117.385 116.415L117.222 115.749Z" fill="#55769F"/>
<path d="M118.037 119.069L70.4518 132.521L70.6148 133.187L118.2 119.735L118.037 119.069Z" fill="#55769F"/>
<path d="M118.849 122.393L71.2644 135.844L71.4274 136.51L119.012 123.059L118.849 122.393Z" fill="#55769F"/>
<path d="M119.664 125.715L72.0791 139.166L72.2421 139.832L119.827 126.381L119.664 125.715Z" fill="#55769F"/>
<path d="M120.476 129.038L72.8914 142.489L73.0544 143.155L120.639 129.704L120.476 129.038Z" fill="#55769F"/>
<path d="M121.291 132.361L73.7065 145.812L73.8696 146.478L121.454 133.027L121.291 132.361Z" fill="#55769F"/>
<path d="M122.104 135.683L74.5187 149.135L74.6818 149.801L122.267 136.349L122.104 135.683Z" fill="#55769F"/>
<path d="M121.458 174.267L55.2501 202.837L16.6341 99.5249L72.2697 62.6497C75.3961 60.5772 79.5068 62.0311 80.8766 65.6948L121.46 174.268L121.458 174.267Z" fill="#FEB546"/>
<path d="M33.8849 186.118L24.4393 185.934C21.1597 179.549 18.7546 173.997 18.7546 173.997C29.4219 171.355 38.4245 172.44 45.9258 175.537L50.0594 186.325L50.9441 178.018C69.5327 188.797 77.1923 211.613 77.1923 211.613C77.1923 211.613 44.3402 207.853 37.3764 204.373C34.6878 203.029 31.2985 198.194 28.1516 192.765C30.6691 190.189 33.8861 186.118 33.8861 186.118H33.8849Z" fill="#FF5B7E"/>
<path d="M18.7546 173.995C18.7546 173.995 60.9323 193.067 77.1911 211.611C77.1911 211.611 44.339 207.852 37.3751 204.372C34.6866 203.028 31.2972 198.192 28.1504 192.764C30.6678 190.188 33.8849 186.117 33.8849 186.117L24.4393 185.933C21.1597 179.548 18.7546 173.995 18.7546 173.995Z" fill="#E03268"/>
<path d="M20.1001 204.476C25.7797 200.76 31.5091 198.771 37.0534 197.979C38.6785 200.15 40.6738 202.702 40.6738 202.702L40.8845 197.612C62.1591 196.571 79.7877 211.887 79.7877 211.887C67.4659 220.231 56.9556 222.532 48.345 221.786C47.8343 220.006 47.113 217.349 47.113 217.349L45.5926 221.438C41.4653 220.745 37.8232 219.361 34.6776 217.671C35.4832 215.551 36.3321 213.126 36.3321 213.126L31.7466 215.924C24.0627 210.876 20.1014 204.475 20.1014 204.475L20.1001 204.476Z" fill="#FF5B7E"/>
<path d="M48.345 221.787C47.8343 220.007 47.113 217.35 47.113 217.35L45.5926 221.439C41.4654 220.746 37.8232 219.362 34.6777 217.672C35.4832 215.552 36.3321 213.127 36.3321 213.127L31.7466 215.925C24.0627 210.877 20.1014 204.476 20.1014 204.476C44.8892 201.399 79.789 211.888 79.789 211.888C67.4672 220.232 56.9569 222.534 48.3462 221.787H48.345Z" fill="#E03268"/>
<path d="M144.234 67.1679L151.848 61.1601C151.095 53.9123 150.077 47.8867 150.077 47.8867C139.948 52.3446 133.178 58.8146 128.717 65.9965L131.138 77.3701L125.952 71.136C116.563 91.4651 122.565 114.847 122.565 114.847C122.565 114.847 147.372 91.4034 151.189 84.2421C152.664 81.4768 152.834 75.4279 152.486 69.0415C149.047 68.4997 144.233 67.1706 144.233 67.1706L144.234 67.1679Z" fill="#02CCC0"/>
<path d="M150.077 47.8854C150.077 47.8854 125.881 89.6162 122.567 114.843C122.567 114.843 147.373 91.3993 151.191 84.238C152.665 81.4727 152.835 75.4238 152.488 69.0374C149.048 68.4956 144.234 67.1665 144.234 67.1665L151.848 61.1587C151.095 53.911 150.077 47.8854 150.077 47.8854Z" fill="#06BFAD"/>
<path d="M165.353 73.6105C158.719 74.0988 152.973 76.0287 148.018 78.8186C147.857 81.5989 147.599 84.921 147.599 84.921L144.694 80.8953C126.763 93.2387 120.594 116.679 120.594 116.679C135.139 115.852 144.958 111.211 151.588 105.262C151.048 103.492 150.21 100.875 150.21 100.875L153.649 103.271C156.648 100.145 158.878 96.7569 160.538 93.4252C158.74 92.1935 156.745 90.7395 156.745 90.7395L161.993 90.1813C165.556 81.2944 165.352 73.6105 165.352 73.6105H165.353Z" fill="#02CCC0"/>
<path d="M151.589 105.264C151.049 103.493 150.211 100.876 150.211 100.876L153.651 103.272C156.649 100.146 158.88 96.7583 160.539 93.4266C158.742 92.1949 156.746 90.7409 156.746 90.7409L161.994 90.1827C165.557 81.2958 165.353 73.6119 165.353 73.6119C143.459 86.4724 120.596 116.681 120.596 116.681C135.14 115.854 144.959 111.214 151.589 105.265V105.264Z" fill="#06BFAD"/>
<path d="M226.218 103.339H230.746C230.005 102.795 229.079 102.47 228.07 102.47H114.645C108.712 102.47 103.9 107.051 103.9 112.704V119.204C103.9 124.855 108.71 129.438 114.645 129.438L226.801 129.401L226.218 103.339Z" fill="#E03268"/>
<path d="M113.415 119.204V112.704C113.415 107.051 118.225 102.47 124.16 102.47H121.724C115.79 102.47 110.979 107.051 110.979 112.704V119.204C110.979 124.855 115.789 129.438 121.724 129.438H124.128C118.208 129.42 113.415 124.845 113.415 119.204Z" fill="#FEB546"/>
<path d="M139.978 119.204V112.704C139.978 107.051 144.788 102.47 150.723 102.47H148.288C142.354 102.47 137.542 107.051 137.542 112.704V119.204C137.542 124.855 142.353 129.438 148.288 129.438H150.691C144.772 129.42 139.978 124.845 139.978 119.204Z" fill="#FEB546"/>
<path d="M161.823 102.493C156.148 102.493 151.548 106.874 151.548 112.28V119.626C151.548 125.032 156.149 129.413 161.823 129.413H232.434V127.77H232.141L214.191 126.151L210.563 112.595C210.563 112.595 217.565 105.103 218.022 104.911C218.479 104.718 232.141 104.132 232.141 104.132L232.434 104.129V102.496H161.823V102.493Z" fill="#FF5B7E"/>
<path d="M227.854 115.905C227.854 107.978 232.155 104.136 232.155 104.136H163.271C158.059 104.136 153.833 108.161 153.833 113.126V118.781C153.833 123.745 158.059 127.771 163.271 127.771H232.155C232.155 127.771 227.854 125.886 227.854 115.906V115.905Z" fill="#DAEEF7"/>
<g style="mix-blend-mode:multiply">
<path d="M153.832 113.126V118.781C153.832 119.525 153.929 120.246 154.106 120.938C156.43 115.524 160.883 110.309 169.359 108.633C189.149 104.718 232.154 104.138 232.154 104.138H163.27C158.058 104.138 153.832 108.162 153.832 113.127V113.126Z" fill="#DAEEF7"/>
</g>
<path d="M224.35 157.242H229.474C228.636 156.56 227.588 156.153 226.446 156.153H98.0712C91.355 156.153 85.9103 161.888 85.9103 168.963V177.099C85.9103 184.174 91.355 189.909 98.0712 189.909L225.01 189.864L224.35 157.242Z" fill="#284C7A"/>
<path d="M151.469 156.183C145.046 156.183 139.839 161.668 139.839 168.433V177.629C139.839 184.394 145.046 189.879 151.469 189.879H231.385V187.822H231.055L210.738 185.794L206.631 168.826C206.631 168.826 214.556 159.449 215.073 159.208C215.59 158.966 231.054 158.233 231.054 158.233L231.384 158.228V156.183H151.468H151.469Z" fill="#55769F"/>
<path d="M226.202 172.971C226.202 163.05 231.07 158.241 231.07 158.241H153.107C147.208 158.241 142.424 163.279 142.424 169.492V176.57C142.424 182.784 147.206 187.822 153.107 187.822H231.07C231.07 187.822 226.202 185.462 226.202 172.969V172.971Z" fill="#DAEEF7"/>
<g style="mix-blend-mode:multiply">
<path d="M142.423 169.492V176.57C142.423 177.5 142.533 178.404 142.734 179.268C145.364 172.491 150.403 165.964 159.997 163.866C182.395 158.966 231.069 158.239 231.069 158.239H153.106C147.206 158.239 142.423 163.277 142.423 169.491V169.492Z" fill="#DAEEF7"/>
</g>
<path d="M81.6795 130.232H76.5527C77.3914 129.691 78.4408 129.368 79.5821 129.368H208.007C214.726 129.368 220.173 133.919 220.173 139.532V145.988C220.173 151.602 214.726 156.152 208.007 156.152L81.0182 156.116L81.6795 130.232Z" fill="#02CCC0"/>
<path d="M154.589 129.392C161.014 129.392 166.224 133.745 166.224 139.113V146.409C166.224 151.778 161.015 156.13 154.589 156.13H74.6416V154.498H74.9723L95.297 152.89L99.4052 139.426C99.4052 139.426 91.4762 131.986 90.9592 131.794C90.4421 131.602 74.9723 131.021 74.9723 131.021L74.6416 131.018V129.395H154.589V129.392Z" fill="#06BFAD"/>
<path d="M79.8259 142.712C79.8259 134.841 74.9569 131.025 74.9569 131.025H152.951C158.853 131.025 163.637 135.022 163.637 139.953V145.568C163.637 150.499 158.853 154.496 152.951 154.496H74.9569C74.9569 154.496 79.8259 152.624 79.8259 142.712Z" fill="#DAEEF7"/>
<g style="mix-blend-mode:multiply">
<path d="M163.637 139.953V145.568C163.637 146.306 163.528 147.023 163.326 147.709C160.695 142.332 155.654 137.153 146.056 135.488C123.649 131.599 74.9557 131.023 74.9557 131.023H152.95C158.851 131.023 163.636 135.02 163.636 139.951L163.637 139.953Z" fill="#DAEEF7"/>
</g>
<path opacity="0.5" d="M196.647 145.989V139.533C196.647 133.92 191.199 129.369 184.481 129.369H196.676C203.395 129.369 208.842 133.92 208.842 139.533V145.989C208.842 151.603 203.395 156.153 196.676 156.153L184.643 156.149C191.287 156.076 196.647 151.557 196.647 145.988V145.989Z" fill="#55769F"/>
<path d="M71.9838 190.943H66.4574C67.3612 190.34 68.4923 189.978 69.7229 189.978H208.168C215.411 189.978 221.284 195.062 221.284 201.334V208.547C221.284 214.82 215.411 219.903 208.168 219.903L71.2714 219.863L71.9838 190.942V190.943Z" fill="#FEB546"/>
<path d="M150.582 190.004C157.509 190.004 163.124 194.866 163.124 200.865V209.016C163.124 215.014 157.509 219.877 150.582 219.877H64.397V218.054H64.7531L86.6635 216.257L91.092 201.214C91.092 201.214 82.5451 192.901 81.9873 192.687C81.4294 192.473 64.7531 191.823 64.7531 191.823L64.397 191.82V190.007H150.583L150.582 190.004Z" fill="#F4A640"/>
<path d="M69.9859 204.887C69.9859 196.093 64.7365 191.828 64.7365 191.828H148.816C155.179 191.828 160.336 196.294 160.336 201.804V208.079C160.336 213.589 155.179 218.055 148.816 218.055H64.7365C64.7365 218.055 69.9859 215.963 69.9859 204.889V204.887Z" fill="#DAEEF7"/>
<g style="mix-blend-mode:multiply">
<path d="M160.336 201.803V208.078C160.336 208.902 160.219 209.703 160 210.47C157.165 204.462 151.729 198.675 141.384 196.815C117.228 192.471 64.7365 191.828 64.7365 191.828H148.816C155.179 191.828 160.336 196.294 160.336 201.804V201.803Z" fill="#DAEEF7"/>
</g>
<path d="M31.0457 219.697H264.538C265.227 219.697 265.787 220.299 265.787 221.04V221.657C265.787 222.398 265.227 223 264.538 223H31.0457C30.3563 223 29.7959 222.398 29.7959 221.657V221.04C29.7959 220.299 30.3563 219.697 31.0457 219.697Z" fill="#C4DFE8"/>
<path d="M28.3648 110.931L73.4417 83.2285L79.5349 96.196L33.41 122.413L28.3648 110.931Z" fill="#F4A640"/>
<path d="M113.31 32.0237C113.31 32.0237 112.954 35.7902 110.187 36.0508C112.954 36.3114 113.31 40.078 113.31 40.078C113.31 40.078 113.666 36.3114 116.433 36.0508C113.666 35.7902 113.31 32.0237 113.31 32.0237Z" fill="#02CCC0"/>
<path d="M65.5114 3.0862C65.5114 3.0862 65.0378 8.10367 61.3523 8.45069C65.0378 8.79772 65.5114 13.8152 65.5114 13.8152C65.5114 13.8152 65.9851 8.79772 69.6706 8.45069C65.9851 8.10367 65.5114 3.0862 65.5114 3.0862Z" fill="#FEB546"/>
<path d="M46.2054 47.9622C46.2054 47.9622 45.8875 51.3309 43.4135 51.5641C45.8875 51.7973 46.2054 55.166 46.2054 55.166C46.2054 55.166 46.5233 51.7973 48.9973 51.5641C46.5233 51.3309 46.2054 47.9622 46.2054 47.9622Z" fill="#FF5B7E"/>
<path d="M265.457 128.346C265.457 128.346 264.983 133.363 261.299 133.71C264.984 134.057 265.457 139.075 265.457 139.075C265.457 139.075 265.93 134.057 269.616 133.71C265.932 133.363 265.457 128.346 265.457 128.346Z" fill="#FF5B7E"/>
<path d="M4.15917 84.168C4.15917 84.168 3.68555 89.1855 0 89.5325C3.68555 89.8796 4.15917 94.897 4.15917 94.897C4.15917 94.897 4.63279 89.8796 8.31834 89.5325C4.63279 89.1855 4.15917 84.168 4.15917 84.168Z" fill="#02CCC0"/>
<path d="M275.301 78.8035C275.301 78.8035 274.827 83.821 271.143 84.168C274.827 84.515 275.301 89.5325 275.301 89.5325C275.301 89.5325 275.774 84.515 279.46 84.168C275.774 83.821 275.301 78.8035 275.301 78.8035Z" fill="#02CCC0"/>
<path d="M160.336 0C160.336 0 159.863 5.01746 156.177 5.36449C159.863 5.71151 160.336 10.729 160.336 10.729C160.336 10.729 160.81 5.71151 164.495 5.36449C160.81 5.01746 160.336 0 160.336 0Z" fill="#FF5B7E"/>
<path d="M239.281 41.9009C239.281 41.9009 239.023 45.0694 237.02 45.2875C239.023 45.5069 239.281 48.674 239.281 48.674C239.281 48.674 239.539 45.5055 241.541 45.2875C239.538 45.068 239.281 41.9009 239.281 41.9009Z" fill="#FEB546"/>
<path d="M77.5803 196.3L71.3569 196.638L70.5692 216.475L67.3854 218.122L67.5386 218.845L68.722 219.146C68.722 219.146 72.5505 219.076 72.6654 219.076C72.7803 219.076 73.5692 218.14 73.5692 218.14L73.4505 217.977L74.0863 217.513L77.5803 196.302V196.3Z" fill="#FFC0BB"/>
<path d="M94.4379 218.122C94.4379 218.122 91.3293 216.445 91.2527 216.475L91.9574 196.276L84.2429 196.301L87.737 217.512L88.12 217.792C88.0242 218.144 87.9476 218.449 87.9297 218.546C87.88 218.811 89.2446 218.829 89.7208 218.917C90.197 219.004 91.577 219.164 92.4642 219.428C93.3515 219.693 94.4685 218.917 94.4685 218.917L94.4391 218.124L94.4379 218.122Z" fill="#FFC0BB"/>
<path d="M94.646 141.778C93.7473 139.268 92.8741 140.263 91.2528 137.227C90.9949 136.744 90.8098 136.12 90.6796 135.544C90.2902 133.823 89.4489 132.251 88.2017 131.093C84.4 127.565 80.0991 129.132 80.0991 129.132C80.0991 129.132 81.2149 135.95 81.428 137.333C80.4783 138.722 79.5195 140.141 79.5195 140.141C79.5195 140.141 77.5191 151.348 80.6583 152.293C83.7987 153.238 84.3693 151.721 85.9025 150.933C87.4357 150.143 88.9332 152.299 91.2234 150.798C92.9736 149.652 92.0851 146.793 93.0107 146.257C93.9362 145.72 95.6149 144.487 94.646 141.778Z" fill="#FF5500"/>
<path d="M78.4702 134.787C78.414 134.761 76.9753 133.889 75.6272 133.071L83.9978 123.059C83.9978 123.059 81.4612 122.531 81.3068 122.511C81.1523 122.49 77.5153 123.707 77.5153 123.707L73.7646 124.799C70.9025 136.02 67.3382 138.052 67.3369 138.053C66.9067 138.36 66.4995 138.77 66.0884 139.485C64.6675 141.954 66.105 143.5 66.922 144.212C67.739 144.923 66.3718 147.556 67.8935 149.03C69.8863 150.961 71.7284 149.14 73.0995 150.222C74.4706 151.304 74.7693 152.908 78.0182 152.605C81.2672 152.301 81.2353 140.889 81.2353 140.889C81.2353 140.889 78.5761 134.839 78.4714 134.788L78.4702 134.787Z" fill="#FF5500"/>
<path d="M92.68 155.244C92.68 155.244 95.4426 169.414 94.6409 170.946C93.8392 172.478 83.3238 172.957 83.3238 172.957L82.8783 154.765L86.8881 148.254L92.68 155.244Z" fill="#FF5B7E"/>
<path d="M89.3455 171.647L87.3808 165.863C87.3808 165.863 80.9136 163.332 80.5025 163.301C80.0914 163.271 74.6174 165.863 74.6174 165.863C74.6174 165.863 72.9438 169.503 72.6169 170.156C72.4357 170.518 72.8531 172.746 73.2616 174.661L70.942 174.777L69.4012 211.349C69.4012 211.349 72.7408 213.282 76.337 211.625L79.291 179.681L81.8595 179.267L85.7123 210.934C85.7123 210.934 88.7953 213.418 93.1626 211.348L90.2685 176.105C90.1434 174.581 89.8332 173.082 89.3443 171.646L89.3455 171.647Z" fill="#07085B"/>
<path d="M76.7685 143.952C76.7685 143.952 79.637 143.306 84.9758 143.712C90.3132 144.12 82.5068 147.351 82.5068 147.351C82.5068 147.351 79.7672 147.255 79.6498 147.232C79.5323 147.209 76.7697 143.952 76.7697 143.952H76.7685Z" fill="#FFC0BB"/>
<path d="M83.5562 140.713H78.8174V149.649H83.5562V140.713Z" fill="#FFC0BB"/>
<path d="M83.5485 142.241V139.193H78.8174V141.785C79.8362 142.374 81.3438 142.711 83.5485 142.241Z" fill="#F99893"/>
<path d="M90.1868 130.764C89.7336 130.524 89.2077 130.567 88.7315 130.826C88.8949 126.221 85.4009 122.349 80.9991 122.512C76.5974 122.349 73.1033 126.221 73.2667 130.826C72.7906 130.567 72.2646 130.524 71.8114 130.764C70.9421 131.225 70.6714 132.544 71.2076 133.713C71.7438 134.88 72.8825 135.454 73.7519 134.993C73.8731 134.928 73.9804 134.847 74.0774 134.753C74.5753 138.559 77.5306 141.412 80.9979 141.36C84.4651 141.413 87.4204 138.559 87.9183 134.753C88.0153 134.847 88.1226 134.93 88.2438 134.993C89.1132 135.454 90.2519 134.88 90.7881 133.713C91.3243 132.546 91.0537 131.225 90.1843 130.764H90.1868Z" fill="#FFC0BB"/>
<path d="M79.0447 132.462C79.0638 132.848 78.7893 133.178 78.4306 133.199C78.0719 133.219 77.7642 132.924 77.7451 132.539C77.7259 132.154 78.0004 131.823 78.3591 131.802C78.7178 131.782 79.0255 132.077 79.0447 132.462Z" fill="#333333"/>
<path d="M84.6476 132.527C84.6668 132.912 84.3923 133.243 84.0336 133.263C83.6749 133.284 83.3672 132.989 83.348 132.603C83.3289 132.218 83.6034 131.887 83.9621 131.867C84.3208 131.846 84.6285 132.141 84.6476 132.527Z" fill="#333333"/>
<path d="M79.7595 131.031C79.434 130.909 79.1238 130.815 78.8148 130.756C78.5072 130.697 78.2021 130.682 77.9046 130.716C77.6084 130.754 77.311 130.819 77.0263 130.957L76.9152 131.001C76.8782 131.016 76.845 131.04 76.8093 131.058L76.591 131.171C76.4455 131.25 76.3089 131.35 76.1467 131.428C76.2335 131.27 76.3331 131.115 76.448 130.974C76.5757 130.849 76.6931 130.7 76.8476 130.605C77.1361 130.379 77.4961 130.252 77.8561 130.21C78.2187 130.169 78.5889 130.229 78.9182 130.374C79.245 130.523 79.5451 130.737 79.7582 131.033L79.7595 131.031Z" fill="#FF5500"/>
<path d="M82.383 131.021C82.5936 130.723 82.8924 130.506 83.2179 130.355C83.546 130.209 83.9149 130.144 84.2788 130.182C84.64 130.222 85 130.346 85.2898 130.569C85.4456 130.663 85.5643 130.811 85.692 130.935C85.8081 131.075 85.9077 131.23 85.9958 131.387C85.8337 131.31 85.6971 131.211 85.5503 131.134L85.332 131.023C85.2949 131.007 85.2617 130.983 85.2247 130.968L85.1136 130.925C84.8277 130.789 84.5302 130.726 84.2341 130.69C83.9366 130.658 83.6328 130.676 83.3239 130.738C83.0149 130.8 82.706 130.897 82.3817 131.021H82.383Z" fill="#FF5500"/>
<path d="M81.3208 131.506C81.2889 131.874 81.3131 132.241 81.377 132.605C81.4089 132.787 81.4548 132.968 81.5212 133.148C81.5902 133.326 81.6731 133.506 81.8251 133.661C81.9987 133.805 82.074 133.847 82.1225 133.978C82.1736 134.092 82.1506 134.237 82.0957 134.376C81.9744 134.658 81.6948 134.869 81.3897 135.026C81.7255 135.009 82.097 134.864 82.3165 134.511C82.4238 134.34 82.4825 134.098 82.4136 133.869C82.3421 133.633 82.2157 133.55 82.0791 133.433C81.9578 133.329 81.88 133.182 81.8021 133.016C81.7293 132.867 81.6795 132.699 81.6208 132.536C81.5148 132.203 81.4229 131.857 81.3208 131.507V131.506Z" fill="#F99893"/>
<path d="M79.1876 135.89C79.3676 136.023 79.5527 136.144 79.7467 136.246C79.9382 136.353 80.1361 136.447 80.3391 136.522C80.745 136.673 81.1676 136.766 81.594 136.768C82.0204 136.77 82.4429 136.676 82.8399 136.504C83.2357 136.327 83.6021 136.074 83.9417 135.78C83.791 135.95 83.6289 136.109 83.4527 136.252C83.2778 136.395 83.0851 136.513 82.8872 136.62C82.6868 136.721 82.4748 136.801 82.2578 136.853C82.0395 136.903 81.8174 136.928 81.594 136.93C81.1472 136.925 80.7055 136.821 80.2982 136.637C79.891 136.454 79.5093 136.208 79.1876 135.888V135.89Z" fill="#F99893"/>
<path d="M90.4013 145.738C87.834 143.061 84.2838 143.629 84.2838 143.629C83.8867 144.055 83.4897 144.378 83.0965 144.618C82.5335 144.925 81.8276 145.191 81.0412 145.213C81.0272 145.213 81.0131 145.213 80.9991 145.213C80.985 145.213 80.971 145.213 80.9569 145.213C80.1706 145.191 79.4633 144.925 78.9016 144.618C78.5084 144.376 78.1114 144.055 77.7144 143.629C77.7144 143.629 74.1641 143.061 71.5969 145.738C69.0297 148.416 66.4611 154.323 66.4611 154.323C66.4611 154.323 69.7088 157.504 72.8046 157.91C72.8046 157.91 74.3148 165.376 74.6173 165.863C74.6173 165.863 76.1761 166.649 78.442 167.06C79.2667 167.229 80.0774 167.299 80.8548 167.303C80.9033 167.303 80.9506 167.303 80.9991 167.303C81.0476 167.303 81.0961 167.303 81.1433 167.303C81.9208 167.299 82.7314 167.229 83.5561 167.06C85.8221 166.649 87.3808 165.863 87.3808 165.863C87.6834 165.376 89.1936 157.91 89.1936 157.91C92.2893 157.504 95.537 154.323 95.537 154.323C95.537 154.323 92.9698 148.417 90.4013 145.738Z" fill="#02CCC0"/>
<path d="M81.2761 163.849C81.2761 163.849 82.2297 163.679 82.7557 164.432L82.7187 166.37L81.5531 166.953C81.5531 166.953 80.1093 165.632 80.2178 165.6C80.3263 165.565 81.2761 163.849 81.2761 163.849Z" fill="#E03268"/>
<path d="M84.2442 176.511L68.8866 181.284L67.3994 169.206L82.7557 164.431L84.2442 176.511Z" fill="#E03268"/>
<path d="M67.619 179.341L68.9671 180.564L83.6659 176.038L82.3446 164.655L81.308 164.187L67.619 179.341Z" fill="#DAEEF7"/>
<g style="mix-blend-mode:multiply">
<path d="M83.6659 176.038L82.6178 175.058L80.7003 172.795L80.8165 166.567L81.308 164.187L82.3497 164.635L83.6659 176.038Z" fill="#DAEEF7"/>
</g>
<path d="M82.6178 175.058L67.2603 179.832L65.9186 168.623L81.2761 163.849L82.6178 175.058Z" fill="#FF5B7E"/>
<path d="M75.0821 151.432C74.7259 151.898 74.4004 152.382 74.1029 152.883C73.8067 153.385 73.5399 153.905 73.3229 154.448C73.1046 154.99 72.9387 155.554 72.8455 156.134C72.751 156.715 72.7408 157.311 72.8059 157.91C72.6335 157.335 72.5825 156.713 72.6425 156.104C72.6974 155.493 72.8608 154.898 73.0816 154.336C73.3101 153.776 73.5961 153.245 73.9344 152.758C74.2714 152.271 74.648 151.815 75.0834 151.431L75.0821 151.432Z" fill="#DAEEF7"/>
<path d="M71.8957 171.805C69.1918 166.886 70.4429 160.902 71.5127 157.593C69.3897 156.858 67.4237 155.198 66.728 154.57C62.4118 165.04 69.7216 174 69.7216 174L69.7357 173.984C69.8748 174.322 69.9769 174.624 69.9769 174.624C71.7004 177.97 71.7757 177.917 71.8995 177.87C72.0233 177.822 71.6825 176.231 71.8344 176.235C71.9863 176.239 73.074 178.157 73.1544 177.977C73.2336 177.798 72.4306 175.895 72.548 175.864C72.6655 175.831 73.6893 177.699 73.9153 177.537C74.1412 177.377 72.954 175.371 73.1812 175.322C73.4084 175.272 74.5753 177.36 74.7591 177.178C74.9136 177.024 73.6612 174.655 73.2591 173.905C73.2067 173.809 73.277 173.688 73.3804 173.695C74.9799 173.795 75.1089 173.702 75.0782 173.511C75.0565 173.375 73.1365 172.414 71.8957 171.805Z" fill="#FFC0BB"/>
<path d="M89.9851 144.154C86.671 156.971 90.6719 160.752 90.6885 160.851L90.0898 163.833C90.0898 163.833 81.9272 158.131 87.1013 142.937C87.2468 142.511 87.6796 142.287 88.0638 142.478L89.6123 143.249C89.9302 143.408 90.0796 143.79 89.9851 144.154Z" fill="#E03268"/>
<path d="M97.2209 175.452C97.2209 175.452 97.1163 175.168 97.0167 174.832C97.0167 174.832 97.0167 174.829 97.0167 174.828H97.0154L96.8597 173.585C96.7626 170.768 96.3273 160.777 94.895 154.898C93.8048 155.828 91.4903 157.585 89.2435 157.901C90.6515 161.065 93.6005 168.358 94.1124 174.988C93.5928 176.253 92.8933 178.002 92.9533 178.106C93.0439 178.261 93.1894 178.241 94.2643 177.09C94.3345 177.016 94.4533 177.053 94.4737 177.157C94.6269 177.961 95.1248 180.486 95.3239 180.49C95.5601 180.496 95.1669 178.227 95.3584 178.109C95.5486 177.991 95.8805 180.213 96.1346 180.175C96.3886 180.136 96.0235 178.121 96.1243 178.065C96.2265 178.009 96.769 179.9 96.9299 179.974C97.092 180.048 96.7409 177.954 96.8469 177.848C96.9529 177.743 97.6422 179.101 97.7571 179.051C97.872 179.002 97.9575 178.988 97.2222 175.452H97.2209Z" fill="#FFC0BB"/>
<path d="M71.9033 130.716C71.9033 130.716 71.4233 121.187 81.3068 120.558C81.3068 120.558 80.9991 129.919 73.2668 130.827L72.6706 129.583L71.9033 130.716Z" fill="#FF5500"/>
<path d="M81.3068 120.556C81.3068 120.556 89.3239 120.073 89.749 130.62C89.749 130.62 89.1669 130.575 88.7328 130.826C88.7328 130.826 82.383 129.119 80.8077 122.508L81.3081 120.556H81.3068Z" fill="#FF5500"/>
<path d="M70.0854 218.847C68.4743 219.021 67.7135 218.644 67.3854 218.122L66.2939 218.888C65.8611 219.184 66.0564 219.904 66.5696 219.904H73.6612C73.9114 219.904 74.1144 219.686 74.1144 219.417V217.358C73.6586 217.862 72.5837 218.576 70.0854 218.845V218.847Z" fill="#07085B"/>
<path d="M91.7392 218.847C93.3503 219.021 94.1111 218.644 94.4392 218.122L95.5307 218.888C95.9635 219.184 95.7682 219.904 95.255 219.904H88.1634C87.9132 219.904 87.7102 219.686 87.7102 219.417V217.358C88.166 217.862 89.2409 218.576 91.7392 218.845V218.847Z" fill="#07085B"/>
<g style="mix-blend-mode:multiply">
<path d="M240.101 150.632L248.295 151.339L245.65 158.462L241.514 158.105L239.792 164.041C239.372 163.836 239.063 163.679 239.001 163.635C238.875 163.546 238.418 160.6 238.016 157.817L240.101 150.632Z" fill="#DAEEF7"/>
</g>
<path d="M244.777 216.129V219.233C244.777 219.49 244.97 219.697 245.207 219.697H251.952C252.439 219.697 252.626 219.01 252.215 218.727L248.431 216.128C248.431 216.128 246.946 217.297 244.777 216.128V216.129Z" fill="#E03268"/>
<path d="M231.539 84.5699C231.44 84.611 231.337 84.5191 231.359 84.408C231.527 83.5466 232.043 80.8308 231.849 80.7348C231.618 80.6209 231.102 83.035 230.867 83.0638C230.632 83.0926 231.191 80.7512 230.926 80.6717C230.66 80.5921 230.219 82.7456 230.095 82.7538C229.972 82.7621 230.191 80.6511 230.06 80.503C229.93 80.3562 229.441 82.5796 229.296 82.6359C229.15 82.6921 229.012 81.0365 228.878 81.0324C228.744 81.0283 228.656 81.0022 227.973 84.8236C227.973 84.8236 227.932 86.2241 227.703 86.5533L228.216 87.6794L229.806 87.7356C229.806 87.7356 233.263 84.3751 233.234 84.1707C233.207 83.976 233.054 83.9293 231.537 84.5685L231.539 84.5699Z" fill="#FFC0BB"/>
<path d="M247.915 85.4162C247.985 85.5012 248.115 85.4697 248.144 85.3599C248.359 84.5095 249.052 81.8403 249.266 81.8499C249.52 81.8609 248.954 84.2626 249.151 84.4039C249.347 84.5452 249.844 82.1873 250.113 82.2463C250.383 82.3053 249.863 84.4396 249.969 84.5068C250.075 84.574 250.776 82.5879 250.955 82.5206C251.133 82.4534 250.624 84.6714 250.731 84.7935C250.837 84.9142 251.662 83.5082 251.783 83.5713C251.903 83.6331 251.994 83.6536 250.98 87.39C250.98 87.39 250.422 88.656 250.487 89.062L249.553 89.8123L248.113 89.0839C248.113 89.0839 246.462 84.3998 246.573 84.2325C246.681 84.072 246.835 84.1063 247.915 85.4176V85.4162Z" fill="#FFC0BB"/>
<path d="M235.27 116.019L235.296 122.553L229.388 121.575L230.373 114.227L235.27 116.019Z" fill="#FFC0BB"/>
<path opacity="0.6" d="M229.92 117.61L230.373 114.227L235.275 116.639L235.278 117.928C234.097 118.238 231.886 118.517 229.919 117.61H229.92Z" fill="#FC8D84"/>
<path d="M224.597 215.784V219.188C224.597 219.469 224.385 219.697 224.123 219.697H216.705C216.167 219.697 215.963 218.944 216.416 218.634L220.578 215.784C220.578 215.784 222.211 217.066 224.597 215.784Z" fill="#E03268"/>
<path d="M217.822 157.949C217.837 157.22 216.073 159.367 216.106 158.785C216.798 146.697 238.78 156.832 238.78 156.832L244.145 161.062L250.203 217.085C250.203 217.085 246.914 218.109 244.75 217.272L231.336 169.265L229.686 168.583C229.686 168.583 222.35 163.083 217.82 157.947L217.822 157.949Z" fill="#07085B"/>
<path d="M216.062 159.721C216.057 159.872 216.052 160.028 216.047 160.187C216.052 160.028 216.056 159.872 216.062 159.721Z" fill="#06BFAD"/>
<path d="M216.046 160.247C216.041 160.412 216.037 160.581 216.033 160.752C216.037 160.579 216.041 160.412 216.046 160.247Z" fill="#06BFAD"/>
<path d="M216.108 156.039C220.638 161.175 229.688 168.584 229.688 168.584L224.588 217.088C224.588 217.088 220.953 217.832 218.876 216.623C218.876 216.623 215.813 170.454 216.11 156.041L216.108 156.039Z" fill="#07085B"/>
<path d="M250.203 217.087C250.203 217.087 248.787 217.527 247.201 217.594C248.787 217.528 250.203 217.087 250.203 217.087Z" fill="#06BFAD"/>
<path d="M245.385 217.461C245.53 217.493 245.68 217.519 245.83 217.539C245.68 217.519 245.532 217.493 245.385 217.461Z" fill="#06BFAD"/>
<path d="M247.201 217.593C246.823 217.61 246.437 217.605 246.057 217.566C246.437 217.603 246.825 217.609 247.201 217.593Z" fill="#06BFAD"/>
<path d="M244.145 161.064L245.009 169.059C242.722 170.011 237.146 171.027 232.944 161.153C231.619 158.038 231.278 155.796 231.523 154.187C235.547 155.344 238.781 156.833 238.781 156.833L244.146 161.064H244.145Z" fill="#050645"/>
<path d="M223.976 128.427C224.23 128.427 228.037 119.154 228.037 119.154C231.294 121.608 235.715 119.905 235.715 119.905C235.715 119.905 253.503 154.879 241.573 160.332C229.644 165.786 218.392 159.151 218.392 159.151C218.392 159.151 215.854 152.061 215.854 151.789C215.854 151.516 223.722 128.427 223.976 128.427Z" fill="#DAEEF7"/>
<path d="M247.157 89.158C247.157 89.158 247.928 105.751 246.48 108.793C241.679 118.883 235.715 119.906 235.715 119.906C235.715 119.906 233.663 155.198 235.355 163.652C235.355 163.652 240.981 165.516 249.272 161.334C249.272 161.334 242.927 133.972 243.266 130.518C243.266 130.518 253.418 120.792 253.757 109.339C254.095 97.8858 251.303 87.7041 251.303 87.7041L247.158 89.158H247.157Z" fill="#55769F"/>
<path d="M219.788 162.379C219.788 162.379 220.422 149.244 223.214 136.79C226.006 124.336 228.036 119.154 228.036 119.154C224.291 114.723 224.914 110.717 225.244 105.519C225.624 99.5194 231.082 87.5203 231.082 87.5203L227.401 84.9292C209.761 107.7 219.534 125.834 219.534 125.834C219.534 125.834 212.935 150.923 212.046 158.559C212.046 158.559 215.557 160.74 219.788 162.376V162.379Z" fill="#55769F"/>
<path d="M243.095 130.48C242.883 130.318 242.631 130.071 242.386 129.756C241.638 128.786 241.25 127.694 240.982 126.473C241.144 126.995 241.578 128.509 242.492 129.66C242.902 130.162 243.118 130.332 243.317 130.469C243.285 130.501 243.267 130.518 243.267 130.518C243.264 130.542 243.263 130.565 243.262 130.59C243.027 130.642 242.615 130.657 241.921 130.251C241.49 130.008 241.149 129.706 240.793 129.381C241.026 129.56 241.508 129.934 241.962 130.163C242.279 130.331 242.743 130.506 243.096 130.479L243.095 130.48Z" fill="white"/>
<path d="M219.669 125.752C219.971 125.546 220.233 125.251 220.474 124.955C221.223 124.011 221.634 122.895 221.985 121.769C221.718 122.983 221.332 124.077 220.58 125.051C220.335 125.365 220.088 125.611 219.872 125.775C220.037 125.788 220.236 125.753 220.369 125.714C220.587 125.655 220.801 125.568 221.006 125.46C221.429 125.246 221.848 124.928 222.175 124.678C221.86 124.966 221.497 125.294 221.046 125.548C220.842 125.667 220.625 125.767 220.398 125.84C220.168 125.902 219.934 125.955 219.674 125.88L219.539 125.84L219.666 125.752H219.669Z" fill="white"/>
<path d="M226.796 102.687L226.439 107.17L227.099 107.616L228.318 102.156L226.796 102.687Z" fill="#07085B"/>
<path d="M227.683 106.708C227.865 107.723 227.399 108.674 226.643 108.83C225.887 108.986 225.126 108.288 224.945 107.273C224.764 106.258 225.23 105.308 225.985 105.153C226.741 104.996 227.502 105.695 227.683 106.71V106.708Z" fill="#F99893"/>
<path d="M226.601 110.853C226.407 109.556 226.435 108.227 226.542 107.087C226.565 106.843 226.575 106.597 226.58 106.35C226.602 105.357 226.795 104.341 227.2 103.341C228.5 100.12 231.677 98.1669 234.919 98.599C239.288 99.182 242.165 103.597 241.325 108.111C241.833 107.937 242.358 107.984 242.769 108.298C243.558 108.9 243.629 110.247 242.929 111.307C242.228 112.368 241.02 112.738 240.231 112.136C240.121 112.052 240.027 111.953 239.945 111.844C238.865 115.606 235.384 117.941 231.883 117.123C229.226 116.502 227.031 114.133 226.6 110.855L226.601 110.853Z" fill="#FFC0BB"/>
<path d="M234.677 107.266C234.506 107.73 234.817 108.231 235.289 108.229C235.547 108.229 235.785 108.052 235.88 107.794C236.053 107.329 235.741 106.827 235.266 106.83C235.009 106.832 234.771 107.009 234.675 107.266H234.677Z" fill="#333333"/>
<path d="M229.145 106.376C228.973 106.84 229.286 107.342 229.759 107.339C230.017 107.338 230.254 107.161 230.35 106.903C230.521 106.439 230.21 105.939 229.736 105.941C229.478 105.941 229.241 106.12 229.145 106.378V106.376Z" fill="#333333"/>
<path d="M233.815 112.151C233.471 112.335 233.086 112.47 232.771 112.536C232.411 112.612 232.043 112.635 231.683 112.582C231.323 112.529 230.977 112.395 230.66 112.199C230.346 111.999 230.066 111.737 229.811 111.444C230.071 111.835 230.304 112.063 230.608 112.291C230.922 112.512 231.257 112.654 231.666 112.721C232.044 112.775 232.43 112.745 232.794 112.643C233.157 112.54 233.509 112.383 233.816 112.154L233.815 112.151Z" fill="#F99893"/>
<path d="M234.151 105.849C234.489 105.785 234.808 105.744 235.122 105.738C235.435 105.733 235.737 105.769 236.026 105.854C236.312 105.941 236.595 106.057 236.856 106.24C237.211 106.457 237.466 106.723 237.651 106.855C237.532 106.533 237.342 106.15 237.08 105.925C236.829 105.653 236.493 105.467 236.145 105.364C235.794 105.261 235.42 105.258 235.075 105.345C234.732 105.435 234.405 105.594 234.151 105.849Z" fill="#07085B"/>
<path d="M231.567 105.393C231.402 105.064 231.14 104.799 230.842 104.596C230.54 104.396 230.185 104.269 229.822 104.246C229.46 104.224 229.088 104.284 228.768 104.456C228.454 104.579 228.158 104.878 227.951 105.14C228.184 105.075 228.475 104.918 228.888 104.833C229.19 104.748 229.494 104.737 229.791 104.752C230.09 104.771 230.387 104.841 230.681 104.954C230.976 105.066 231.265 105.216 231.568 105.394L231.567 105.393Z" fill="#07085B"/>
<path d="M232.694 106.273C232.389 106.581 232.111 106.914 231.846 107.26C231.582 107.607 231.336 107.97 231.117 108.358C230.992 108.591 230.835 108.901 230.798 109.166C230.777 109.313 230.788 109.456 231.015 109.696C231.165 109.866 231.333 110.004 231.505 110.132C231.68 110.257 231.86 110.373 232.049 110.468C231.734 110.177 231.415 109.888 231.165 109.554C231.125 109.504 231.048 109.383 231.022 109.316C231.008 109.266 231.032 109.158 231.065 109.066C231.133 108.874 231.23 108.682 231.334 108.495C231.54 108.118 231.774 107.753 232.002 107.384C232.233 107.017 232.467 106.649 232.69 106.271L232.694 106.273Z" fill="#F99893"/>
<path d="M227.574 97.8995C227.574 97.8995 225.382 97.4455 228.082 96.0231C230.782 94.6007 237.402 93.7722 240.863 96.9585C240.863 96.9585 242.027 95.3537 243.073 96.0587C244.118 96.7638 241.984 97.5428 241.984 97.5428C241.984 97.5428 243.446 97.846 243.726 98.717C243.934 99.3616 243.041 99.171 242.561 99.027C243.355 99.3781 245.691 101.748 242.658 108.222C242.12 107.952 238.649 102.632 238.649 102.632C238.649 102.632 231.671 105.095 232.943 103.051C232.943 103.051 224.811 105.249 226.782 101.289C226.782 101.289 223.785 100.805 227.574 97.8981V97.8995Z" fill="#07085B"/>
<path d="M242.657 108.222C242.657 108.222 242.131 107.789 241.326 108.11C240.522 108.431 240.01 110.369 240.01 110.369C240.01 110.369 237.377 112.686 238.661 102.588C239.922 92.6666 241.67 104.239 241.67 104.239L242.657 108.221V108.222Z" fill="#07085B"/>
<path d="M224.621 76.8667L223.482 76.746C223.681 76.6294 223.921 76.5718 224.175 76.5979L252.709 79.6127C254.201 79.7705 255.306 81.0516 255.176 82.4726L255.027 84.1076C254.897 85.53 253.581 86.5546 252.088 86.3969L223.875 83.4067L224.622 76.8667H224.621Z" fill="#E03268"/>
<path d="M252.632 83.8552L252.781 82.2202C252.912 80.7978 251.807 79.5181 250.314 79.3603L250.926 79.4248C252.419 79.5825 253.524 80.8636 253.394 82.2847L253.245 83.9197C253.114 85.342 251.798 86.3667 250.306 86.2089L249.701 86.1445C251.191 86.2981 252.502 85.2748 252.632 83.8552Z" fill="#FEB546"/>
<path d="M245.949 83.1488L246.098 81.5138C246.229 80.0914 245.124 78.8117 243.631 78.6539L244.243 78.7184C245.736 78.8761 246.841 80.1559 246.711 81.5783L246.562 83.2133C246.431 84.6357 245.115 85.6603 243.623 85.5025L243.018 85.4381C244.508 85.5917 245.819 84.5671 245.949 83.1488Z" fill="#FEB546"/>
<path d="M240.839 78.3645C242.266 78.5154 243.323 79.7403 243.198 81.0996L243.028 82.9472C242.904 84.3065 241.646 85.2872 240.218 85.1363L222.456 83.2599L222.494 82.8471L222.568 82.8553L227.12 82.9253L228.345 79.6114C228.345 79.6114 226.755 77.5402 226.645 77.4798C226.536 77.4195 223.112 76.9079 223.112 76.9079L223.039 76.8996L223.077 76.4881L240.84 78.3645H240.839Z" fill="#FF5B7E"/>
<path d="M223.92 79.9831C224.102 77.9887 223.109 76.9079 223.109 76.9079L240.438 78.739C241.749 78.8775 242.719 80.0023 242.605 81.2519L242.475 82.6742C242.36 83.9224 241.205 84.8236 239.894 84.6851L222.565 82.8539C222.565 82.8539 223.69 82.4946 223.92 79.9831Z" fill="#DAEEF7"/>
<g style="mix-blend-mode:multiply">
<path d="M242.604 81.2518L242.474 82.6742C242.457 82.8608 242.415 83.0404 242.355 83.2092C241.896 81.7854 240.895 80.3548 238.801 79.7087C233.913 78.1986 223.108 76.9092 223.108 76.9092L240.437 78.7403C241.748 78.8789 242.718 80.0036 242.604 81.2532V81.2518Z" fill="#DAEEF7"/>
</g>
<path d="M190.017 123.941L188.84 126.762C188.743 126.995 188.84 127.268 189.057 127.372L195.203 130.332C195.647 130.546 196.077 130.004 195.809 129.567L193.431 125.585C193.431 125.585 191.55 125.955 190.017 123.94V123.941Z" fill="#55769F"/>
<path d="M182.208 123.941L181.031 126.762C180.934 126.995 181.031 127.268 181.248 127.372L187.394 130.332C187.838 130.546 188.268 130.004 188 129.567L185.622 125.585C185.622 125.585 183.741 125.955 182.208 123.94V123.941Z" fill="#55769F"/>
<path d="M168.933 46.19L168.279 50.5943L166.898 44.7223C166.898 44.7223 168.833 43.7128 168.919 44.0804C169.004 44.448 168.933 46.19 168.933 46.19Z" fill="#07085B"/>
<path d="M157.949 55.6694L157.351 63.282L163.604 62.961L162.883 56.2194L157.949 55.6694Z" fill="#FFC0BB"/>
<path d="M163.226 59.4263L162.883 56.2194L157.949 55.6694L157.742 58.3057C158.723 59.3564 160.487 60.4441 163.226 59.4263Z" fill="#F99893"/>
<path d="M167.06 50.5395C166.683 51.3748 166.884 52.3144 167.506 52.6367C168.127 52.9604 168.937 52.5448 169.313 51.7095C169.69 50.8742 169.489 49.9346 168.868 49.6123C168.246 49.2899 167.437 49.7041 167.06 50.5395Z" fill="#F99893"/>
<path d="M167.968 51.1512C168.001 50.9331 168.044 50.7178 168.093 50.5038C168.287 49.6369 168.339 48.7083 168.204 47.74C167.77 44.625 165.436 42.1409 162.532 41.7102C158.619 41.1286 155.174 44.2423 154.93 48.3641C154.528 48.087 154.063 47.9965 153.638 48.1665C152.825 48.4916 152.472 49.6424 152.851 50.7356C153.231 51.8288 154.197 52.4502 155.011 52.1251C155.124 52.0798 155.227 52.0167 155.322 51.9427C155.447 55.4733 157.963 58.3633 161.174 58.5238C162.744 58.6034 164.206 58.0149 165.339 56.9848C166.881 55.7668 167.661 53.1826 167.966 51.1526L167.968 51.1512Z" fill="#FFC0BB"/>
<path d="M163.097 48.8496C163.11 49.2611 163.113 49.6616 163.133 50.0553C163.157 50.4393 163.196 50.8508 163.34 51.1224C163.486 51.3419 163.602 51.4818 163.606 51.7506C163.614 52.0222 163.48 52.2663 163.314 52.4145C162.974 52.7231 162.531 52.7519 162.164 52.6559C162.538 52.5846 162.896 52.4474 163.104 52.1854C163.201 52.0551 163.265 51.9097 163.242 51.7726C163.226 51.6217 163.183 51.5915 163.013 51.3391C162.893 51.1197 162.855 50.8974 162.832 50.6821C162.813 50.4668 162.817 50.2569 162.834 50.0484C162.871 49.6355 162.953 49.2309 163.097 48.8482V48.8496Z" fill="#F99893"/>
<path d="M160.877 49.2927C160.919 49.7192 160.57 50.0635 160.178 49.9771C159.934 49.9236 159.744 49.6987 159.718 49.4326C159.677 49.0074 160.026 48.6658 160.417 48.7495C160.66 48.8016 160.852 49.0266 160.877 49.2927Z" fill="#333333"/>
<path d="M165.865 49.8989C165.906 50.3241 165.557 50.6656 165.167 50.582C164.923 50.5298 164.733 50.3049 164.706 50.0388C164.664 49.6122 165.014 49.2693 165.405 49.3544C165.649 49.4078 165.84 49.6328 165.866 49.8989H165.865Z" fill="#333333"/>
<path d="M159.902 53.6353C160.055 53.7779 160.215 53.911 160.383 54.029C160.549 54.1497 160.723 54.2594 160.903 54.3527C161.262 54.5392 161.642 54.675 162.035 54.7258C162.427 54.7792 162.827 54.7422 163.21 54.6325C163.593 54.5173 163.958 54.328 164.303 54.0989C163.927 54.4377 163.618 54.6064 163.244 54.7532C162.851 54.8945 162.458 54.9411 162.016 54.889C161.604 54.8314 161.205 54.6832 160.848 54.4638C160.492 54.2443 160.164 53.9713 159.901 53.6353H159.902Z" fill="#F99893"/>
<path d="M161.613 47.9786C161.315 47.8799 161.037 47.8044 160.76 47.7591C160.484 47.7139 160.214 47.7057 159.951 47.7399C159.689 47.777 159.425 47.8387 159.172 47.9622C158.978 48.0266 158.507 48.3243 158.384 48.3832C158.528 48.0979 158.738 47.7934 158.996 47.6247C159.252 47.4149 159.574 47.2955 159.9 47.2516C160.226 47.2091 160.561 47.2612 160.858 47.3888C161.153 47.5191 161.424 47.7125 161.614 47.9814L161.613 47.9786Z" fill="#07085B"/>
<path d="M164.183 48.2886C164.417 48.065 164.719 47.932 165.031 47.8648C165.346 47.8017 165.683 47.8209 165.997 47.9306C166.308 48.0417 166.602 48.2269 166.816 48.4861C167.04 48.7056 167.189 49.0499 167.278 49.3585C167.167 49.2748 166.76 48.8853 166.581 48.781C166.355 48.6068 166.108 48.4916 165.857 48.4011C165.605 48.3119 165.338 48.2639 165.06 48.2516C164.78 48.2392 164.493 48.2543 164.184 48.29L164.183 48.2886Z" fill="#07085B"/>
<path d="M161.392 91.3828C161.392 91.3828 160.088 100.887 168.634 102.542C177.181 104.198 187.815 103.704 187.815 103.704L189.295 125.535L193.756 125.779C193.756 125.779 205.246 95.4456 189.343 90.7039L175.053 90.7793L169.169 90.328C169.169 90.328 163.215 88.7479 163.145 89.0483C163.074 89.3501 161.534 91.5323 161.393 91.3814L161.392 91.3828Z" fill="#070852"/>
<path d="M153.538 91.4322C153.538 91.4322 152.235 100.936 160.78 102.592C169.327 104.247 179.961 103.754 179.961 103.754L181.441 125.585L185.903 125.829C185.903 125.829 197.391 95.495 181.489 90.7532L167.199 90.8286L161.315 90.3774C161.315 90.3774 155.361 88.7972 155.291 89.0976C155.221 89.3994 153.68 91.5817 153.54 91.4308L153.538 91.4322Z" fill="#10116B"/>
<path d="M164.303 60.2466C164.303 60.2466 170.186 61.049 171.681 62.3534C173.176 63.6578 180.367 82.8265 180.367 82.8265L174.389 90.3541L161.685 90.4542C161.685 90.4542 152.158 95.9737 146.18 90.7546C140.202 85.5355 143.285 67.3709 146.74 63.4576C150.196 59.5443 156.361 59.6444 156.361 59.6444C156.361 59.6444 161.965 63.8595 164.3 60.2466H164.303Z" fill="#FF5B7E"/>
<path d="M152.908 69.7809C153.118 70.8261 153.247 71.8863 153.339 72.9494C153.39 73.4816 153.412 74.0151 153.44 74.5487C153.455 75.0836 153.467 75.6186 153.459 76.1535C153.44 77.2234 153.385 78.2974 153.214 79.3563C153.047 80.4111 152.804 81.47 152.347 82.4246C152.655 81.4069 152.807 80.3617 152.916 79.3124C153.025 78.2631 153.062 77.2042 153.075 76.1467C153.095 75.0891 153.071 74.0288 153.04 72.9672C153.006 71.9055 152.96 70.8439 152.908 69.7781V69.7809Z" fill="white"/>
<path d="M170.514 69.0786C170.784 70.6326 171.069 72.1826 171.357 73.7284C171.652 75.2729 171.958 76.8146 172.307 78.3454C172.651 79.8761 173.033 81.3959 173.495 82.8869C173.728 83.6317 173.986 84.3669 174.289 85.0801C174.588 85.7948 174.943 86.4874 175.418 87.0923C174.877 86.5492 174.48 85.862 174.121 85.1693C173.772 84.467 173.472 83.7373 173.213 82.9939C172.949 82.2518 172.722 81.496 172.507 80.7375C172.3 79.9763 172.11 79.2095 171.933 78.4414C171.764 77.6705 171.602 76.8969 171.457 76.1219C171.316 75.3442 171.178 74.5679 171.062 73.786C170.822 72.2251 170.634 70.6546 170.513 69.0786H170.514Z" fill="white"/>
<path d="M183.256 72.5461C182.169 70.7286 173.264 67.6424 173.264 67.6424V70.719L182.328 74.1235L183.256 72.5461Z" fill="#EDEDED"/>
<path d="M182.615 72.4226L172.275 67.2996V69.2884L182.36 73.1976L182.615 72.4226Z" fill="white"/>
<path d="M182.041 72.4226L171.126 67.9853V71.4144L181.931 73.1976L182.041 72.4226Z" fill="#EDEDED"/>
<path d="M183.256 72.0715C183.256 72.0715 185.36 66.7838 186.222 65.6865C186.222 69.165 184.913 73.5391 184.913 73.5391L183.256 72.0715Z" fill="white"/>
<path d="M184.175 72.306L186.726 65.3792V68.6794L184.973 73.1976L184.175 72.306Z" fill="#EDEDED"/>
<path d="M184.973 72.4226L187.754 65.6879V68.0882L184.973 72.4226Z" fill="white"/>
<path d="M184.973 93.1742L188.479 86.6863V65.9348L184.973 72.4226V93.1742Z" fill="#26426E"/>
<path d="M168.822 90.0386L181.234 93.1742V72.4226L168.822 69.2871V90.0386Z" fill="#55769F"/>
<path d="M181.234 72.4226C182.328 71.8603 184.617 72.0592 184.973 72.4226C184.786 73.6091 181.512 73.8423 181.234 72.4226Z" fill="#E0E0E0"/>
<path d="M181.234 93.1742C181.234 93.6817 184.99 93.6817 184.99 93.1742V72.4226C184.61 73.0261 181.658 73.0097 181.234 72.4226V93.1742Z" fill="#3A5782"/>
<path d="M173.471 86.0156C173.434 85.6974 171.189 85.3435 170.364 85.2968C169.738 85.2625 165.594 85.113 164.185 85.0445L164.289 85.434L164.267 87.154L164.036 88.2939C165.273 88.3775 168.296 88.5051 168.925 88.6395C169.766 88.8178 171.224 89.4995 171.224 89.4995C171.224 89.4995 171.831 89.3514 171.06 88.9934C170.44 88.7067 170.006 88.2623 169.823 88.0401C169.717 87.9126 169.832 87.6862 169.908 87.7082C172.007 88.2994 172.223 88.3967 172.223 88.3967C172.223 88.3967 174.689 88.3817 172.237 87.7864C170.766 87.4297 170.239 87.2212 170.109 87.0443C170.052 86.9689 170.152 86.7124 170.241 86.7055C171.515 86.6205 173.802 87.106 173.175 86.7878C172.664 86.5286 171.056 86.2446 170.43 86.1363C170.392 86.1294 170.329 85.8798 170.5 85.8633C171.713 85.755 173.504 86.3077 173.47 86.0128L173.471 86.0156Z" fill="#FFC0BB"/>
<path d="M151.471 82.1627C151.988 82.2971 152.498 82.4534 153.016 82.5687C153.531 82.7003 154.054 82.7963 154.571 82.9143C155.613 83.1187 156.657 83.2956 157.705 83.4534C158.754 83.6015 159.804 83.7373 160.857 83.847C161.906 83.9595 162.972 84.0541 164.011 84.1172L164.151 84.1255L164.181 84.2558C164.271 84.6344 164.328 85.0033 164.373 85.3819C164.416 85.7591 164.435 86.139 164.434 86.519C164.431 86.8989 164.401 87.2802 164.342 87.6574C164.278 88.0333 164.174 88.4022 164.034 88.7548L164.023 88.7849L164 88.8014L162.846 89.6326C162.462 89.9097 162.076 90.1854 161.687 90.4556C162.048 90.1442 162.413 89.8384 162.781 89.5338L163.88 88.6217L163.845 88.6683C163.962 88.3268 164.042 87.9743 164.087 87.6136C164.128 87.2528 164.147 86.888 164.137 86.5217C164.125 86.1569 164.092 85.792 164.045 85.4285C163.995 85.0678 163.928 84.7016 163.84 84.36L164.01 84.4986C163.461 84.4835 162.942 84.4451 162.408 84.4039C161.877 84.3614 161.347 84.3161 160.819 84.2572C159.76 84.1392 158.705 83.9979 157.654 83.8182C156.603 83.6358 155.559 83.4163 154.524 83.153C154.008 83.0117 153.492 82.8745 152.984 82.7031C152.472 82.5481 151.971 82.3561 151.471 82.1654V82.1627Z" fill="white"/>
<path d="M169.058 42.0243C169.058 42.0243 171.02 42.0915 168.961 40.3098C166.902 38.528 161.375 36.4376 157.833 38.4471C157.833 38.4471 157.124 36.8285 156.1 37.2154C155.077 37.6022 156.767 38.7146 156.767 38.7146C156.767 38.7146 155.459 38.6693 155.06 39.3592C154.765 39.8681 155.565 39.8914 156.003 39.8681C155.259 40.0039 152.405 41.9407 153.837 48.124C154.346 48.0033 157.248 43.4837 157.248 43.4837C157.248 43.4837 163.883 47.445 163.226 44.2958C163.226 44.2958 170.101 48.9045 169.126 45.0982C169.126 45.0982 171.783 45.308 169.059 42.0257L169.058 42.0243Z" fill="#07085B"/>
<path d="M153.831 48.161C153.831 48.161 154.38 47.9539 154.971 48.4573C155.562 48.9607 155.497 50.7315 155.497 50.7315C155.497 50.7315 158.317 52.6861 158.019 44.4165C157.702 35.6188 155.666 45.1215 155.666 45.1215L153.831 48.1597V48.161Z" fill="#07085B"/>
<path d="M123.216 213.09L124.393 215.91C124.49 216.143 124.393 216.416 124.176 216.52L118.031 219.48C117.587 219.694 117.156 219.152 117.424 218.715L119.803 214.733C119.803 214.733 121.683 215.103 123.216 213.088V213.09Z" fill="#07085B"/>
<path d="M131.18 212.754L132.357 215.574C132.454 215.807 132.357 216.08 132.14 216.184L125.994 219.144C125.549 219.358 125.12 218.816 125.388 218.379L127.766 214.397C127.766 214.397 129.647 214.767 131.18 212.752V212.754Z" fill="#07085B"/>
<path d="M138.363 121.431C138.363 121.431 131.665 120.217 129.418 128.258L132.192 132.719C132.192 132.719 138.01 130.317 138.033 130.082C138.056 129.848 138.363 121.431 138.363 121.431Z" fill="#FF5500"/>
<path d="M149.144 125.054C149.144 125.054 151.097 128.211 152.094 129.462C154.602 132.612 154.925 131.623 156.482 134.332C158.163 137.255 156.463 139.086 155.495 139.928C154.528 140.77 156.146 143.886 154.344 145.634C151.985 147.92 149.803 145.764 148.18 147.045C146.558 148.326 146.203 150.225 142.356 149.867C138.51 149.507 138.547 135.995 138.547 135.995C138.547 135.995 141.695 128.831 141.82 128.772C141.945 128.713 149.144 125.055 149.144 125.055V125.054Z" fill="#FF5500"/>
<path d="M129.418 128.259C129.418 128.259 129.188 130.739 128.425 132.167C126.505 135.761 125.471 134.584 124.406 137.555C123.257 140.762 125.246 142.223 126.341 142.858C127.437 143.493 126.385 146.878 128.457 148.236C131.17 150.014 132.941 147.46 134.757 148.395C136.572 149.331 137.249 151.126 140.967 150.007C144.685 148.888 142.317 135.617 142.317 135.617C142.317 135.617 137.987 129.204 137.854 129.172C137.721 129.139 129.418 128.261 129.418 128.261V128.259Z" fill="#FF5500"/>
<path d="M139.137 144.261C139.137 144.261 145.557 142.992 148.508 143.099C151.46 143.206 146.72 151.454 146.72 151.454L141.898 151.569C141.898 151.569 138.943 148.022 139.137 147.609C139.331 147.196 139.128 144.49 139.128 144.49L139.137 144.261Z" fill="#FFC0BB"/>
<path d="M144.861 137.68L146.555 143.202C146.555 143.202 145.081 146.477 140.567 145.065C140.567 145.065 141.082 143.921 140.39 141.566C139.684 139.158 144.862 137.68 144.862 137.68H144.861Z" fill="#FFC0BB"/>
<path opacity="0.6" d="M144.861 137.68L145.655 140.26C145.182 142.146 143.646 143.43 140.748 143.827C140.748 143.266 140.669 142.518 140.389 141.566C139.683 139.158 144.861 137.68 144.861 137.68Z" fill="#FC8D84"/>
<path d="M134.532 133.636C134.898 134.533 134.655 135.515 133.987 135.831C133.319 136.146 132.481 135.674 132.114 134.777C131.748 133.88 131.992 132.898 132.659 132.583C133.327 132.267 134.166 132.739 134.532 133.636Z" fill="#F99893"/>
<path d="M134.344 137.709C133.912 136.554 133.677 135.322 133.553 134.244C133.526 134.013 133.488 133.784 133.444 133.555C133.271 132.634 133.249 131.651 133.427 130.636C133.997 127.369 136.547 124.847 139.626 124.513C143.773 124.064 147.296 127.489 147.404 131.846C147.838 131.571 148.332 131.495 148.774 131.693C149.62 132.07 149.951 133.297 149.512 134.434C149.073 135.572 148.03 136.187 147.184 135.809C147.067 135.757 146.961 135.687 146.864 135.603C146.605 139.322 143.847 142.264 140.454 142.301C137.907 142.328 135.4 140.669 134.348 137.707L134.344 137.709Z" fill="#FFC0BB"/>
<path d="M138.772 132.019C138.906 132.429 138.975 132.858 138.998 133.296C139.009 133.515 139.004 133.736 138.976 133.963C138.944 134.188 138.896 134.419 138.763 134.643C138.608 134.856 138.528 134.926 138.505 135.097C138.477 135.244 138.541 135.403 138.64 135.544C138.855 135.831 139.229 135.989 139.621 136.074C139.231 136.156 138.768 136.104 138.423 135.765C138.255 135.602 138.124 135.343 138.144 135.06C138.163 134.766 138.285 134.636 138.445 134.413C138.528 134.277 138.58 134.087 138.62 133.895C138.663 133.702 138.676 133.495 138.7 133.291C138.733 132.876 138.749 132.452 138.773 132.02L138.772 132.019Z" fill="#F99893"/>
<path d="M141.096 132.58C141.038 133.029 141.395 133.404 141.811 133.329C142.069 133.282 142.278 133.053 142.315 132.775C142.374 132.328 142.017 131.952 141.602 132.026C141.344 132.071 141.135 132.302 141.098 132.58H141.096Z" fill="#333333"/>
<path d="M135.815 133.011C135.756 133.458 136.112 133.832 136.527 133.761C136.786 133.716 136.996 133.487 137.033 133.208C137.093 132.76 136.735 132.384 136.319 132.458C136.061 132.503 135.852 132.734 135.815 133.012V133.011Z" fill="#333333"/>
<g style="mix-blend-mode:multiply" opacity="0.3">
<path d="M141.199 137.713C141.199 137.713 140.318 137.374 139.49 137.957C139.49 137.957 138.594 137.355 137.89 137.929C137.89 137.929 138.218 139.363 139.688 139.265C141.159 139.169 141.2 137.713 141.2 137.713H141.199Z" fill="#F99893"/>
</g>
<path d="M141.968 137.2C141.802 137.345 141.629 137.478 141.446 137.595C141.266 137.715 141.08 137.824 140.887 137.914C140.501 138.095 140.095 138.224 139.679 138.261C139.264 138.301 138.844 138.246 138.444 138.115C138.044 137.977 137.666 137.762 137.31 137.507C137.468 137.662 137.639 137.803 137.822 137.928C138.004 138.054 138.201 138.153 138.403 138.241C138.607 138.323 138.82 138.382 139.037 138.416C139.254 138.447 139.475 138.452 139.693 138.436C140.13 138.392 140.556 138.252 140.941 138.035C141.325 137.82 141.68 137.544 141.968 137.201V137.2Z" fill="#F99893"/>
<path d="M140.369 131.162C140.685 131.07 140.983 131.003 141.276 130.966C141.569 130.929 141.855 130.931 142.132 130.979C142.406 131.03 142.682 131.104 142.945 131.245C143.147 131.322 143.634 131.656 143.761 131.721C143.62 131.416 143.41 131.085 143.143 130.896C142.88 130.664 142.544 130.524 142.203 130.464C141.86 130.406 141.505 130.446 141.187 130.568C140.872 130.693 140.579 130.886 140.369 131.162Z" fill="#FF5500"/>
<path d="M137.648 131.383C137.408 131.137 137.097 130.983 136.769 130.901C136.439 130.822 136.083 130.827 135.749 130.93C135.417 131.034 135.099 131.217 134.865 131.481C134.621 131.704 134.452 132.059 134.346 132.383C134.466 132.3 134.91 131.905 135.101 131.804C135.347 131.63 135.612 131.518 135.879 131.432C136.148 131.348 136.432 131.309 136.727 131.307C137.021 131.306 137.324 131.335 137.649 131.384L137.648 131.383Z" fill="#FF5500"/>
<path d="M150.303 178.002C150.303 178.002 152.196 187.575 143.606 189.847C135.016 192.12 124.175 192.351 124.175 192.351L123.975 214.649L119.453 215.206C119.453 215.206 105.96 185.158 121.845 179.241L136.379 178.331L142.335 177.466C142.335 177.466 148.294 175.448 148.383 175.75C148.473 176.051 150.17 178.164 150.303 178.002Z" fill="#FFC0BB"/>
<path d="M158.291 177.511C158.291 177.511 160.184 187.084 151.594 189.356C143.004 191.629 132.163 191.861 132.163 191.861L131.962 214.16L127.441 214.717C127.441 214.717 113.948 184.668 129.833 178.751L144.367 177.841L150.322 176.976C150.322 176.976 156.282 174.958 156.371 175.26C156.46 175.562 158.157 177.674 158.291 177.512V177.511Z" fill="#FFC0BB"/>
<path d="M127.405 176.382C120.161 176.501 113.554 180.97 111.203 189.649C108.853 198.328 103.491 207.281 104.002 207.193C115.364 214.027 118.936 207.163 126.788 209.192C134.641 211.22 137.424 210.303 137.424 210.303C135.151 198.053 132.161 191.86 132.161 191.86C132.821 191.987 152.093 192.292 156.853 186.623C158.189 185.033 159.211 183.033 159.007 178.146C158.627 169.049 129.505 176.346 127.403 176.381L127.405 176.382Z" fill="#FEB546"/>
<path d="M129.565 192.5C129.812 192.452 130.06 192.407 130.304 192.345C130.549 192.285 130.79 192.214 131.029 192.137C131.149 192.097 131.269 192.053 131.388 192.006C131.264 191.979 131.144 191.941 131.024 191.894C130.788 191.805 130.567 191.676 130.36 191.529C130.16 191.371 129.971 191.2 129.805 191.004C129.639 190.809 129.496 190.595 129.369 190.371L129.616 190.658C129.704 190.747 129.786 190.841 129.878 190.923C130.052 191.098 130.249 191.245 130.449 191.378C130.651 191.51 130.866 191.615 131.087 191.699C131.306 191.779 131.544 191.838 131.762 191.846L132.164 191.861L131.808 192.039C131.565 192.16 131.325 192.24 131.078 192.314C130.831 192.388 130.581 192.44 130.331 192.486C130.079 192.53 129.828 192.569 129.575 192.588C129.322 192.609 129.069 192.621 128.817 192.62C129.067 192.58 129.317 192.547 129.565 192.499V192.5Z" fill="#DAEEF7"/>
<path d="M131.841 157.7C131.841 157.7 131.256 173.341 129.62 175.791L138.624 173.592V156.57L131.842 157.7H131.841Z" fill="#FFC0BB"/>
<path d="M135.478 159.836C135.478 159.836 136.93 163.773 137.157 165.864C137.722 171.057 137.108 174.72 136.107 177.675C134.704 181.822 145.563 180.245 145.825 180.25C157.299 180.544 157.193 180.04 157.193 180.04L159.025 178.46C158.77 173.395 158.117 169.014 158.219 164.497L158.324 159.836L157.798 155.124L141.556 153.75L135.479 159.836H135.478Z" fill="#FEB546"/>
<path d="M129.918 163.313C130.91 161.655 139.035 158.839 139.035 158.839V161.645L130.765 164.752L129.918 163.313Z" fill="#EDEDED"/>
<path d="M129.918 163.313C130.91 161.655 139.035 158.839 139.035 158.839V161.645L130.765 164.752L129.918 163.313Z" fill="#EDEDED"/>
<path d="M130.502 163.201L139.937 158.526V160.341L130.735 163.908L130.502 163.201Z" fill="white"/>
<path d="M131.027 163.201L140.985 159.153V162.282L131.127 163.908L131.027 163.201Z" fill="#EDEDED"/>
<path d="M129.918 162.881C129.918 162.881 127.998 158.057 127.212 157.056C127.212 160.23 128.406 164.22 128.406 164.22L129.918 162.88V162.881Z" fill="white"/>
<path d="M129.08 163.095L126.752 156.774V159.785L128.351 163.908L129.08 163.095Z" fill="#EDEDED"/>
<path d="M128.351 163.201L125.814 157.056V159.246L128.351 163.201Z" fill="white"/>
<path d="M128.351 182.133L126.023 176.378V157.444L128.351 163.201V182.133Z" fill="#F5577A"/>
<path d="M143.088 179.273L131.762 182.133V163.201L143.088 160.341V179.273Z" fill="#FF5B7E"/>
<path d="M131.762 163.201C130.764 162.688 128.675 162.869 128.351 163.201C128.522 164.283 131.508 164.495 131.762 163.201Z" fill="#E0E0E0"/>
<path d="M131.762 182.133C131.762 182.597 128.335 182.597 128.335 182.133V163.201C128.683 163.752 131.375 163.735 131.762 163.201V182.133Z" fill="#DE4B6C"/>
<path d="M161.725 155.812L154.016 159.648C154.016 159.648 153.416 170.244 153.044 170.713C152.37 171.562 145.534 173.993 141.934 174.704C141.354 174.818 140.758 174.769 140.203 174.559C138.417 173.882 135.256 172.662 134.758 172.48C133.976 172.194 131.767 171.635 131.623 171.915C131.489 172.175 133.342 172.371 134.433 172.953C134.586 173.035 134.443 173.244 134.404 173.234C133.787 173.086 132.193 172.711 131.63 172.75C130.938 172.798 133.23 173.253 134.385 173.838C134.466 173.879 134.471 174.157 134.393 174.205C134.21 174.318 133.65 174.303 132.16 174.05C129.676 173.631 131.964 174.624 131.964 174.624C131.964 174.624 132.197 174.618 134.352 174.902C134.431 174.913 134.459 175.168 134.318 175.245C134.071 175.377 133.515 175.618 132.841 175.64C132.002 175.666 132.515 176.045 132.515 176.045C132.515 176.045 134.104 175.99 134.948 176.157C135.579 176.282 138.433 177.363 139.612 177.776L139.757 177.581C141.391 177.99 156.451 179.172 158.279 174.371C161.642 165.545 161.728 155.813 161.728 155.813L161.725 155.812Z" fill="#FFC0BB"/>
<path d="M139.137 144.261C139.137 144.261 143.502 149.734 148.508 143.099C148.508 143.099 153.98 142.62 158.013 145.698C162.047 148.776 164.462 155.689 164.462 155.689C164.462 155.689 158.673 159.836 154.005 159.836L143.061 155.625L135.478 159.836C135.478 159.836 131.957 159.585 128.975 157.951C128.975 157.951 129.49 146.963 139.136 144.261H139.137Z" fill="#FEB546"/>
<path d="M152.675 153.599C152.863 154.278 153.033 154.962 153.201 155.647C153.515 156.991 153.805 158.272 154.017 159.648C154.413 159.667 154.858 159.605 155.249 159.545C157.355 159.142 158.739 158.508 160.616 157.684C163.427 156.308 163.048 156.441 164.462 155.691C162.816 156.809 161.931 157.313 160.732 157.957C159.089 158.776 157.519 159.533 155.308 159.951C154.341 160.092 154.063 160.062 153.696 160.017C153.553 159.007 153.39 157.975 152.942 155.713L152.525 153.642L152.094 151.57C152.302 152.242 152.487 152.921 152.675 153.6V153.599Z" fill="#07085B"/>
<path d="M135.329 154.872C135.201 155.578 135.114 156.511 135.144 157.382C135.158 157.788 135.437 158.925 135.759 160.077C135.699 160.102 135.639 160.125 135.579 160.15C135.206 158.991 134.886 157.829 134.845 157.407C134.747 156.534 134.814 155.654 134.951 154.798C135.104 153.935 135.306 153.131 135.611 152.299C135.901 151.492 136.243 150.708 136.672 149.978C136.386 150.782 136.125 151.59 135.894 152.403C135.667 153.218 135.465 154.039 135.33 154.871L135.329 154.872Z" fill="#07085B"/>
<path d="M147.403 131.846C147.403 131.846 139.908 129.904 136.327 124.431C136.327 124.431 136.264 119.448 143.145 120.578C149.831 121.677 151.396 128.667 147.403 131.846Z" fill="#FF5500"/>
</svg>
