<svg width="24" height="24" viewBox="0 0 24 24" fill="none" xmlns="http://www.w3.org/2000/svg">
<g clip-path="url(#clip0_819_2667)">
<path d="M21.6488 20.2345H2.35125C1.72785 20.2339 1.13016 19.986 0.68935 19.5452C0.24854 19.1044 0.000620484 18.5067 0 17.8833L0 5.64608C0.000620484 5.02268 0.24854 4.42499 0.68935 3.98418C1.13016 3.54337 1.72785 3.29545 2.35125 3.29483C2.47557 3.29483 2.5948 3.34422 2.68271 3.43212C2.77061 3.52003 2.82 3.63926 2.82 3.76358C2.82 3.8879 2.77061 4.00713 2.68271 4.09504C2.5948 4.18294 2.47557 4.23233 2.35125 4.23233C1.97641 4.2327 1.61704 4.38177 1.35199 4.64682C1.08694 4.91187 0.937872 5.27124 0.9375 5.64608V17.8833C0.937872 18.2581 1.08694 18.6175 1.35199 18.8825C1.61704 19.1476 1.97641 19.2966 2.35125 19.297H21.6488C22.0236 19.2966 22.383 19.1476 22.648 18.8825C22.9131 18.6175 23.0621 18.2581 23.0625 17.8833V5.64608C23.0621 5.27124 22.9131 4.91187 22.648 4.64682C22.383 4.38177 22.0236 4.2327 21.6488 4.23233C21.5244 4.23233 21.4052 4.18294 21.3173 4.09504C21.2294 4.00713 21.18 3.8879 21.18 3.76358C21.18 3.63926 21.2294 3.52003 21.3173 3.43212C21.4052 3.34422 21.5244 3.29483 21.6488 3.29483C22.2722 3.29545 22.8698 3.54337 23.3106 3.98418C23.7515 4.42499 23.9994 5.02268 24 5.64608V17.8833C23.9994 18.5067 23.7515 19.1044 23.3106 19.5452C22.8698 19.986 22.2722 20.2339 21.6488 20.2345Z" fill="#FAF6FF"/>
<path d="M23.5312 17.8814H0.46875C0.34443 17.8814 0.225201 17.832 0.137294 17.7441C0.049386 17.6562 0 17.537 0 17.4127C0 17.2883 0.049386 17.1691 0.137294 17.0812C0.225201 16.9933 0.34443 16.9439 0.46875 16.9439H23.5312C23.6556 16.9439 23.7748 16.9933 23.8627 17.0812C23.9506 17.1691 24 17.2883 24 17.4127C24 17.537 23.9506 17.6562 23.8627 17.7441C23.7748 17.832 23.6556 17.8814 23.5312 17.8814ZM16.0008 24C15.9053 24.0001 15.8121 23.971 15.7336 23.9166C15.6551 23.8622 15.5951 23.7852 15.5616 23.6958L14.2636 20.2345H9.73641L8.4375 23.6958C8.39212 23.8096 8.30395 23.9012 8.19188 23.9508C8.07982 24.0005 7.95277 24.0042 7.83796 23.9613C7.72316 23.9184 7.62972 23.8322 7.57767 23.7213C7.52563 23.6103 7.51912 23.4834 7.55953 23.3677L8.97141 19.6022C9.00492 19.5128 9.06494 19.4357 9.14343 19.3814C9.22192 19.327 9.31514 19.2979 9.41062 19.298H14.5884C14.6839 19.2979 14.7771 19.327 14.8556 19.3814C14.9341 19.4357 14.9941 19.5128 15.0277 19.6022L16.4395 23.3677C16.4831 23.484 16.4787 23.6129 16.4273 23.7261C16.3759 23.8392 16.2816 23.9273 16.1653 23.9709C16.1127 23.9905 16.0569 24.0004 16.0008 24Z" fill="#FAF6FF"/>
<path d="M17.8832 24H6.1176C5.99328 24 5.87405 23.9506 5.78615 23.8627C5.69824 23.7748 5.64885 23.6556 5.64885 23.5312C5.64885 23.4069 5.69824 23.2877 5.78615 23.1998C5.87405 23.1119 5.99328 23.0625 6.1176 23.0625H17.8832C18.0075 23.0625 18.1268 23.1119 18.2147 23.1998C18.3026 23.2877 18.352 23.4069 18.352 23.5312C18.352 23.6556 18.3026 23.7748 18.2147 23.8627C18.1268 23.9506 18.0075 24 17.8832 24ZM21.6487 17.8814H2.3512C2.22688 17.8814 2.10765 17.832 2.01974 17.7441C1.93183 17.6562 1.88245 17.537 1.88245 17.4127V3.22031C1.88344 2.36646 2.2231 1.54786 2.82692 0.944138C3.43073 0.340414 4.24937 0.000868425 5.10323 0L18.8967 0C19.7505 0.000868425 20.5692 0.340414 21.173 0.944138C21.7768 1.54786 22.1165 2.36646 22.1174 3.22031V17.4127C22.1174 17.537 22.0681 17.6562 21.9802 17.7441C21.8922 17.832 21.773 17.8814 21.6487 17.8814ZM2.81995 16.9439H21.1799V3.22031C21.1792 2.61502 20.9384 2.03474 20.5103 1.60678C20.0823 1.17881 19.502 0.93812 18.8967 0.9375H5.10323C4.49794 0.93812 3.91761 1.17881 3.48955 1.60678C3.0615 2.03474 2.82069 2.61502 2.81995 3.22031V16.9439Z" fill="#FAF6FF"/>
<path d="M21.6487 12.2344H2.3512C2.22688 12.2344 2.10765 12.185 2.01974 12.0971C1.93183 12.0092 1.88245 11.8899 1.88245 11.7656C1.88245 11.6413 1.93183 11.5221 2.01974 11.4342C2.10765 11.3463 2.22688 11.2969 2.3512 11.2969H21.6487C21.773 11.2969 21.8922 11.3463 21.9802 11.4342C22.0681 11.5221 22.1174 11.6413 22.1174 11.7656C22.1174 11.8899 22.0681 12.0092 21.9802 12.0971C21.8922 12.185 21.773 12.2344 21.6487 12.2344ZM19.2951 15.0572H8.94042C8.81609 15.0572 8.69687 15.0078 8.60896 14.9199C8.52105 14.832 8.47167 14.7128 8.47167 14.5884C8.47167 14.4641 8.52105 14.3449 8.60896 14.257C8.69687 14.1691 8.81609 14.1197 8.94042 14.1197H19.2951C19.4194 14.1197 19.5387 14.1691 19.6266 14.257C19.7145 14.3449 19.7639 14.4641 19.7639 14.5884C19.7639 14.7128 19.7145 14.832 19.6266 14.9199C19.5387 15.0078 19.4194 15.0572 19.2951 15.0572Z" fill="#FAF6FF"/>
<path d="M10.3528 15.9989C10.2285 15.9989 10.1093 15.9495 10.0214 15.8616C9.93348 15.7737 9.8841 15.6545 9.8841 15.5302V13.6472C9.8841 13.5229 9.93348 13.4036 10.0214 13.3157C10.1093 13.2278 10.2285 13.1784 10.3528 13.1784C10.4772 13.1784 10.5964 13.2278 10.6843 13.3157C10.7722 13.4036 10.8216 13.5229 10.8216 13.6472V15.5302C10.8216 15.6545 10.7722 15.7737 10.6843 15.8616C10.5964 15.9495 10.4772 15.9989 10.3528 15.9989ZM4.70488 15.9989C4.58056 15.9989 4.46133 15.9495 4.37342 15.8616C4.28551 15.7737 4.23613 15.6545 4.23613 15.5302V13.6472C4.23617 13.5673 4.25662 13.4888 4.29554 13.419C4.33446 13.3493 4.39055 13.2906 4.4585 13.2487C4.52645 13.2067 4.604 13.1828 4.68379 13.1792C4.76358 13.1756 4.84296 13.1924 4.91441 13.2281L6.79691 14.1694C6.87479 14.2083 6.94029 14.2681 6.98607 14.3422C7.03185 14.4163 7.0561 14.5016 7.0561 14.5887C7.0561 14.6757 7.03185 14.7611 6.98607 14.8351C6.94029 14.9092 6.87479 14.969 6.79691 15.008L4.91441 15.9492C4.84942 15.9819 4.77765 15.999 4.70488 15.9989ZM5.17363 14.4052V14.7712L5.53925 14.588L5.17363 14.4052ZM9.99988 12.2344H4.23425C4.10993 12.2344 3.9907 12.185 3.9028 12.0971C3.81489 12.0092 3.7655 11.8899 3.7655 11.7656V10.8047C3.7655 9.9158 4.11861 9.06331 4.74715 8.43477C5.37569 7.80624 6.22818 7.45313 7.11707 7.45312C8.00596 7.45313 8.85844 7.80624 9.48698 8.43477C10.1155 9.06331 10.4686 9.9158 10.4686 10.8047V11.7656C10.4686 11.8899 10.4192 12.0092 10.3313 12.0971C10.2434 12.185 10.1242 12.2344 9.99988 12.2344ZM4.703 11.2969H9.53113V10.8047C9.53113 10.4877 9.46869 10.1738 9.34737 9.88087C9.22605 9.58798 9.04823 9.32185 8.82407 9.09769C8.5999 8.87352 8.33377 8.6957 8.04089 8.57438C7.748 8.45307 7.43408 8.39062 7.11707 8.39062C6.80005 8.39062 6.48613 8.45307 6.19324 8.57438C5.90036 8.6957 5.63423 8.87352 5.41007 9.09769C5.1859 9.32185 5.00808 9.58798 4.88676 9.88087C4.76544 10.1738 4.703 10.4877 4.703 10.8047V11.2969Z" fill="#FAF6FF"/>
<path d="M7.11707 8.39062C6.73927 8.39062 6.36996 8.27859 6.05584 8.0687C5.74172 7.85881 5.49689 7.56048 5.35231 7.21145C5.20774 6.86241 5.16991 6.47834 5.24361 6.10781C5.31732 5.73728 5.49924 5.39692 5.76638 5.12978C6.03352 4.86264 6.37388 4.68071 6.74441 4.60701C7.11495 4.53331 7.49902 4.57113 7.84805 4.71571C8.19709 4.86028 8.49541 5.10511 8.7053 5.41924C8.91519 5.73336 9.02722 6.10267 9.02722 6.48046C9.0266 6.98688 8.82516 7.47237 8.46707 7.83046C8.10898 8.18855 7.62348 8.39 7.11707 8.39062ZM7.11707 5.50781C6.92469 5.50781 6.73664 5.56485 6.57669 5.67173C6.41673 5.77861 6.29207 5.93051 6.21845 6.10824C6.14483 6.28597 6.12557 6.48154 6.1631 6.67022C6.20063 6.8589 6.29327 7.03221 6.42929 7.16823C6.56532 7.30426 6.73863 7.3969 6.92731 7.43443C7.11599 7.47196 7.31156 7.4527 7.48929 7.37908C7.66702 7.30546 7.81892 7.18079 7.9258 7.02084C8.03268 6.86089 8.08972 6.67284 8.08972 6.48046C8.0896 6.22245 7.98711 5.97503 7.80476 5.7925C7.6224 5.60997 7.37508 5.50724 7.11707 5.50687V5.50781ZM19.2952 7.68374H12.2344C12.1101 7.68374 11.9909 7.63436 11.903 7.54645C11.815 7.45854 11.7657 7.33931 11.7657 7.21499C11.7657 7.09067 11.815 6.97145 11.903 6.88354C11.9909 6.79563 12.1101 6.74624 12.2344 6.74624H19.2952C19.4195 6.74624 19.5387 6.79563 19.6266 6.88354C19.7146 6.97145 19.7639 7.09067 19.7639 7.21499C19.7639 7.33931 19.7146 7.45854 19.6266 7.54645C19.5387 7.63436 19.4195 7.68374 19.2952 7.68374ZM19.2952 9.88031H12.2344C12.1101 9.88031 11.9909 9.83092 11.903 9.74301C11.815 9.65511 11.7657 9.53588 11.7657 9.41156C11.7657 9.28724 11.815 9.16801 11.903 9.0801C11.9909 8.99219 12.1101 8.94281 12.2344 8.94281H19.2952C19.4195 8.94281 19.5387 8.99219 19.6266 9.0801C19.7146 9.16801 19.7639 9.28724 19.7639 9.41156C19.7639 9.53588 19.7146 9.65511 19.6266 9.74301C19.5387 9.83092 19.4195 9.88031 19.2952 9.88031ZM19.2952 5.48718H12.2344C12.1101 5.48718 11.9909 5.4378 11.903 5.34989C11.815 5.26198 11.7657 5.14275 11.7657 5.01843C11.7657 4.89411 11.815 4.77488 11.903 4.68698C11.9909 4.59907 12.1101 4.54968 12.2344 4.54968H19.2952C19.4195 4.54968 19.5387 4.59907 19.6266 4.68698C19.7146 4.77488 19.7639 4.89411 19.7639 5.01843C19.7639 5.14275 19.7146 5.26198 19.6266 5.34989C19.5387 5.4378 19.4195 5.48718 19.2952 5.48718ZM16.4714 3.29062H12.2058C12.0815 3.29062 11.9623 3.24123 11.8744 3.15333C11.7865 3.06542 11.7371 2.94619 11.7371 2.82187C11.7371 2.69755 11.7865 2.57832 11.8744 2.49041C11.9623 2.4025 12.0815 2.35312 12.2058 2.35312H16.4714C16.5958 2.35312 16.715 2.4025 16.8029 2.49041C16.8908 2.57832 16.9402 2.69755 16.9402 2.82187C16.9402 2.94619 16.8908 3.06542 16.8029 3.15333C16.715 3.24123 16.5958 3.29062 16.4714 3.29062Z" fill="#FAF6FF"/>
</g>
<defs>
<clipPath id="clip0_819_2667">
<rect width="24" height="24" fill="white"/>
</clipPath>
</defs>
</svg>
