<svg width="14" height="12" viewBox="0 0 14 12" fill="none" xmlns="http://www.w3.org/2000/svg">
<path d="M12.2938 1.27124C11.5767 0.552234 10.6261 0.113394 9.61366 0.0339898C8.60126 -0.0454141 7.59384 0.239854 6.77337 0.838264C5.9126 0.198025 4.84121 -0.0922897 3.77496 0.0257817C2.7087 0.143853 1.72679 0.66154 1.02694 1.47459C0.327101 2.28765 -0.038686 3.33567 0.00324421 4.40762C0.0451745 5.47957 0.491707 6.49583 1.25292 7.25173L5.45415 11.4597C5.80595 11.806 6.27977 12 6.77337 12C7.26697 12 7.74079 11.806 8.0926 11.4597L12.2938 7.25173C13.0837 6.45699 13.5271 5.382 13.5271 4.26148C13.5271 3.14097 13.0837 2.06598 12.2938 1.27124ZM11.3399 6.31812L7.1387 10.5193C7.09089 10.5676 7.03399 10.6059 6.97128 10.6321C6.90858 10.6582 6.84131 10.6717 6.77337 10.6717C6.70543 10.6717 6.63817 10.6582 6.57546 10.6321C6.51276 10.6059 6.45585 10.5676 6.40805 10.5193L2.20682 6.29783C1.67626 5.75549 1.37917 5.02695 1.37917 4.26825C1.37917 3.50955 1.67626 2.78101 2.20682 2.23867C2.74747 1.70489 3.47664 1.40558 4.2364 1.40558C4.99616 1.40558 5.72533 1.70489 6.26598 2.23867C6.32887 2.30208 6.40369 2.35241 6.48613 2.38676C6.56858 2.4211 6.657 2.43879 6.74631 2.43879C6.83562 2.43879 6.92405 2.4211 7.00649 2.38676C7.08893 2.35241 7.16375 2.30208 7.22664 2.23867C7.76729 1.70489 8.49646 1.40558 9.25622 1.40558C10.016 1.40558 10.7451 1.70489 11.2858 2.23867C11.8236 2.77391 12.1305 3.49849 12.1406 4.25721C12.1507 5.01593 11.8633 5.74844 11.3399 6.29783V6.31812Z" fill="#808080"/>
</svg>
