<svg width="24" height="24" viewBox="0 0 24 24" fill="none" xmlns="http://www.w3.org/2000/svg">
<g clip-path="url(#clip0_819_2633)">
<path d="M7.19923 7.40681H5.87387L9.48716 17.6207L11.51 11.8402L9.94167 7.40681H8.5433V6.43357H14.7357V7.40681H13.2856L16.8989 17.6207L18.1977 13.9091C19.9015 9.15371 16.8012 7.6724 16.8012 6.61113C16.8012 5.54986 17.6616 4.68957 18.7228 4.68957C18.7802 4.68957 18.836 4.69268 18.8906 4.69777C17.0924 3.0003 14.6678 1.95935 11.9998 1.95935C8.51371 1.95935 5.44295 3.73632 3.64282 6.43357H7.19912V7.40681H7.19923Z" fill="#00769D"/>
<path d="M1.95935 12C1.95935 15.8441 4.11996 19.183 7.29268 20.8703L2.76152 8.06172C2.24536 9.27096 1.95935 10.6021 1.95935 12Z" fill="#00769D"/>
<path d="M20.7383 7.05229C20.8819 7.89794 20.8384 8.8484 20.618 9.80256H20.658L20.5061 10.2364C20.4162 10.5496 20.3029 10.8701 20.1742 11.1849L16.7194 20.8638C19.8854 19.1745 22.0405 15.8391 22.0405 11.9999C22.0405 10.2009 21.5669 8.51269 20.7383 7.05229Z" fill="#00769D"/>
<path d="M8.90332 21.5532C9.87876 21.8691 10.9192 22.0405 12 22.0405C13.0308 22.0405 14.0252 21.885 14.9614 21.5964L12.0244 13.2942L8.90332 21.5532Z" fill="#00769D"/>
<path d="M20.4852 3.5147C18.2188 1.24821 15.2053 0 11.9999 0C8.79463 0 5.78119 1.24821 3.5147 3.5147C1.24821 5.78119 0 8.79463 0 12C0 15.2053 1.24821 18.2188 3.5147 20.4852C5.78119 22.7517 8.79469 23.9999 12 23.9999C15.2053 23.9999 18.2188 22.7517 20.4853 20.4852C22.7518 18.2188 24 15.2053 24 12C23.9999 8.79463 22.7517 5.78119 20.4852 3.5147ZM11.9999 23.1534C5.84992 23.1534 0.846509 18.15 0.846509 12C0.846509 5.84997 5.84992 0.846509 11.9999 0.846509C18.15 0.846509 23.1534 5.84997 23.1534 12C23.1534 18.15 18.15 23.1534 11.9999 23.1534Z" fill="#00769D"/>
</g>
<defs>
<clipPath id="clip0_819_2633">
<rect width="24" height="24" fill="white"/>
</clipPath>
</defs>
</svg>
