<svg width="164" height="136" viewBox="0 0 164 136" fill="none" xmlns="http://www.w3.org/2000/svg">
<path d="M78.6008 102.959L59.3014 111.611L35.4112 45.2121L51.7243 37.8994C53.3732 37.1602 55.2469 38.0533 55.9092 39.8938L78.6 102.959H78.6008Z" fill="#F4A640"/>
<path d="M71.6603 42.4994L34.7065 49.8096L43.9146 107.803L80.8684 100.493L71.6603 42.4994Z" fill="#ADCFD8"/>
<path d="M62.3255 50.2818L45.8238 53.5461L45.8894 53.9595L62.3912 50.6951L62.3255 50.2818Z" fill="#55769F"/>
<path d="M65.625 48.5474L42.1898 53.1834L42.2554 53.5967L65.6906 48.9607L65.625 48.5474Z" fill="#55769F"/>
<path d="M68.9794 53.4448L40.5472 59.0693L40.6129 59.4826L69.045 53.8582L68.9794 53.4448Z" fill="#55769F"/>
<path d="M69.2958 55.4332L40.8636 61.0577L40.9293 61.471L69.3614 55.8466L69.2958 55.4332Z" fill="#55769F"/>
<path d="M69.9267 59.411L41.4946 65.0354L41.5602 65.4488L69.9923 59.8243L69.9267 59.411Z" fill="#55769F"/>
<path d="M70.2434 61.3995L41.8112 67.024L41.8769 67.4373L70.309 61.8128L70.2434 61.3995Z" fill="#55769F"/>
<path d="M70.5588 63.3888L42.1267 69.0133L42.1923 69.4266L70.6245 63.8022L70.5588 63.3888Z" fill="#55769F"/>
<path d="M71.9477 72.1364L43.5156 77.7608L43.5812 78.1742L72.0134 72.5497L71.9477 72.1364Z" fill="#55769F"/>
<path d="M72.2749 74.1993L43.8427 79.8237L43.9084 80.2371L72.3405 74.6126L72.2749 74.1993Z" fill="#55769F"/>
<path d="M72.6027 76.2621L44.1705 81.8865L44.2362 82.2999L72.6683 76.6754L72.6027 76.2621Z" fill="#55769F"/>
<path d="M72.9298 78.3241L44.4976 83.9486L44.5633 84.3619L72.9954 78.7375L72.9298 78.3241Z" fill="#55769F"/>
<path d="M73.2576 80.386L44.8254 86.0105L44.891 86.4238L73.3232 80.7994L73.2576 80.386Z" fill="#55769F"/>
<path d="M73.5849 82.4497L45.1528 88.0742L45.2184 88.4875L73.6506 82.8631L73.5849 82.4497Z" fill="#55769F"/>
<path d="M73.9129 84.5109L45.4807 90.1354L45.5463 90.5487L73.9785 84.9242L73.9129 84.5109Z" fill="#55769F"/>
<path d="M66.3339 41.0532L30.0394 51.7116L43.4649 108.671L79.7594 98.0125L66.3339 41.0532Z" fill="#DAEEF7"/>
<path d="M57.6004 49.6618L41.393 54.4213L41.4887 54.8272L57.6961 50.0677L57.6004 49.6618Z" fill="#55769F"/>
<path d="M60.7623 47.6325L37.7452 54.3918L37.8409 54.7977L60.858 48.0385L60.7623 47.6325Z" fill="#55769F"/>
<path d="M64.4653 52.2065L36.5404 60.407L36.6361 60.813L64.561 52.6125L64.4653 52.2065Z" fill="#55769F"/>
<path d="M64.9243 54.1597L36.9994 62.3602L37.095 62.7662L65.02 54.5657L64.9243 54.1597Z" fill="#55769F"/>
<path d="M65.8461 58.0668L37.9212 66.2673L38.0169 66.6733L65.9418 58.4728L65.8461 58.0668Z" fill="#55769F"/>
<path d="M66.3069 60.0199L38.3819 68.2204L38.4776 68.6264L66.4025 60.4259L66.3069 60.0199Z" fill="#55769F"/>
<path d="M66.7663 61.9741L38.8413 70.1746L38.937 70.5805L66.862 62.3801L66.7663 61.9741Z" fill="#55769F"/>
<path d="M68.7915 70.5662L40.8665 78.7667L40.9622 79.1727L68.8872 70.9722L68.7915 70.5662Z" fill="#55769F"/>
<path d="M69.2694 72.5906L41.3444 80.7911L41.4401 81.1971L69.365 72.9966L69.2694 72.5906Z" fill="#55769F"/>
<path d="M69.7464 74.6169L41.8214 82.8174L41.9171 83.2234L69.8421 75.0229L69.7464 74.6169Z" fill="#55769F"/>
<path d="M70.2246 76.6422L42.2996 84.8427L42.3953 85.2487L70.3202 77.0482L70.2246 76.6422Z" fill="#55769F"/>
<path d="M70.701 78.6677L42.7761 86.8682L42.8718 87.2742L70.7967 79.0737L70.701 78.6677Z" fill="#55769F"/>
<path d="M71.1795 80.6939L43.2546 88.8943L43.3503 89.3003L71.2752 81.0998L71.1795 80.6939Z" fill="#55769F"/>
<path d="M71.6564 82.7193L43.7314 90.9198L43.8271 91.3258L71.7521 83.1253L71.6564 82.7193Z" fill="#55769F"/>
<path d="M71.2777 106.242L32.4236 123.659L9.76194 60.6753L42.4115 38.1943C44.2462 36.9308 46.6585 37.8172 47.4624 40.0507L71.2785 106.243L71.2777 106.242Z" fill="#FEB546"/>
<path d="M19.8855 113.467L14.3424 113.355C12.4178 109.462 11.0063 106.077 11.0063 106.077C17.2664 104.467 22.5495 105.128 26.9516 107.016L29.3774 113.593L29.8966 108.529C40.8053 115.1 45.3003 129.01 45.3003 129.01C45.3003 129.01 26.0212 126.718 21.9345 124.596C20.3567 123.777 18.3677 120.829 16.521 117.519C17.9983 115.949 19.8862 113.467 19.8862 113.467H19.8855Z" fill="#FF5B7E"/>
<path d="M11.0064 106.076C11.0064 106.076 35.7583 117.703 45.2997 129.009C45.2997 129.009 26.0205 126.717 21.9338 124.595C20.3561 123.776 18.367 120.828 16.5203 117.518C17.9977 115.948 19.8856 113.466 19.8856 113.466L14.3425 113.354C12.4179 109.461 11.0064 106.076 11.0064 106.076Z" fill="#E03268"/>
<path d="M11.7961 124.659C15.1291 122.393 18.4914 121.181 21.745 120.698C22.6987 122.021 23.8697 123.577 23.8697 123.577L23.9933 120.474C36.4782 119.84 46.8235 129.177 46.8235 129.177C39.5925 134.264 33.4246 135.667 28.3714 135.212C28.0718 134.126 27.6485 132.507 27.6485 132.507L26.7562 134.999C24.3342 134.577 22.1968 133.733 20.3508 132.703C20.8235 131.41 21.3217 129.932 21.3217 129.932L18.6307 131.638C14.1215 128.561 11.7968 124.658 11.7968 124.658L11.7961 124.659Z" fill="#FF5B7E"/>
<path d="M28.3716 135.213C28.072 134.127 27.6487 132.507 27.6487 132.507L26.7564 135C24.3343 134.578 22.197 133.734 20.351 132.704C20.8237 131.411 21.3219 129.933 21.3219 129.933L18.6309 131.639C14.1217 128.561 11.797 124.659 11.797 124.659C26.3436 122.783 46.8244 129.178 46.8244 129.178C39.5934 134.264 33.4255 135.667 28.3724 135.213H28.3716Z" fill="#E03268"/>
<path d="M84.6437 40.9488L89.1117 37.2862C88.6697 32.8676 88.0726 29.1941 88.0726 29.1941C82.128 31.9118 78.1551 35.8562 75.5375 40.2347L76.958 47.1686L73.9148 43.368C68.4047 55.7616 71.9273 70.0167 71.9273 70.0167C71.9273 70.0167 86.4852 55.724 88.7252 51.3581C89.5905 49.6723 89.6901 45.9845 89.4863 42.0911C87.4681 41.7608 84.6429 40.9505 84.6429 40.9505L84.6437 40.9488Z" fill="#02CCC0"/>
<path d="M88.0724 29.1933C88.0724 29.1933 73.8726 54.6344 71.9278 70.0142C71.9278 70.0142 86.4856 55.7215 88.7257 51.3556C89.591 49.6698 89.6906 45.9821 89.4868 42.0886C87.4686 41.7583 84.6434 40.948 84.6434 40.948L89.1115 37.2854C88.6695 32.8668 88.0724 29.1933 88.0724 29.1933Z" fill="#06BFAD"/>
<path d="M97.0371 44.8766C93.1437 45.1743 89.7717 46.3509 86.8641 48.0518C86.7697 49.7468 86.6184 51.7721 86.6184 51.7721L84.9133 49.3178C74.3905 56.8429 70.7705 71.1331 70.7705 71.1331C79.3058 70.6289 85.0684 67.7999 88.9588 64.1733C88.6419 63.0937 88.1505 61.4982 88.1505 61.4982L90.1687 62.9591C91.9285 61.0533 93.2373 58.9878 94.2112 56.9567C93.1564 56.2057 91.9854 55.3194 91.9854 55.3194L95.0653 54.979C97.1562 49.5611 97.0363 44.8766 97.0363 44.8766H97.0371Z" fill="#02CCC0"/>
<path d="M88.9594 64.174C88.6425 63.0945 88.1511 61.499 88.1511 61.499L90.1693 62.9599C91.9291 61.0541 93.2379 58.9886 94.2119 56.9575C93.157 56.2065 91.9861 55.3201 91.9861 55.3201L95.0659 54.9798C97.1568 49.5619 97.037 44.8774 97.037 44.8774C84.1887 52.7178 70.7711 71.1347 70.7711 71.1347C79.3064 70.6305 85.069 67.8016 88.9594 64.1749V64.174Z" fill="#06BFAD"/>
<path d="M132.755 63.0008H135.413C134.978 62.6688 134.434 62.4706 133.842 62.4706H67.2794C63.7973 62.4706 60.9737 65.2636 60.9737 68.7097V72.6725C60.9737 76.1178 63.7966 78.9116 67.2794 78.9116L133.098 78.889L132.755 63.0008Z" fill="#E03268"/>
<path d="M66.5572 72.6726V68.7097C66.5572 65.2637 69.38 62.4707 72.8629 62.4707H71.4335C67.9514 62.4707 65.1278 65.2637 65.1278 68.7097V72.6726C65.1278 76.1178 67.9506 78.9116 71.4335 78.9116H72.8442C69.3703 78.9007 66.5572 76.1119 66.5572 72.6726Z" fill="#FEB546"/>
<path d="M82.1458 72.6726V68.7097C82.1458 65.2637 84.9687 62.4707 88.4516 62.4707H87.0221C83.54 62.4707 80.7164 65.2637 80.7164 68.7097V72.6726C80.7164 76.1178 83.5392 78.9116 87.0221 78.9116H88.4328C84.9589 78.9007 82.1458 76.1119 82.1458 72.6726Z" fill="#FEB546"/>
<path d="M94.9659 62.4849C91.635 62.4849 88.9358 65.1558 88.9358 68.4513V72.9301C88.9358 76.2257 91.6358 78.8966 94.9659 78.8966H136.403V77.8948H136.232L125.698 76.908L123.568 68.6437C123.568 68.6437 127.678 64.0762 127.946 63.9592C128.214 63.8413 136.232 63.4842 136.232 63.4842L136.403 63.4825V62.4866H94.9659V62.4849Z" fill="#FF5B7E"/>
<path d="M133.716 70.6615C133.716 65.829 136.24 63.4867 136.24 63.4867H95.8152C92.7563 63.4867 90.2766 65.9402 90.2766 68.9673V72.415C90.2766 75.4413 92.7563 77.8956 95.8152 77.8956H136.24C136.24 77.8956 133.716 76.7467 133.716 70.6623V70.6615Z" fill="#DAEEF7"/>
<g style="mix-blend-mode:multiply">
<path d="M90.276 68.9673V72.415C90.276 72.8683 90.3329 73.3081 90.437 73.7296C91.8005 70.429 94.4136 67.2497 99.3881 66.2278C111.002 63.8413 136.239 63.4875 136.239 63.4875H95.8146C92.7557 63.4875 90.276 65.941 90.276 68.9681V68.9673Z" fill="#DAEEF7"/>
</g>
<path d="M131.659 95.8626H134.667C134.174 95.447 133.559 95.1987 132.89 95.1987H57.5531C53.6117 95.1987 50.4165 98.6949 50.4165 103.008V107.969C50.4165 112.282 53.6117 115.778 57.5531 115.778L132.047 115.75L131.659 95.8626Z" fill="#284C7A"/>
<path d="M88.8889 95.2169C85.1199 95.2169 82.064 98.5609 82.064 102.685V108.291C82.064 112.415 85.1199 115.759 88.8889 115.759H135.788V114.505H135.594L123.671 113.269L121.261 102.924C121.261 102.924 125.911 97.2079 126.215 97.0607C126.518 96.9135 135.593 96.4662 135.593 96.4662L135.787 96.4637V95.2169H88.8882H88.8889Z" fill="#55769F"/>
<path d="M132.746 105.452C132.746 99.4031 135.603 96.4714 135.603 96.4714H89.8504C86.3885 96.4714 83.5813 99.5428 83.5813 103.331V107.646C83.5813 111.434 86.3877 114.505 89.8504 114.505H135.603C135.603 114.505 132.746 113.067 132.746 105.451V105.452Z" fill="#DAEEF7"/>
<g style="mix-blend-mode:multiply">
<path d="M83.5804 103.331V107.646C83.5804 108.213 83.6448 108.764 83.7632 109.291C85.3064 105.159 88.2634 101.18 93.8934 99.9007C107.038 96.9138 135.602 96.4706 135.602 96.4706H89.8494C86.3875 96.4706 83.5804 99.542 83.5804 103.33V103.331Z" fill="#DAEEF7"/>
</g>
<path d="M47.9333 79.3958H44.9246C45.4168 79.0663 46.0327 78.869 46.7024 78.869H122.068C126.011 78.869 129.208 81.6436 129.208 85.0654V89.0015C129.208 92.4241 126.011 95.1979 122.068 95.1979L47.5452 95.1761L47.9333 79.3958Z" fill="#02CCC0"/>
<path d="M90.7199 78.884C94.4905 78.884 97.5478 81.5373 97.5478 84.8103V89.2582C97.5478 92.5311 94.4912 95.1844 90.7199 95.1844H43.8032V94.1893H43.9972L55.9247 93.2093L58.3356 85.001C58.3356 85.001 53.6825 80.4653 53.3791 80.3482C53.0757 80.2312 43.9972 79.8766 43.9972 79.8766L43.8032 79.8749V78.8857H90.7199V78.884Z" fill="#06BFAD"/>
<path d="M46.8455 87.0045C46.8455 82.2055 43.9881 79.8791 43.9881 79.8791H89.7586C93.222 79.8791 96.0299 82.3159 96.0299 85.3221V88.7456C96.0299 91.7518 93.222 94.1885 89.7586 94.1885H43.9881C43.9881 94.1885 46.8455 93.0471 46.8455 87.0045Z" fill="#DAEEF7"/>
<g style="mix-blend-mode:multiply">
<path d="M96.0303 85.3221V88.7455C96.0303 89.1954 95.9658 89.6328 95.8475 90.0509C94.3034 86.7729 91.3449 83.6153 85.7127 82.6002C72.5633 80.2295 43.9877 79.8783 43.9877 79.8783H89.7582C93.2216 79.8783 96.0295 82.315 96.0295 85.3212L96.0303 85.3221Z" fill="#DAEEF7"/>
</g>
<path opacity="0.5" d="M115.402 89.0022V85.0661C115.402 81.6443 112.205 78.8698 108.262 78.8698H115.419C119.362 78.8698 122.558 81.6443 122.558 85.0661V89.0022C122.558 92.4249 119.362 95.1986 115.419 95.1986L108.357 95.1961C112.257 95.1518 115.402 92.3964 115.402 89.0014V89.0022Z" fill="#55769F"/>
<path d="M42.2437 116.409H39.0005C39.5309 116.041 40.1947 115.82 40.9169 115.82H122.163C126.414 115.82 129.86 118.92 129.86 122.743V127.141C129.86 130.965 126.414 134.064 122.163 134.064L41.8256 134.039L42.2437 116.408V116.409Z" fill="#FEB546"/>
<path d="M88.3687 115.836C92.4336 115.836 95.7292 118.8 95.7292 122.457V127.427C95.7292 131.083 92.4336 134.048 88.3687 134.048H37.7915V132.936H38.0005L50.8585 131.841L53.4574 122.67C53.4574 122.67 48.4417 117.602 48.1143 117.471C47.7869 117.341 38.0005 116.945 38.0005 116.945L37.7915 116.943V115.837H88.3694L88.3687 115.836Z" fill="#F4A640"/>
<path d="M41.0713 124.91C41.0713 119.548 37.9907 116.948 37.9907 116.948H87.3325C91.0663 116.948 94.093 119.671 94.093 123.03V126.855C94.093 130.215 91.0663 132.937 87.3325 132.937H37.9907C37.9907 132.937 41.0713 131.662 41.0713 124.91V124.91Z" fill="#DAEEF7"/>
<g style="mix-blend-mode:multiply">
<path d="M94.093 123.029V126.855C94.093 127.357 94.0241 127.846 93.8959 128.313C92.232 124.65 89.0421 121.122 82.9708 119.988C68.795 117.34 37.9907 116.948 37.9907 116.948H87.3325C91.0663 116.948 94.093 119.671 94.093 123.03V123.029Z" fill="#DAEEF7"/>
</g>
<path d="M18.2194 133.938H155.243C155.648 133.938 155.977 134.305 155.977 134.757V135.133C155.977 135.585 155.648 135.952 155.243 135.952H18.2194C17.8149 135.952 17.486 135.585 17.486 135.133V134.757C17.486 134.305 17.8149 133.938 18.2194 133.938Z" fill="#C4DFE8"/>
<path d="M16.6461 67.6293L43.0993 50.7402L46.6751 58.6458L19.6068 74.6293L16.6461 67.6293Z" fill="#F4A640"/>
<path d="M66.4958 19.5232C66.4958 19.5232 66.2867 21.8195 64.6633 21.9783C66.2867 22.1372 66.4958 24.4335 66.4958 24.4335C66.4958 24.4335 66.7048 22.1372 68.3282 21.9783C66.7048 21.8195 66.4958 19.5232 66.4958 19.5232Z" fill="#02CCC0"/>
<path d="M38.4452 1.88148C38.4452 1.88148 38.1672 4.94038 36.0044 5.15194C38.1672 5.3635 38.4452 8.4224 38.4452 8.4224C38.4452 8.4224 38.7231 5.3635 40.886 5.15194C38.7231 4.94038 38.4452 1.88148 38.4452 1.88148Z" fill="#FEB546"/>
<path d="M27.1158 29.2401C27.1158 29.2401 26.9293 31.2938 25.4774 31.436C26.9293 31.5782 27.1158 33.6319 27.1158 33.6319C27.1158 33.6319 27.3024 31.5782 28.7543 31.436C27.3024 31.2938 27.1158 29.2401 27.1158 29.2401Z" fill="#FF5B7E"/>
<path d="M155.783 78.246C155.783 78.246 155.505 81.3049 153.343 81.5164C155.505 81.728 155.783 84.7869 155.783 84.7869C155.783 84.7869 156.061 81.728 158.223 81.5164C156.061 81.3049 155.783 78.246 155.783 78.246Z" fill="#FF5B7E"/>
<path d="M2.44079 51.313C2.44079 51.313 2.16285 54.3719 0 54.5835C2.16285 54.7951 2.44079 57.854 2.44079 57.854C2.44079 57.854 2.71874 54.7951 4.88159 54.5835C2.71874 54.3719 2.44079 51.313 2.44079 51.313Z" fill="#02CCC0"/>
<path d="M161.559 48.0425C161.559 48.0425 161.281 51.1014 159.119 51.313C161.281 51.5246 161.559 54.5835 161.559 54.5835C161.559 54.5835 161.837 51.5246 164 51.313C161.837 51.1014 161.559 48.0425 161.559 48.0425Z" fill="#02CCC0"/>
<path d="M94.093 0C94.093 0 93.815 3.05889 91.6522 3.27046C93.815 3.48202 94.093 6.54091 94.093 6.54091C94.093 6.54091 94.3709 3.48202 96.5338 3.27046C94.3709 3.05889 94.093 0 94.093 0Z" fill="#FF5B7E"/>
<path d="M140.422 25.5449C140.422 25.5449 140.27 27.4765 139.095 27.6095C140.27 27.7433 140.422 29.6741 140.422 29.6741C140.422 29.6741 140.573 27.7425 141.748 27.6095C140.572 27.4757 140.422 25.5449 140.422 25.5449Z" fill="#FEB546"/>
<path d="M45.5277 119.674L41.8755 119.88L41.4133 131.974L39.5449 132.978L39.6348 133.419L40.3292 133.602C40.3292 133.602 42.576 133.559 42.6434 133.559C42.7108 133.559 43.1738 132.989 43.1738 132.989L43.1042 132.89L43.4772 132.607L45.5277 119.676V119.674Z" fill="#FFC0BB"/>
<path d="M55.4207 132.978C55.4207 132.978 53.5965 131.956 53.5515 131.974L53.965 119.66L49.4378 119.675L51.4883 132.606L51.713 132.777C51.6569 132.992 51.6119 133.177 51.6014 133.237C51.5722 133.398 52.3731 133.409 52.6525 133.462C52.9319 133.516 53.7418 133.613 54.2625 133.774C54.7831 133.936 55.4387 133.462 55.4387 133.462L55.4214 132.979L55.4207 132.978Z" fill="#FFC0BB"/>
<path d="M55.5428 86.4351C55.0154 84.9048 54.503 85.5111 53.5515 83.6605C53.4002 83.3662 53.2916 82.9857 53.2152 82.6345C52.9867 81.585 52.493 80.6267 51.761 79.9209C49.53 77.7702 47.0061 78.7251 47.0061 78.7251C47.0061 78.7251 47.6608 82.882 47.7859 83.7249C47.2286 84.572 46.6659 85.4366 46.6659 85.4366C46.6659 85.4366 45.492 92.2694 47.3342 92.8456C49.1771 93.4217 49.512 92.4969 50.4118 92.016C51.3115 91.5344 52.1903 92.8489 53.5343 91.9341C54.5614 91.235 54.04 89.4923 54.5832 89.1654C55.1263 88.8384 56.1115 88.0866 55.5428 86.4351Z" fill="#FF5500"/>
<path d="M46.0498 82.1728C46.0168 82.1569 45.1725 81.6251 44.3814 81.1267L49.2937 75.0231C49.2937 75.0231 47.8051 74.7012 47.7144 74.6886C47.6238 74.6761 45.4894 75.4178 45.4894 75.4178L43.2883 76.0835C41.6087 82.9246 39.517 84.163 39.5163 84.1639C39.2638 84.3512 39.0248 84.6012 38.7836 85.0369C37.9498 86.5421 38.7933 87.4845 39.2728 87.9185C39.7523 88.3525 38.9499 89.9572 39.8429 90.8561C41.0124 92.0335 42.0934 90.923 42.898 91.5828C43.7026 92.2426 43.8779 93.2201 45.7846 93.0353C47.6912 92.8505 47.6725 85.8932 47.6725 85.8932C47.6725 85.8932 46.112 82.2046 46.0505 82.1736L46.0498 82.1728Z" fill="#FF5500"/>
<path d="M54.389 94.6442C54.389 94.6442 56.0102 103.283 55.5397 104.217C55.0692 105.151 48.8983 105.443 48.8983 105.443L48.6369 94.3523L50.99 90.3828L54.389 94.6442Z" fill="#FF5B7E"/>
<path d="M52.4322 104.645L51.2793 101.118C51.2793 101.118 47.484 99.5754 47.2427 99.5562C47.0015 99.5378 43.7891 101.118 43.7891 101.118C43.7891 101.118 42.8069 103.338 42.6151 103.736C42.5087 103.956 42.7537 105.314 42.9934 106.482L41.6322 106.553L40.728 128.849C40.728 128.849 42.6878 130.027 44.7982 129.017L46.5318 109.542L48.0391 109.29L50.3001 128.596C50.3001 128.596 52.1093 130.11 54.6722 128.848L52.9739 107.362C52.9005 106.433 52.7184 105.519 52.4315 104.644L52.4322 104.645Z" fill="#07085B"/>
<path d="M45.0515 87.7604C45.0515 87.7604 46.7349 87.3666 49.8679 87.6141C53.0002 87.8624 48.419 89.8326 48.419 89.8326C48.419 89.8326 46.8113 89.774 46.7424 89.7598C46.6735 89.7456 45.0523 87.7604 45.0523 87.7604H45.0515Z" fill="#FFC0BB"/>
<path d="M49.035 85.7853H46.2541V91.2333H49.035V85.7853Z" fill="#FFC0BB"/>
<path d="M49.0305 86.7168V84.8587H46.2541V86.4392C46.8519 86.7979 47.7367 87.0036 49.0305 86.7168Z" fill="#F99893"/>
<path d="M52.9259 79.7202C52.66 79.5739 52.3513 79.5998 52.0719 79.7578C52.1678 76.9506 50.1173 74.59 47.5341 74.6895C44.951 74.59 42.9005 76.9506 42.9964 79.7578C42.717 79.5998 42.4083 79.5739 42.1424 79.7202C41.6322 80.0012 41.4734 80.8056 41.788 81.5181C42.1027 82.2297 42.7709 82.5792 43.2811 82.2983C43.3523 82.259 43.4152 82.2096 43.4722 82.1519C43.7643 84.4724 45.4987 86.2118 47.5334 86.18C49.5681 86.2126 51.3025 84.4724 51.5946 82.1519C51.6516 82.2096 51.7145 82.2598 51.7857 82.2983C52.2959 82.5792 52.9641 82.2297 53.2788 81.5181C53.5934 80.8065 53.4346 80.0012 52.9244 79.7202H52.9259Z" fill="#FFC0BB"/>
<path d="M46.3874 80.7555C46.3986 80.9905 46.2376 81.192 46.027 81.2045C45.8165 81.2171 45.636 81.0373 45.6247 80.8023C45.6135 80.5673 45.7746 80.3658 45.9851 80.3533C46.1956 80.3407 46.3762 80.5205 46.3874 80.7555Z" fill="#333333"/>
<path d="M49.6752 80.7947C49.6865 81.0297 49.5254 81.2312 49.3149 81.2438C49.1044 81.2563 48.9238 81.0765 48.9126 80.8416C48.9013 80.6066 49.0624 80.405 49.2729 80.3925C49.4834 80.38 49.664 80.5597 49.6752 80.7947Z" fill="#333333"/>
<path d="M46.8068 79.8833C46.6157 79.8089 46.4337 79.7512 46.2524 79.7152C46.0718 79.6792 45.8928 79.67 45.7182 79.691C45.5444 79.7144 45.3699 79.7537 45.2028 79.8381L45.1376 79.8649C45.1159 79.8741 45.0964 79.8883 45.0754 79.8992L44.9473 79.9686C44.8619 80.0162 44.7818 80.0773 44.6866 80.125C44.7376 80.0288 44.796 79.9343 44.8634 79.8482C44.9383 79.7721 45.0073 79.6809 45.0979 79.6232C45.2672 79.4852 45.4785 79.4083 45.6898 79.3824C45.9025 79.3573 46.1198 79.3941 46.3131 79.4827C46.5049 79.573 46.6809 79.7035 46.806 79.8841L46.8068 79.8833Z" fill="#FF5500"/>
<path d="M48.346 79.8766C48.4696 79.6951 48.6449 79.563 48.836 79.471C49.0285 79.3815 49.245 79.3422 49.4585 79.3657C49.6705 79.3899 49.8818 79.4652 50.0519 79.6015C50.1433 79.6583 50.2129 79.7486 50.2879 79.8247C50.356 79.91 50.4145 80.0045 50.4662 80.0999C50.371 80.053 50.2909 79.9928 50.2047 79.946L50.0766 79.8783C50.0549 79.8682 50.0354 79.854 50.0137 79.8448L49.9485 79.8181C49.7807 79.7353 49.6061 79.6968 49.4323 79.6751C49.2578 79.6558 49.0795 79.6667 48.8982 79.7043C48.7169 79.742 48.5356 79.8013 48.3453 79.8766H48.346Z" fill="#FF5500"/>
<path d="M47.7229 80.1726C47.7042 80.3967 47.7185 80.6208 47.7559 80.8424C47.7746 80.9536 47.8016 81.064 47.8406 81.1735C47.881 81.2822 47.9297 81.3918 48.0189 81.4863C48.1208 81.5741 48.165 81.6 48.1934 81.6794C48.2234 81.7488 48.2099 81.8375 48.1777 81.9219C48.1065 82.0942 47.9425 82.223 47.7634 82.3183C47.9604 82.3083 48.1784 82.2196 48.3073 82.0047C48.3702 81.9002 48.4047 81.753 48.3642 81.6134C48.3223 81.4695 48.2481 81.4185 48.168 81.3474C48.0968 81.2839 48.0511 81.1944 48.0054 81.0932C47.9627 81.0021 47.9335 80.9001 47.899 80.8006C47.8368 80.5974 47.7829 80.3866 47.7229 80.1734V80.1726Z" fill="#F99893"/>
<path d="M46.4709 82.8451C46.5765 82.9263 46.6851 82.9998 46.799 83.0626C46.9114 83.1278 47.0275 83.1846 47.1466 83.2306C47.3849 83.3226 47.6328 83.3795 47.883 83.3803C48.1333 83.382 48.3812 83.3243 48.6142 83.2198C48.8465 83.1119 49.0615 82.9572 49.2608 82.7782C49.1724 82.8819 49.0772 82.9789 48.9738 83.0659C48.8712 83.1529 48.7581 83.2248 48.642 83.29C48.5243 83.3519 48.4 83.4004 48.2726 83.4322C48.1445 83.4631 48.0142 83.4782 47.883 83.479C47.6208 83.4765 47.3616 83.4129 47.1226 83.3009C46.8837 83.1888 46.6597 83.0391 46.4709 82.8443V82.8451Z" fill="#F99893"/>
<path d="M53.0516 88.8492C51.5451 87.2169 49.4616 87.5631 49.4616 87.5631C49.2286 87.8232 48.9956 88.0197 48.7649 88.166C48.4345 88.3533 48.0202 88.5156 47.5587 88.5289C47.5505 88.5289 47.5422 88.5289 47.534 88.5289C47.5258 88.5289 47.5175 88.5289 47.5093 88.5289C47.0478 88.5156 46.6327 88.3533 46.3031 88.166C46.0724 88.0188 45.8394 87.8232 45.6064 87.5631C45.6064 87.5631 43.5229 87.2169 42.0164 88.8492C40.5098 90.4815 39.0025 94.0831 39.0025 94.0831C39.0025 94.0831 40.9083 96.0223 42.7251 96.2698C42.7251 96.2698 43.6113 100.821 43.7889 101.118C43.7889 101.118 44.7036 101.597 46.0334 101.848C46.5174 101.951 46.9931 101.994 47.4493 101.996C47.4778 101.996 47.5055 101.996 47.534 101.996C47.5625 101.996 47.5909 101.996 47.6187 101.996C48.0749 101.994 48.5506 101.951 49.0346 101.848C50.3644 101.597 51.2791 101.118 51.2791 101.118C51.4566 100.821 52.3429 96.2698 52.3429 96.2698C54.1596 96.0223 56.0655 94.0831 56.0655 94.0831C56.0655 94.0831 54.559 90.4823 53.0516 88.8492Z" fill="#02CCC0"/>
<path d="M47.697 99.8907C47.697 99.8907 48.2566 99.787 48.5653 100.246L48.5435 101.428L47.8595 101.783C47.8595 101.783 47.0122 100.978 47.0759 100.958C47.1396 100.937 47.697 99.8907 47.697 99.8907Z" fill="#E03268"/>
<path d="M49.4388 107.61L40.4263 110.52L39.5535 103.156L48.5652 100.245L49.4388 107.61Z" fill="#E03268"/>
<path d="M39.6822 109.335L40.4733 110.081L49.0993 107.321L48.3239 100.382L47.7156 100.096L39.6822 109.335Z" fill="#DAEEF7"/>
<g style="mix-blend-mode:multiply">
<path d="M49.0992 107.321L48.4842 106.724L47.3589 105.345L47.4271 101.547L47.7155 100.096L48.3269 100.37L49.0992 107.321Z" fill="#DAEEF7"/>
</g>
<path d="M48.4844 106.724L39.4719 109.634L38.6845 102.801L47.697 99.8908L48.4844 106.724Z" fill="#FF5B7E"/>
<path d="M44.0618 92.3204C43.8528 92.6047 43.6618 92.8999 43.4872 93.2051C43.3134 93.5111 43.1568 93.8281 43.0295 94.1592C42.9014 94.4895 42.804 94.8332 42.7493 95.1869C42.6939 95.5415 42.6879 95.9044 42.7261 96.2698C42.6249 95.9194 42.595 95.5398 42.6302 95.1685C42.6624 94.7964 42.7583 94.4335 42.8879 94.0906C43.022 93.7494 43.1898 93.4258 43.3883 93.129C43.5861 92.8321 43.8071 92.5537 44.0626 92.3195L44.0618 92.3204Z" fill="#DAEEF7"/>
<path d="M42.1918 104.741C40.6051 101.742 41.3393 98.0936 41.9671 96.0767C40.7212 95.6285 39.5675 94.6166 39.1592 94.2337C36.6263 100.617 40.916 106.079 40.916 106.079L40.9242 106.07C41.0059 106.275 41.0658 106.459 41.0658 106.459C42.0772 108.5 42.1214 108.467 42.1941 108.439C42.2668 108.409 42.0667 107.439 42.1559 107.442C42.245 107.444 42.8833 108.613 42.9305 108.504C42.977 108.394 42.5057 107.234 42.5747 107.215C42.6436 107.195 43.2444 108.334 43.377 108.235C43.5096 108.137 42.8129 106.915 42.9463 106.885C43.0796 106.855 43.7643 108.127 43.8722 108.016C43.9629 107.923 43.2279 106.478 42.992 106.021C42.9612 105.962 43.0024 105.889 43.0631 105.893C44.0018 105.954 44.0775 105.897 44.0595 105.781C44.0468 105.698 42.92 105.112 42.1918 104.741Z" fill="#FFC0BB"/>
<path d="M52.8079 87.8834C50.863 95.697 53.2109 98.0025 53.2206 98.0627L52.8693 99.8807C52.8693 99.8807 48.0791 96.4045 51.1155 87.1417C51.2009 86.8816 51.4549 86.7453 51.6804 86.8615L52.5891 87.3315C52.7756 87.4285 52.8633 87.6618 52.8079 87.8834Z" fill="#E03268"/>
<path d="M57.0537 106.964C57.0537 106.964 56.9922 106.791 56.9338 106.586C56.9338 106.586 56.9338 106.585 56.9338 106.584H56.9331L56.8416 105.826C56.7847 104.109 56.5292 98.0176 55.6887 94.4335C55.0489 95.0005 53.6906 96.0717 52.3721 96.264C53.1984 98.1932 54.929 102.639 55.2294 106.682C54.9245 107.453 54.514 108.519 54.5492 108.582C54.6024 108.677 54.6878 108.664 55.3186 107.963C55.3598 107.918 55.4295 107.94 55.4415 108.004C55.5314 108.494 55.8235 110.033 55.9404 110.036C56.079 110.039 55.8483 108.656 55.9606 108.584C56.0723 108.512 56.267 109.867 56.4161 109.843C56.5652 109.82 56.3509 108.592 56.4101 108.557C56.4701 108.523 56.7885 109.676 56.8829 109.721C56.978 109.766 56.772 108.49 56.8342 108.425C56.8963 108.361 57.3009 109.189 57.3683 109.159C57.4357 109.128 57.4859 109.12 57.0544 106.964H57.0537Z" fill="#FFC0BB"/>
<path d="M42.1963 79.6908C42.1963 79.6908 41.9146 73.8816 47.7147 73.4978C47.7147 73.4978 47.5342 79.205 42.9964 79.7586L42.6466 79.0001L42.1963 79.6908Z" fill="#FF5500"/>
<path d="M47.7146 73.497C47.7146 73.497 52.4194 73.2027 52.6689 79.6324C52.6689 79.6324 52.3272 79.6048 52.0725 79.7578C52.0725 79.7578 48.3462 78.7175 47.4217 74.687L47.7153 73.497H47.7146Z" fill="#FF5500"/>
<path d="M41.1296 133.42C40.1841 133.526 39.7376 133.296 39.5451 132.978L38.9045 133.445C38.6506 133.625 38.7652 134.064 39.0664 134.064H43.228C43.3748 134.064 43.494 133.932 43.494 133.768V132.512C43.2265 132.819 42.5957 133.255 41.1296 133.419V133.42Z" fill="#07085B"/>
<path d="M53.8369 133.42C54.7823 133.526 55.2288 133.296 55.4214 132.978L56.0619 133.445C56.3159 133.625 56.2013 134.064 55.9001 134.064H51.7385C51.5916 134.064 51.4725 133.932 51.4725 133.768V132.512C51.74 132.819 52.3708 133.255 53.8369 133.419V133.42Z" fill="#07085B"/>
<g style="mix-blend-mode:multiply">
<path d="M140.902 91.8329L145.711 92.2635L144.159 96.606L141.732 96.3886L140.721 100.008C140.475 99.8823 140.293 99.787 140.257 99.7603C140.183 99.7059 139.915 97.9097 139.679 96.213L140.902 91.8329Z" fill="#DAEEF7"/>
</g>
<path d="M143.647 131.763V133.656C143.647 133.812 143.76 133.938 143.899 133.938H147.857C148.143 133.938 148.253 133.519 148.011 133.347L145.791 131.762C145.791 131.762 144.919 132.475 143.647 131.762V131.763Z" fill="#E03268"/>
<path d="M135.878 51.558C135.82 51.5831 135.76 51.5271 135.772 51.4593C135.871 50.9342 136.174 49.2785 136.06 49.2199C135.924 49.1505 135.622 50.6223 135.484 50.6399C135.346 50.6574 135.674 49.23 135.518 49.1815C135.363 49.133 135.103 50.4458 135.031 50.4509C134.959 50.4559 135.087 49.1689 135.01 49.0786C134.934 48.9891 134.647 50.3447 134.562 50.379C134.476 50.4132 134.395 49.4039 134.317 49.4014C134.238 49.3989 134.186 49.383 133.786 51.7127C133.786 51.7127 133.762 52.5665 133.627 52.7672L133.928 53.4537L134.861 53.488C134.861 53.488 136.89 51.4393 136.873 51.3147C136.857 51.1959 136.767 51.1675 135.877 51.5572L135.878 51.558Z" fill="#FFC0BB"/>
<path d="M145.488 52.0739C145.529 52.1258 145.606 52.1066 145.622 52.0397C145.749 51.5212 146.156 49.8939 146.281 49.8998C146.43 49.9065 146.098 51.3707 146.213 51.4568C146.329 51.5429 146.62 50.1055 146.778 50.1414C146.936 50.1774 146.631 51.4786 146.694 51.5195C146.756 51.5605 147.167 50.3497 147.272 50.3087C147.377 50.2677 147.078 51.6199 147.141 51.6943C147.203 51.7679 147.687 50.9108 147.758 50.9492C147.829 50.9869 147.882 50.9994 147.287 53.2773C147.287 53.2773 146.959 54.0491 146.998 54.2966L146.449 54.754L145.604 54.31C145.604 54.31 144.636 51.4543 144.701 51.3523C144.764 51.2545 144.854 51.2754 145.488 52.0748V52.0739Z" fill="#FFC0BB"/>
<path d="M138.067 70.7308L138.082 74.7146L134.615 74.1183L135.194 69.6387L138.067 70.7308Z" fill="#FFC0BB"/>
<path opacity="0.6" d="M134.928 71.7008L135.194 69.6387L138.071 71.1088L138.072 71.8948C137.379 72.0838 136.082 72.2536 134.927 71.7008H134.928Z" fill="#FC8D84"/>
<path d="M131.804 131.553V133.628C131.804 133.799 131.68 133.938 131.526 133.938H127.173C126.857 133.938 126.737 133.479 127.003 133.29L129.446 131.553C129.446 131.553 130.404 132.334 131.804 131.553Z" fill="#E03268"/>
<path d="M127.828 96.2933C127.837 95.8492 126.802 97.1579 126.821 96.8033C127.227 89.4337 140.127 95.6126 140.127 95.6126L143.276 98.1915L146.831 132.346C146.831 132.346 144.901 132.97 143.631 132.46L135.759 103.192L134.791 102.776C134.791 102.776 130.485 99.4232 127.827 96.2924L127.828 96.2933Z" fill="#07085B"/>
<path d="M126.795 97.3736C126.792 97.4656 126.789 97.561 126.786 97.658C126.789 97.561 126.792 97.4656 126.795 97.3736Z" fill="#06BFAD"/>
<path d="M126.786 97.6948C126.783 97.7951 126.781 97.898 126.778 98.0025C126.781 97.8971 126.783 97.7951 126.786 97.6948Z" fill="#06BFAD"/>
<path d="M126.823 95.1293C129.481 98.2601 134.792 102.777 134.792 102.777L131.799 132.348C131.799 132.348 129.666 132.801 128.447 132.064C128.447 132.064 126.65 103.917 126.823 95.1301L126.823 95.1293Z" fill="#07085B"/>
<path d="M146.831 132.347C146.831 132.347 146 132.615 145.069 132.656C146 132.616 146.831 132.347 146.831 132.347Z" fill="#06BFAD"/>
<path d="M144.003 132.575C144.089 132.594 144.176 132.61 144.265 132.623C144.176 132.61 144.089 132.594 144.003 132.575Z" fill="#06BFAD"/>
<path d="M145.069 132.655C144.848 132.664 144.621 132.661 144.398 132.639C144.621 132.66 144.848 132.664 145.069 132.655Z" fill="#06BFAD"/>
<path d="M143.276 98.1923L143.783 103.067C142.44 103.647 139.168 104.267 136.703 98.2467C135.925 96.3476 135.725 94.9812 135.869 94.0003C138.23 94.7053 140.128 95.6134 140.128 95.6134L143.277 98.1923H143.276Z" fill="#050645"/>
<path d="M131.44 78.2953C131.589 78.2953 133.823 72.6425 133.823 72.6425C135.734 74.1385 138.328 73.0999 138.328 73.0999C138.328 73.0999 148.767 94.4219 141.766 97.7467C134.766 101.071 128.163 97.0267 128.163 97.0267C128.163 97.0267 126.674 92.7043 126.674 92.5378C126.674 92.3714 131.291 78.2953 131.44 78.2953Z" fill="#DAEEF7"/>
<path d="M145.043 54.3551C145.043 54.3551 145.496 64.4709 144.646 66.3256C141.828 72.4769 138.328 73.1007 138.328 73.1007C138.328 73.1007 137.124 94.6166 138.117 99.7703C138.117 99.7703 141.419 100.907 146.284 98.3571C146.284 98.3571 142.561 81.6761 142.76 79.5705C142.76 79.5705 148.718 73.6409 148.916 66.6585C149.115 59.676 147.476 53.4687 147.476 53.4687L145.044 54.3551H145.043Z" fill="#55769F"/>
<path d="M128.982 98.9943C128.982 98.9943 129.354 90.9866 130.993 83.3938C132.631 75.8017 133.822 72.6425 133.822 72.6425C131.625 69.9406 131.99 67.4989 132.184 64.3296C132.407 60.672 135.61 53.3567 135.61 53.3567L133.45 51.7771C123.098 65.6592 128.833 76.7149 128.833 76.7149C128.833 76.7149 124.96 92.0102 124.439 96.6654C124.439 96.6654 126.499 97.995 128.982 98.9926V98.9943Z" fill="#55769F"/>
<path d="M142.659 79.5471C142.535 79.4484 142.388 79.2979 142.244 79.1056C141.805 78.5144 141.577 77.8488 141.42 77.1045C141.515 77.4223 141.769 78.3455 142.306 79.0471C142.546 79.3531 142.673 79.4568 142.79 79.5404C142.771 79.5597 142.761 79.5705 142.761 79.5705C142.759 79.5847 142.758 79.599 142.758 79.614C142.62 79.6458 142.378 79.655 141.971 79.4075C141.718 79.2595 141.518 79.0755 141.309 78.8773C141.446 78.986 141.728 79.2143 141.995 79.354C142.181 79.456 142.453 79.563 142.66 79.5463L142.659 79.5471Z" fill="white"/>
<path d="M128.912 76.6647C129.09 76.5392 129.243 76.3595 129.385 76.1788C129.824 75.6035 130.065 74.9228 130.271 74.2363C130.114 74.9764 129.888 75.6437 129.447 76.2374C129.303 76.4289 129.158 76.5786 129.031 76.6789C129.128 76.6864 129.245 76.6655 129.323 76.6413C129.451 76.6053 129.577 76.5526 129.696 76.4866C129.945 76.3561 130.191 76.1621 130.383 76.0099C130.198 76.1855 129.985 76.3854 129.72 76.5401C129.601 76.6128 129.473 76.6739 129.34 76.7182C129.205 76.7558 129.068 76.7884 128.915 76.7425L128.836 76.7182L128.911 76.6647H128.912Z" fill="white"/>
<path d="M133.094 62.6028L132.885 65.3364L133.272 65.6082L133.987 62.2792L133.094 62.6028Z" fill="#07085B"/>
<path d="M133.615 65.0546C133.722 65.6734 133.448 66.2529 133.005 66.3483C132.561 66.4436 132.115 66.018 132.008 65.3992C131.902 64.7804 132.175 64.2009 132.619 64.1064C133.062 64.011 133.509 64.4367 133.615 65.0555V65.0546Z" fill="#F99893"/>
<path d="M132.98 67.5817C132.866 66.7906 132.883 65.9803 132.946 65.2854C132.959 65.1366 132.965 64.9869 132.968 64.8364C132.981 64.2309 133.094 63.6113 133.332 63.0017C134.095 61.0382 135.959 59.8475 137.862 60.1109C140.425 60.4663 142.114 63.1581 141.621 65.9101C141.919 65.8039 142.227 65.8323 142.468 66.0238C142.931 66.3909 142.973 67.2121 142.562 67.8585C142.151 68.5049 141.442 68.7306 140.979 68.3635C140.915 68.3125 140.859 68.2523 140.811 68.1854C140.177 70.4792 138.134 71.9024 136.08 71.404C134.52 71.0252 133.233 69.5811 132.979 67.5825L132.98 67.5817Z" fill="#FFC0BB"/>
<path d="M137.719 65.395C137.619 65.6776 137.802 65.9828 138.079 65.982C138.23 65.982 138.369 65.8741 138.426 65.7169C138.527 65.4334 138.344 65.1274 138.065 65.129C137.914 65.1299 137.775 65.2378 137.718 65.395H137.719Z" fill="#333333"/>
<path d="M134.473 64.8523C134.372 65.1349 134.556 65.441 134.834 65.4393C134.985 65.4384 135.124 65.3306 135.18 65.1734C135.281 64.8907 135.098 64.5855 134.82 64.5872C134.669 64.5872 134.529 64.6959 134.473 64.8531V64.8523Z" fill="#333333"/>
<path d="M137.214 68.3727C137.012 68.4848 136.786 68.5675 136.601 68.6077C136.389 68.6537 136.174 68.6679 135.962 68.6353C135.751 68.6035 135.548 68.5216 135.362 68.402C135.178 68.2799 135.013 68.1202 134.864 67.9421C135.016 68.1804 135.153 68.3192 135.332 68.458C135.516 68.5926 135.712 68.6796 135.953 68.7206C136.174 68.7532 136.401 68.7348 136.614 68.6729C136.828 68.6102 137.034 68.514 137.214 68.3744L137.214 68.3727Z" fill="#F99893"/>
<path d="M137.411 64.5311C137.609 64.4918 137.796 64.4667 137.981 64.4634C138.164 64.46 138.342 64.4818 138.511 64.5336C138.679 64.5871 138.845 64.6574 138.998 64.7694C139.206 64.9016 139.356 65.0638 139.465 65.1441C139.395 64.9476 139.284 64.7143 139.13 64.5771C138.982 64.4115 138.785 64.2978 138.581 64.2351C138.375 64.1724 138.155 64.1707 137.953 64.2234C137.751 64.2786 137.56 64.3756 137.411 64.5311Z" fill="#07085B"/>
<path d="M135.894 64.2526C135.797 64.0519 135.644 63.8905 135.469 63.7668C135.292 63.6447 135.084 63.5677 134.87 63.5535C134.658 63.5402 134.439 63.5769 134.252 63.6815C134.068 63.7567 133.894 63.939 133.772 64.0987C133.909 64.0586 134.08 63.9633 134.322 63.9114C134.499 63.8596 134.677 63.8529 134.852 63.8621C135.027 63.8738 135.202 63.9164 135.374 63.985C135.547 64.0536 135.717 64.1447 135.895 64.2534L135.894 64.2526Z" fill="#07085B"/>
<path d="M136.556 64.7895C136.377 64.9768 136.213 65.18 136.058 65.3908C135.903 65.6023 135.759 65.8239 135.631 66.0606C135.557 66.2027 135.465 66.3917 135.443 66.5531C135.431 66.6426 135.437 66.7296 135.571 66.8759C135.658 66.9796 135.757 67.0641 135.858 67.1418C135.961 67.2179 136.067 67.289 136.177 67.3467C135.992 67.1694 135.805 66.993 135.658 66.7898C135.635 66.7588 135.59 66.6852 135.574 66.6443C135.566 66.6142 135.58 66.5481 135.6 66.4921C135.64 66.375 135.696 66.2579 135.758 66.1442C135.879 65.9142 136.016 65.6918 136.15 65.4669C136.285 65.2428 136.422 65.0187 136.554 64.7879L136.556 64.7895Z" fill="#F99893"/>
<path d="M133.551 59.6844C133.551 59.6844 132.264 59.4076 133.849 58.5404C135.433 57.6733 139.319 57.1682 141.35 59.1108C141.35 59.1108 142.033 58.1324 142.646 58.5622C143.26 58.992 142.007 59.467 142.007 59.467C142.007 59.467 142.865 59.6518 143.03 60.1828C143.152 60.5758 142.628 60.4596 142.346 60.3718C142.812 60.5858 144.183 62.0308 142.403 65.9778C142.088 65.8131 140.051 62.5694 140.051 62.5694C140.051 62.5694 135.956 64.0712 136.702 62.8252C136.702 62.8252 131.93 64.1649 133.086 61.7507C133.086 61.7507 131.327 61.4555 133.551 59.6836V59.6844Z" fill="#07085B"/>
<path d="M142.402 65.9778C142.402 65.9778 142.094 65.7135 141.622 65.9092C141.15 66.1049 140.849 67.2864 140.849 67.2864C140.849 67.2864 139.304 68.6988 140.057 62.5426C140.798 56.4942 141.823 63.5494 141.823 63.5494L142.402 65.9769V65.9778Z" fill="#07085B"/>
<path d="M131.818 46.8618L131.15 46.7882C131.267 46.7171 131.408 46.682 131.557 46.6979L148.301 48.5359C149.177 48.6321 149.826 49.4131 149.75 50.2794L149.662 51.2762C149.586 52.1434 148.813 52.768 147.937 52.6718L131.381 50.8489L131.819 46.8618H131.818Z" fill="#E03268"/>
<path d="M148.256 51.1223L148.344 50.1255C148.421 49.2584 147.773 48.4782 146.896 48.382L147.256 48.4213C148.131 48.5175 148.78 49.2985 148.704 50.1648L148.616 51.1616C148.54 52.0288 147.767 52.6534 146.892 52.5573L146.536 52.518C147.411 52.6116 148.18 51.9878 148.256 51.1223Z" fill="#FEB546"/>
<path d="M144.335 50.6917L144.422 49.6949C144.499 48.8277 143.851 48.0475 142.974 47.9514L143.334 47.9907C144.209 48.0868 144.858 48.867 144.782 49.7342L144.694 50.731C144.618 51.5981 143.845 52.2228 142.97 52.1266L142.614 52.0873C143.489 52.181 144.258 51.5563 144.335 50.6917Z" fill="#FEB546"/>
<path d="M141.336 47.775C142.173 47.867 142.794 48.6137 142.72 49.4424L142.62 50.5688C142.548 51.3975 141.809 51.9954 140.972 51.9034L130.548 50.7595L130.57 50.5078L130.614 50.5128L133.285 50.5554L134.004 48.5351C134.004 48.5351 133.071 47.2724 133.006 47.2356C132.942 47.1989 130.933 46.8869 130.933 46.8869L130.89 46.8819L130.912 46.6311L141.336 47.775H141.336Z" fill="#FF5B7E"/>
<path d="M131.407 48.7617C131.514 47.5458 130.931 46.8868 130.931 46.8868L141.1 48.0032C141.87 48.0877 142.439 48.7734 142.372 49.5352L142.296 50.4023C142.229 51.1633 141.551 51.7127 140.781 51.6282L130.612 50.5119C130.612 50.5119 131.272 50.2928 131.407 48.7617Z" fill="#DAEEF7"/>
<g style="mix-blend-mode:multiply">
<path d="M142.372 49.5352L142.295 50.4024C142.286 50.5161 142.261 50.6256 142.226 50.7285C141.956 49.8605 141.369 48.9883 140.14 48.5945C137.271 47.6738 130.93 46.8877 130.93 46.8877L141.1 48.0041C141.869 48.0885 142.438 48.7742 142.372 49.536V49.5352Z" fill="#DAEEF7"/>
</g>
<path d="M111.511 75.5608L110.82 77.2801C110.763 77.4223 110.82 77.5887 110.948 77.6522L114.554 79.4568C114.815 79.5872 115.067 79.2569 114.91 78.9902L113.514 76.5626C113.514 76.5626 112.411 76.7884 111.511 75.56V75.5608Z" fill="#55769F"/>
<path d="M106.928 75.5608L106.238 77.2801C106.181 77.4223 106.238 77.5887 106.365 77.6522L109.971 79.4568C110.232 79.5872 110.485 79.2569 110.327 78.9902L108.932 76.5626C108.932 76.5626 107.828 76.7884 106.928 75.56V75.5608Z" fill="#55769F"/>
<path d="M99.1378 28.1597L98.7542 30.8448L97.9436 27.265C97.9436 27.265 99.0793 26.6495 99.1295 26.8736C99.1797 27.0977 99.1378 28.1597 99.1378 28.1597Z" fill="#07085B"/>
<path d="M92.6919 33.9389L92.3412 38.5799L96.0107 38.3843L95.5874 34.2742L92.6919 33.9389Z" fill="#FFC0BB"/>
<path d="M95.7891 36.2293L95.5875 34.2742L92.692 33.9389L92.5706 35.5461C93.146 36.1867 94.1813 36.8498 95.7891 36.2293Z" fill="#F99893"/>
<path d="M98.0388 30.8114C97.8178 31.3206 97.9354 31.8934 98.3003 32.0899C98.6651 32.2873 99.1401 32.0339 99.3611 31.5246C99.5821 31.0154 99.4645 30.4426 99.0996 30.2461C98.7348 30.0496 98.2598 30.3021 98.0388 30.8114Z" fill="#F99893"/>
<path d="M98.5715 31.1843C98.591 31.0514 98.6165 30.9201 98.6449 30.7896C98.7588 30.2611 98.7895 29.695 98.7101 29.1046C98.4554 27.2056 97.0859 25.6912 95.3816 25.4286C93.0854 25.0741 91.0634 26.9723 90.9203 29.4851C90.6843 29.3162 90.4116 29.261 90.1621 29.3647C89.6849 29.5629 89.4781 30.2645 89.7006 30.9309C89.9231 31.5974 90.4902 31.9762 90.9682 31.778C91.0341 31.7504 91.0948 31.712 91.1503 31.6668C91.2237 33.8193 92.7003 35.5812 94.5845 35.679C95.5059 35.7275 96.3637 35.3688 97.029 34.7408C97.934 33.9982 98.3917 32.4228 98.5708 31.1852L98.5715 31.1843Z" fill="#FFC0BB"/>
<path d="M95.7136 29.7811C95.721 30.032 95.7225 30.2762 95.7345 30.5162C95.7488 30.7503 95.7712 31.0012 95.8559 31.1667C95.9413 31.3005 96.0095 31.3858 96.0117 31.5497C96.017 31.7153 95.9383 31.8642 95.8409 31.9545C95.6409 32.1426 95.3809 32.1602 95.1659 32.1016C95.3854 32.0582 95.5952 31.9745 95.7173 31.8148C95.7742 31.7354 95.8117 31.6467 95.7982 31.5631C95.7892 31.4711 95.7638 31.4527 95.6641 31.2989C95.5937 31.1651 95.5712 31.0296 95.5577 30.8983C95.5465 30.767 95.5487 30.6391 95.5592 30.512C95.581 30.2603 95.6289 30.0136 95.7136 29.7803V29.7811Z" fill="#F99893"/>
<path d="M94.4105 30.0513C94.4352 30.3113 94.2299 30.5212 93.9999 30.4685C93.8568 30.4359 93.7452 30.2988 93.7302 30.1366C93.7063 29.8773 93.9108 29.6691 94.14 29.7201C94.2831 29.7519 94.3955 29.889 94.4105 30.0513Z" fill="#333333"/>
<path d="M97.3376 30.4209C97.3615 30.6801 97.157 30.8883 96.9278 30.8373C96.7847 30.8055 96.673 30.6684 96.6573 30.5062C96.6326 30.2461 96.8379 30.037 97.0679 30.0889C97.211 30.1215 97.3226 30.2586 97.3383 30.4209H97.3376Z" fill="#333333"/>
<path d="M93.8382 32.6987C93.9281 32.7857 94.0217 32.8668 94.1206 32.9387C94.218 33.0123 94.3199 33.0792 94.4255 33.1361C94.6361 33.2498 94.8593 33.3326 95.0901 33.3635C95.3201 33.3962 95.5545 33.3736 95.7793 33.3067C96.004 33.2364 96.2183 33.121 96.4206 32.9814C96.2003 33.1879 96.019 33.2908 95.7995 33.3803C95.5688 33.4664 95.338 33.4948 95.0788 33.4631C94.8368 33.4279 94.6031 33.3376 94.3933 33.2038C94.1843 33.07 93.9918 32.9036 93.8375 32.6987H93.8382Z" fill="#F99893"/>
<path d="M94.8423 29.2502C94.6678 29.19 94.5044 29.144 94.3419 29.1164C94.1801 29.0888 94.0212 29.0838 93.8669 29.1047C93.7133 29.1272 93.5582 29.1649 93.4099 29.2401C93.296 29.2794 93.0196 29.4609 92.9477 29.4969C93.0323 29.3229 93.1552 29.1373 93.3065 29.0344C93.4571 28.9065 93.6459 28.8337 93.8369 28.807C94.0287 28.7811 94.225 28.8128 94.3996 28.8906C94.5726 28.97 94.7314 29.0879 94.8431 29.2518L94.8423 29.2502Z" fill="#07085B"/>
<path d="M96.3501 29.4391C96.488 29.3028 96.6648 29.2217 96.8483 29.1807C97.0326 29.1423 97.2304 29.154 97.4147 29.2209C97.5975 29.2886 97.7698 29.4015 97.8957 29.5595C98.0268 29.6933 98.1144 29.9032 98.1669 30.0914C98.1017 30.0404 97.8627 29.8029 97.7578 29.7393C97.6252 29.6331 97.4799 29.5629 97.3331 29.5077C97.1847 29.4533 97.0281 29.4241 96.8648 29.4165C96.7008 29.409 96.5322 29.4182 96.3509 29.44L96.3501 29.4391Z" fill="#07085B"/>
<path d="M94.7126 55.7115C94.7126 55.7115 93.9477 61.5057 98.9627 62.515C103.978 63.5243 110.219 63.2233 110.219 63.2233L111.087 76.5325L113.706 76.6814C113.706 76.6814 120.448 58.1884 111.116 55.2976L102.729 55.3436L99.2766 55.0684C99.2766 55.0684 95.7824 54.1051 95.7412 54.2883C95.7 54.4722 94.7958 55.8026 94.7134 55.7107L94.7126 55.7115Z" fill="#070852"/>
<path d="M90.1033 55.7417C90.1033 55.7417 89.3384 61.5358 94.3534 62.5451C99.3691 63.5545 105.61 63.2534 105.61 63.2534L106.478 76.5627L109.096 76.7115C109.096 76.7115 115.838 58.2185 106.506 55.3277L98.1202 55.3737L94.6673 55.0986C94.6673 55.0986 91.1731 54.1353 91.1319 54.3184C91.0907 54.5024 90.1865 55.8328 90.1041 55.7408L90.1033 55.7417Z" fill="#10116B"/>
<path d="M96.4204 36.7293C96.4204 36.7293 99.8733 37.2185 100.751 38.0137C101.628 38.809 105.848 50.4952 105.848 50.4952L102.34 55.0843L94.8846 55.1454C94.8846 55.1454 89.2936 58.5103 85.7852 55.3285C82.2768 52.1467 84.0861 41.0726 86.1141 38.6869C88.1421 36.3012 91.7598 36.3622 91.7598 36.3622C91.7598 36.3622 95.0487 38.9319 96.4189 36.7293H96.4204Z" fill="#FF5B7E"/>
<path d="M89.7335 42.5419C89.8571 43.1791 89.9327 43.8255 89.9867 44.4736C90.0166 44.798 90.0294 45.1233 90.0459 45.4486C90.0548 45.7747 90.0616 46.1008 90.0571 46.427C90.0459 47.0792 90.0137 47.734 89.9133 48.3795C89.8151 49.0226 89.6728 49.6682 89.4046 50.2502C89.5851 49.6297 89.6743 48.9925 89.7387 48.3528C89.8024 47.7131 89.8241 47.0675 89.8316 46.4228C89.8436 45.7781 89.8294 45.1317 89.8114 44.4844C89.7911 43.8372 89.7642 43.19 89.7335 42.5402V42.5419Z" fill="white"/>
<path d="M100.066 42.1138C100.224 43.0612 100.391 44.0061 100.56 44.9486C100.733 45.8901 100.913 46.83 101.118 47.7633C101.32 48.6965 101.544 49.623 101.815 50.532C101.952 50.9861 102.103 51.4343 102.281 51.8691C102.456 52.3048 102.665 52.7271 102.943 53.0959C102.626 52.7647 102.393 52.3458 102.182 51.9235C101.978 51.4953 101.802 51.0505 101.65 50.5972C101.495 50.1448 101.361 49.6841 101.235 49.2216C101.114 48.7575 101.002 48.2901 100.898 47.8218C100.799 47.3519 100.704 46.8802 100.619 46.4078C100.536 45.9336 100.455 45.4603 100.387 44.9837C100.246 44.0321 100.136 43.0746 100.065 42.1138H100.066Z" fill="white"/>
<path d="M107.543 44.2277C106.905 43.1197 101.68 41.2382 101.68 41.2382V43.1139L106.999 45.1894L107.543 44.2277Z" fill="#EDEDED"/>
<path d="M107.167 44.1524L101.099 41.0291V42.2416L107.017 44.6249L107.167 44.1524Z" fill="white"/>
<path d="M106.83 44.1524L100.425 41.4472V43.5378L106.766 44.6249L106.83 44.1524Z" fill="#EDEDED"/>
<path d="M107.543 43.9383C107.543 43.9383 108.778 40.7147 109.284 40.0457C109.284 42.1664 108.516 44.8331 108.516 44.8331L107.543 43.9383Z" fill="white"/>
<path d="M108.083 44.0813L109.58 39.8584V41.8704L108.551 44.6249L108.083 44.0813Z" fill="#EDEDED"/>
<path d="M108.551 44.1525L110.183 40.0466V41.51L108.551 44.1525Z" fill="white"/>
<path d="M108.551 56.8036L110.608 52.8483V40.1971L108.551 44.1524V56.8036Z" fill="#26426E"/>
<path d="M99.0726 54.892L106.357 56.8036V44.1524L99.0726 42.2408V54.892Z" fill="#55769F"/>
<path d="M106.357 44.1524C106.999 43.8096 108.342 43.9308 108.551 44.1524C108.441 44.8757 106.52 45.0179 106.357 44.1524Z" fill="#E0E0E0"/>
<path d="M106.357 56.8036C106.357 57.113 108.561 57.113 108.561 56.8036V44.1525C108.338 44.5204 106.606 44.5104 106.357 44.1525V56.8036Z" fill="#3A5782"/>
<path d="M101.801 52.4394C101.779 52.2454 100.462 52.0296 99.9777 52.0012C99.6106 51.9803 97.1788 51.8892 96.3517 51.8474L96.4124 52.0848L96.3997 53.1335L96.2641 53.8284C96.99 53.8794 98.7641 53.9571 99.1334 54.0391C99.6271 54.1478 100.483 54.5634 100.483 54.5634C100.483 54.5634 100.839 54.4731 100.386 54.2548C100.023 54.0801 99.7679 53.8091 99.6601 53.6737C99.5979 53.5959 99.6653 53.4579 99.7103 53.4713C100.942 53.8317 101.069 53.8911 101.069 53.8911C101.069 53.8911 102.516 53.8819 101.077 53.519C100.214 53.3015 99.9043 53.1744 99.8279 53.0666C99.7949 53.0206 99.8534 52.8642 99.9058 52.86C100.653 52.8082 101.995 53.1042 101.627 52.9102C101.328 52.7521 100.384 52.579 100.017 52.513C99.9942 52.5088 99.9575 52.3566 100.058 52.3466C100.77 52.2805 101.821 52.6175 101.8 52.4377L101.801 52.4394Z" fill="#FFC0BB"/>
<path d="M88.8907 50.0904C89.1942 50.1724 89.4931 50.2677 89.7972 50.338C90.0992 50.4182 90.4063 50.4768 90.7097 50.5487C91.321 50.6733 91.9339 50.7812 92.5489 50.8773C93.1647 50.9676 93.7806 51.0504 94.3986 51.1173C95.0145 51.1859 95.64 51.2436 96.2498 51.2821L96.3315 51.2871L96.3495 51.3665C96.4019 51.5973 96.4356 51.8223 96.4618 52.0531C96.4873 52.283 96.4986 52.5147 96.4978 52.7463C96.4963 52.9779 96.4783 53.2104 96.4439 53.4403C96.4064 53.6695 96.345 53.8944 96.2633 54.1093L96.2566 54.1277L96.2431 54.1378L95.5658 54.6445C95.3403 54.8134 95.1141 54.9815 94.8856 55.1462C95.0976 54.9564 95.3119 54.7699 95.5276 54.5843L96.1727 54.0282L96.1524 54.0566C96.2206 53.8484 96.2678 53.6335 96.294 53.4136C96.318 53.1937 96.3292 52.9712 96.3232 52.748C96.3165 52.5255 96.297 52.3031 96.2693 52.0815C96.2401 51.8616 96.2011 51.6383 96.1494 51.4301L96.2491 51.5145C95.9269 51.5053 95.622 51.4819 95.3089 51.4568C94.9972 51.4309 94.6863 51.4033 94.3762 51.3674C93.7551 51.2954 93.1355 51.2093 92.519 51.0998C91.9024 50.9885 91.2896 50.8548 90.682 50.6942C90.3793 50.6081 90.0767 50.5244 89.7785 50.4199C89.4781 50.3254 89.1837 50.2084 88.8907 50.0921V50.0904Z" fill="white"/>
<path d="M99.2112 25.6201C99.2112 25.6201 100.363 25.6611 99.1543 24.5748C97.9459 23.4886 94.7027 22.2142 92.6238 23.4392C92.6238 23.4392 92.208 22.4525 91.6071 22.6883C91.0063 22.9241 91.9982 23.6023 91.9982 23.6023C91.9982 23.6023 91.2311 23.5747 90.9966 23.9953C90.8235 24.3056 91.2932 24.3198 91.5502 24.3056C91.1134 24.3884 89.4383 25.5691 90.2789 29.3388C90.5778 29.2652 92.2807 26.5098 92.2807 26.5098C92.2807 26.5098 96.1741 28.9249 95.789 27.0049C95.789 27.0049 99.8233 29.8146 99.2509 27.4941C99.2509 27.4941 100.811 27.622 99.212 25.6209L99.2112 25.6201Z" fill="#07085B"/>
<path d="M90.2751 29.3614C90.2751 29.3614 90.5972 29.2352 90.9441 29.5421C91.2909 29.849 91.2527 30.9285 91.2527 30.9285C91.2527 30.9285 92.9076 32.1201 92.7331 27.0786C92.5473 21.715 91.3524 27.5084 91.3524 27.5084L90.2751 29.3606V29.3614Z" fill="#07085B"/>
<path d="M72.3093 129.91L73 131.629C73.0569 131.772 73 131.938 72.8726 132.002L69.2661 133.806C69.0054 133.937 68.753 133.606 68.9103 133.34L70.306 130.912C70.306 130.912 71.4095 131.138 72.3093 129.909V129.91Z" fill="#07085B"/>
<path d="M76.9824 129.705L77.6731 131.425C77.7301 131.567 77.6731 131.733 77.5458 131.797L73.9393 133.601C73.6778 133.732 73.4261 133.401 73.5834 133.135L74.9791 130.707C74.9791 130.707 76.0827 130.933 76.9824 129.704V129.705Z" fill="#07085B"/>
<path d="M81.198 74.0306C81.198 74.0306 77.2671 73.2905 75.9486 78.1924L77.5765 80.9118C77.5765 80.9118 80.9905 79.4476 81.004 79.3046C81.0175 79.1616 81.198 74.0306 81.198 74.0306Z" fill="#FF5500"/>
<path d="M87.5249 76.239C87.5249 76.239 88.6712 78.164 89.2563 78.9266C90.7276 80.8466 90.9172 80.2437 91.8312 81.8952C92.8178 83.6772 91.8199 84.7936 91.2521 85.307C90.6842 85.8205 91.6341 87.7203 90.5763 88.7857C89.1919 90.1797 87.9115 88.8651 86.9593 89.6462C86.0071 90.4272 85.7989 91.5845 83.5416 91.3663C81.2844 91.1472 81.3061 82.9096 81.3061 82.9096C81.3061 82.9096 83.1535 78.542 83.227 78.506C83.3004 78.4701 87.5249 76.2399 87.5249 76.2399V76.239Z" fill="#FF5500"/>
<path d="M75.9488 78.1933C75.9488 78.1933 75.814 79.7052 75.366 80.5757C74.2392 82.7666 73.6324 82.0491 73.0076 83.8603C72.3333 85.8154 73.5005 86.706 74.1433 87.0932C74.7861 87.4803 74.1688 89.5441 75.3847 90.372C76.9767 91.4557 78.0165 89.8987 79.0818 90.469C80.1472 91.0393 80.5442 92.1339 82.7265 91.4515C84.9081 90.7692 83.5184 82.6787 83.5184 82.6787C83.5184 82.6787 80.9772 78.7694 80.8993 78.7494C80.8214 78.7293 75.9488 78.1941 75.9488 78.1941V78.1933Z" fill="#FF5500"/>
<path d="M81.6522 87.9487C81.6522 87.9487 85.4198 87.1752 87.1518 87.2404C88.8839 87.3056 86.1022 92.3338 86.1022 92.3338L83.2726 92.404C83.2726 92.404 81.5383 90.2416 81.6522 89.9899C81.7661 89.7382 81.6469 88.0883 81.6469 88.0883L81.6522 87.9487Z" fill="#FFC0BB"/>
<path d="M85.0115 83.9364L86.0057 87.303C86.0057 87.303 85.1404 89.2999 82.4913 88.4386C82.4913 88.4386 82.794 87.7412 82.3879 86.3054C81.9737 84.8378 85.0123 83.9364 85.0123 83.9364H85.0115Z" fill="#FFC0BB"/>
<path opacity="0.6" d="M85.0116 83.9364L85.4776 85.5093C85.1997 86.6591 84.2984 87.4418 82.5978 87.6843C82.5978 87.3423 82.5513 86.8857 82.3873 86.3054C81.973 84.8378 85.0116 83.9364 85.0116 83.9364Z" fill="#FC8D84"/>
<path d="M78.9497 81.4713C79.1647 82.0182 79.0217 82.6169 78.6298 82.8093C78.238 83.0016 77.7458 82.7139 77.5308 82.167C77.3158 81.6201 77.4589 81.0214 77.8507 80.8291C78.2425 80.6367 78.7347 80.9244 78.9497 81.4713Z" fill="#F99893"/>
<path d="M78.8397 83.954C78.5857 83.2499 78.4479 82.4989 78.3752 81.8417C78.3595 81.7012 78.337 81.5615 78.3115 81.4219C78.2096 80.86 78.1969 80.2612 78.301 79.6424C78.6359 77.6505 80.132 76.1127 81.939 75.9095C84.373 75.6353 86.44 77.7233 86.5037 80.38C86.7584 80.2119 87.0483 80.1659 87.3075 80.2863C87.8042 80.5163 87.9983 81.2647 87.7406 81.9579C87.4829 82.6511 86.8708 83.0266 86.3748 82.7958C86.3059 82.764 86.2437 82.7214 86.1868 82.6704C86.0347 84.9374 84.4165 86.7311 82.4252 86.7536C80.9306 86.7704 79.4592 85.7585 78.8419 83.9531L78.8397 83.954Z" fill="#FFC0BB"/>
<path d="M81.438 80.4853C81.5166 80.7354 81.5571 80.9971 81.5706 81.2639C81.5773 81.3977 81.5743 81.5323 81.5578 81.6703C81.5391 81.8074 81.5106 81.9487 81.4327 82.085C81.3421 82.2147 81.2949 82.2573 81.2814 82.3618C81.2649 82.4513 81.3024 82.5483 81.3608 82.6344C81.4867 82.8092 81.7062 82.9054 81.9362 82.9572C81.7077 83.0074 81.4357 82.9756 81.2334 82.7691C81.1346 82.6696 81.0581 82.5115 81.0694 82.3392C81.0806 82.1603 81.1525 82.0809 81.2462 81.9446C81.2949 81.8618 81.3256 81.7464 81.3488 81.6293C81.3743 81.5114 81.3818 81.3851 81.396 81.2605C81.4155 81.008 81.4245 80.7496 81.4387 80.4862L81.438 80.4853Z" fill="#F99893"/>
<path d="M82.8021 80.8274C82.7676 81.1008 82.9774 81.3299 83.2216 81.2839C83.373 81.2555 83.4958 81.1158 83.5176 80.9461C83.552 80.6735 83.3423 80.4444 83.0988 80.4895C82.9474 80.5171 82.8246 80.6576 82.8029 80.8274H82.8021Z" fill="#333333"/>
<path d="M79.7028 81.0899C79.6683 81.3625 79.8773 81.5908 80.1208 81.5473C80.2729 81.5197 80.3958 81.3801 80.4175 81.2103C80.4527 80.9369 80.2429 80.7078 79.9987 80.7529C79.8474 80.7805 79.7245 80.921 79.7028 81.0908V81.0899Z" fill="#333333"/>
<g style="mix-blend-mode:multiply" opacity="0.3">
<path d="M82.862 83.9565C82.862 83.9565 82.3451 83.75 81.8597 84.1053C81.8597 84.1053 81.3337 83.7382 80.9202 84.0886C80.9202 84.0886 81.1127 84.9625 81.9758 84.9031C82.8388 84.8446 82.8628 83.9565 82.8628 83.9565H82.862Z" fill="#F99893"/>
</g>
<path d="M83.3137 83.6438C83.2163 83.7324 83.1145 83.8135 83.0073 83.8846C82.9017 83.9582 82.7923 84.0243 82.6792 84.0794C82.4529 84.1898 82.2147 84.2684 81.9705 84.291C81.727 84.3153 81.4805 84.2818 81.2453 84.2015C81.0108 84.1179 80.789 83.9866 80.58 83.8311C80.6729 83.9256 80.7733 84.0117 80.8804 84.0878C80.9876 84.1647 81.1029 84.225 81.2213 84.2785C81.3412 84.3286 81.4663 84.3646 81.5936 84.3855C81.721 84.4039 81.8506 84.4073 81.9787 84.3972C82.2349 84.3705 82.4852 84.2852 82.7107 84.153C82.9362 84.0217 83.1444 83.8537 83.3137 83.6446V83.6438Z" fill="#F99893"/>
<path d="M82.3751 79.9628C82.5609 79.9067 82.7354 79.8658 82.9077 79.8432C83.0793 79.8206 83.2471 79.8223 83.4097 79.8515C83.5707 79.8825 83.7326 79.9276 83.8869 80.0138C84.0053 80.0606 84.2914 80.2638 84.3656 80.3039C84.2832 80.1175 84.1596 79.9159 84.003 79.8005C83.8487 79.6592 83.6517 79.5739 83.4516 79.5371C83.2501 79.502 83.0418 79.5262 82.8553 79.6007C82.6702 79.6768 82.4987 79.7947 82.3751 79.9628Z" fill="#FF5500"/>
<path d="M80.7786 80.0974C80.6378 79.9477 80.455 79.854 80.2624 79.8039C80.0692 79.7554 79.8601 79.7587 79.6639 79.8214C79.4691 79.885 79.2825 79.9962 79.1454 80.1576C79.0023 80.293 78.9027 80.5096 78.8405 80.707C78.9109 80.6568 79.1717 80.416 79.284 80.3541C79.4279 80.2479 79.5837 80.1802 79.7403 80.1275C79.8983 80.0765 80.0647 80.0522 80.2377 80.0514C80.4108 80.0505 80.5883 80.0681 80.7794 80.0982L80.7786 80.0974Z" fill="#FF5500"/>
<path d="M88.2051 108.519C88.2051 108.519 89.3162 114.355 84.275 115.74C79.2338 117.126 72.8719 117.267 72.8719 117.267L72.7543 130.861L70.1007 131.2C70.1007 131.2 62.1828 112.881 71.5047 109.274L80.034 108.72L83.5288 108.192C83.5288 108.192 87.026 106.962 87.0784 107.146C87.1308 107.33 88.1272 108.618 88.2051 108.519Z" fill="#FFC0BB"/>
<path d="M92.8924 108.219C92.8924 108.219 94.0035 114.055 88.9623 115.441C83.9211 116.827 77.5592 116.968 77.5592 116.968L77.4416 130.562L74.788 130.902C74.788 130.902 66.87 112.583 76.192 108.975L84.7212 108.421L88.2161 107.893C88.2161 107.893 91.7132 106.663 91.7657 106.847C91.8181 107.031 92.8138 108.319 92.8924 108.22V108.219Z" fill="#FFC0BB"/>
<path d="M74.7673 107.531C70.5165 107.604 66.6388 110.328 65.2596 115.619C63.8804 120.911 60.7339 126.369 61.0335 126.315C67.7011 130.481 69.7973 126.297 74.4055 127.534C79.0136 128.77 80.6468 128.211 80.6468 128.211C79.3133 120.743 77.5587 116.967 77.5587 116.967C77.946 117.045 89.2555 117.231 92.0491 113.774C92.8328 112.805 93.4329 111.586 93.313 108.607C93.0897 103.061 75.9997 107.509 74.7666 107.53L74.7673 107.531Z" fill="#FEB546"/>
<path d="M76.0348 117.358C76.1802 117.328 76.3255 117.301 76.4686 117.263C76.6125 117.226 76.7541 117.183 76.8941 117.136C76.9646 117.112 77.035 117.085 77.1047 117.057C77.032 117.04 76.9616 117.017 76.8911 116.988C76.7526 116.934 76.6229 116.855 76.5016 116.766C76.384 116.669 76.2731 116.565 76.1757 116.445C76.0783 116.327 75.9944 116.196 75.9202 116.06L76.0648 116.235C76.1165 116.289 76.1645 116.346 76.2184 116.396C76.321 116.503 76.4364 116.593 76.554 116.674C76.6724 116.754 76.7982 116.818 76.9279 116.869C77.0567 116.918 77.1961 116.954 77.3242 116.959L77.5602 116.968L77.3511 117.077C77.2088 117.15 77.068 117.199 76.9226 117.244C76.778 117.289 76.6312 117.321 76.4843 117.349C76.3368 117.376 76.1892 117.399 76.0408 117.411C75.8925 117.424 75.7442 117.431 75.5958 117.43C75.7427 117.406 75.8895 117.386 76.0348 117.357V117.358Z" fill="#DAEEF7"/>
<path d="M77.3708 96.1419C77.3708 96.1419 77.0277 105.677 76.0672 107.171L81.3511 105.83V95.4529L77.3715 96.1419H77.3708Z" fill="#FFC0BB"/>
<path d="M79.5051 97.4439C79.5051 97.4439 80.3569 99.8439 80.4902 101.119C80.8221 104.285 80.4617 106.518 79.8744 108.32C79.0511 110.848 85.4235 109.886 85.5771 109.889C92.3106 110.068 92.2484 109.761 92.2484 109.761L93.3235 108.798C93.1736 105.71 92.7908 103.039 92.8508 100.285L92.9122 97.4439L92.6035 94.5715L83.0718 93.7336L79.5058 97.4439H79.5051Z" fill="#FEB546"/>
<path d="M76.2425 99.5638C76.8247 98.5528 81.5924 96.836 81.5924 96.836V98.5469L76.7392 100.441L76.2425 99.5638Z" fill="#EDEDED"/>
<path d="M76.2425 99.5638C76.8247 98.5528 81.5924 96.836 81.5924 96.836V98.5469L76.7392 100.441L76.2425 99.5638Z" fill="#EDEDED"/>
<path d="M76.5849 99.4952L82.122 96.6454V97.7517L76.722 99.9267L76.5849 99.4952Z" fill="white"/>
<path d="M76.8927 99.4952L82.737 97.0275V98.9349L76.9519 99.9267L76.8927 99.4952Z" fill="#EDEDED"/>
<path d="M76.2425 99.3003C76.2425 99.3003 75.1158 96.3593 74.6543 95.7489C74.6543 97.6839 75.3548 100.116 75.3548 100.116L76.2425 99.2995V99.3003Z" fill="white"/>
<path d="M75.7503 99.4307L74.3845 95.5774V97.4129L75.3225 99.9266L75.7503 99.4307Z" fill="#EDEDED"/>
<path d="M75.3224 99.4952L73.8338 95.7489V97.0843L75.3224 99.4952Z" fill="white"/>
<path d="M75.3225 111.038L73.9567 107.529V95.9856L75.3225 99.4952V111.038Z" fill="#F5577A"/>
<path d="M83.9706 109.294L77.324 111.038V99.4952L83.9706 97.7517V109.294Z" fill="#FF5B7E"/>
<path d="M77.3244 99.4952C76.7386 99.1824 75.5129 99.2928 75.3226 99.4952C75.423 100.155 77.1753 100.285 77.3244 99.4952Z" fill="#E0E0E0"/>
<path d="M77.3243 111.038C77.3243 111.32 75.3135 111.32 75.3135 111.038V99.4952C75.5173 99.8313 77.0973 99.8213 77.3243 99.4952V111.038Z" fill="#DE4B6C"/>
<path d="M94.9081 94.9905L90.3838 97.3294C90.3838 97.3294 90.0317 103.789 89.8137 104.075C89.4181 104.593 85.4063 106.075 83.2937 106.509C82.9536 106.578 82.6037 106.548 82.2778 106.42C81.2297 106.007 79.3748 105.263 79.0826 105.152C78.6234 104.978 77.3273 104.637 77.2426 104.808C77.164 104.967 78.2518 105.086 78.8916 105.441C78.9815 105.491 78.8976 105.618 78.8751 105.612C78.5125 105.522 77.5775 105.294 77.2471 105.317C76.8411 105.346 78.1858 105.624 78.8638 105.98C78.911 106.005 78.914 106.175 78.8683 106.204C78.7612 106.273 78.4323 106.264 77.558 106.11C76.1002 105.854 77.4427 106.459 77.4427 106.459C77.4427 106.459 77.5798 106.456 78.8444 106.629C78.8908 106.636 78.9073 106.791 78.8241 106.838C78.6795 106.918 78.3529 107.066 77.9573 107.079C77.4651 107.095 77.7663 107.326 77.7663 107.326C77.7663 107.326 78.699 107.292 79.1942 107.394C79.5643 107.47 81.2395 108.129 81.9309 108.381L82.0163 108.262C82.9753 108.511 91.8132 109.232 92.886 106.305C94.8594 100.924 94.9095 94.9913 94.9095 94.9913L94.9081 94.9905Z" fill="#FFC0BB"/>
<path d="M81.6524 87.9486C81.6524 87.9486 84.2138 91.2851 87.1521 87.2403C87.1521 87.2403 90.363 86.9485 92.7296 88.825C95.097 90.7014 96.5145 94.916 96.5145 94.916C96.5145 94.916 93.117 97.4439 90.378 97.4439L83.9554 94.8767L79.5053 97.4439C79.5053 97.4439 77.4391 97.2909 75.689 96.2949C75.689 96.2949 75.991 89.596 81.6517 87.9486H81.6524Z" fill="#FEB546"/>
<path d="M89.5973 93.6416C89.7074 94.0556 89.8071 94.4728 89.906 94.8901C90.0902 95.7096 90.2603 96.4906 90.3847 97.3294C90.6169 97.3411 90.8784 97.3034 91.1076 97.2667C92.3438 97.0208 93.1559 96.6345 94.2571 96.1319C95.9068 95.2932 95.6843 95.3743 96.5144 94.9169C95.5487 95.5984 95.0288 95.9061 94.3253 96.2983C93.3611 96.7975 92.4396 97.2591 91.1421 97.5142C90.575 97.6003 90.4116 97.5819 90.1966 97.5543C90.1127 96.9388 90.0168 96.3092 89.7539 94.9302L89.5089 93.6676L89.2564 92.4049C89.3785 92.8146 89.4872 93.2285 89.5973 93.6425V93.6416Z" fill="#07085B"/>
<path d="M79.4172 94.4176C79.3423 94.8483 79.2914 95.4169 79.3086 95.9479C79.3169 96.1954 79.4809 96.8887 79.6697 97.5911C79.6345 97.6061 79.5993 97.6203 79.5641 97.6354C79.3453 96.9288 79.1573 96.2205 79.1333 95.9629C79.0756 95.4311 79.1153 94.8943 79.1955 94.3725C79.2854 93.8465 79.4038 93.3565 79.5828 92.8489C79.7529 92.3572 79.9537 91.8789 80.2054 91.434C80.0376 91.924 79.8847 92.4165 79.7491 92.9124C79.6158 93.4091 79.4974 93.91 79.418 94.4168L79.4172 94.4176Z" fill="#07085B"/>
<path d="M86.5029 80.38C86.5029 80.38 82.1045 79.1959 80.0031 75.8594C80.0031 75.8594 79.9664 72.8214 84.0044 73.5105C87.9278 74.1803 88.8463 78.4416 86.5029 80.38Z" fill="#FF5500"/>
</svg>
