<svg width="53" height="49" viewBox="0 0 53 49" fill="none" xmlns="http://www.w3.org/2000/svg">
<g clip-path="url(#clip0_822_2795)">
<path fill-rule="evenodd" clip-rule="evenodd" d="M11.9169 48.9759C10.7582 48.937 9.26471 48.8514 8.5859 48.7222C7.54972 48.525 6.57121 48.2259 5.75743 47.8347C4.80133 47.3751 3.94442 46.7889 3.2045 46.0922C2.46288 45.3942 1.8387 44.5853 1.34949 43.6823C0.935888 42.9191 0.618815 42.0019 0.40868 41.0302C0.268916 40.3837 0.176482 38.9647 0.134579 37.8649C0.117587 37.4155 0.108868 36.8336 0.108868 36.5655L0.104776 12.4384C0.104776 12.1712 0.113405 11.5893 0.130309 11.1393C0.171499 10.0466 0.262154 8.63819 0.39925 7.99804C0.608406 7.02097 0.925745 6.09811 1.34041 5.33069C1.82776 4.42895 2.44937 3.62102 3.18812 2.92317C3.92831 2.22387 4.78612 1.63525 5.74356 1.17381C6.55304 0.783856 7.52561 0.48476 8.55583 0.286595C9.24149 0.154791 10.7461 0.0676216 11.9124 0.0281896C12.3889 0.0120813 13.0059 0.00385928 13.2904 0.00385928L38.8746 0C39.1581 0 39.7751 0.00805418 40.2521 0.0240786C41.411 0.0630071 42.9044 0.148415 43.5832 0.277702C44.6193 0.475029 45.5979 0.774291 46.4117 1.16525C47.3677 1.62485 48.2246 2.21112 48.9646 2.90772C49.7061 3.60585 50.3302 4.4146 50.8196 5.31761C51.233 6.08098 51.5504 6.99807 51.7604 7.96969C51.9003 8.61629 51.9925 10.0353 52.0344 11.1351C52.0516 11.5845 52.0602 12.1662 52.0602 12.4346L52.0644 36.5615C52.0644 36.8288 52.0558 37.4107 52.0388 37.8606C51.9975 38.9534 51.9068 40.3618 51.7698 41.0019C51.5607 41.979 51.2433 42.9019 50.8286 43.6693C50.3413 44.571 49.7197 45.3789 48.9809 46.0768C48.2407 46.776 47.383 47.3648 46.4255 47.8262C45.6159 48.2162 44.6436 48.5153 43.6132 48.7133C42.9276 48.8451 41.4229 48.9322 40.2568 48.9717C39.7801 48.9879 39.1631 48.996 38.8788 48.996L13.2945 49C13.011 49 12.3939 48.9919 11.9169 48.9759Z" fill="#1DA1F2"/>
<mask id="mask0_822_2795" style="mask-type:alpha" maskUnits="userSpaceOnUse" x="0" y="0" width="53" height="49">
<path fill-rule="evenodd" clip-rule="evenodd" d="M11.9169 48.9759C10.7582 48.937 9.26471 48.8514 8.5859 48.7222C7.54972 48.525 6.57121 48.2259 5.75743 47.8347C4.80133 47.3751 3.94442 46.7889 3.2045 46.0922C2.46288 45.3942 1.8387 44.5853 1.34949 43.6823C0.935888 42.9191 0.618815 42.0019 0.40868 41.0302C0.268916 40.3837 0.176482 38.9647 0.134579 37.8649C0.117587 37.4155 0.108868 36.8336 0.108868 36.5655L0.104776 12.4384C0.104776 12.1712 0.113405 11.5893 0.130309 11.1393C0.171499 10.0466 0.262154 8.63819 0.39925 7.99804C0.608406 7.02097 0.925745 6.09811 1.34041 5.33069C1.82776 4.42895 2.44937 3.62102 3.18812 2.92317C3.92831 2.22387 4.78612 1.63525 5.74356 1.17381C6.55304 0.783856 7.52561 0.48476 8.55583 0.286595C9.24149 0.154791 10.7461 0.0676216 11.9124 0.0281896C12.3889 0.0120813 13.0059 0.00385928 13.2904 0.00385928L38.8746 0C39.1581 0 39.7751 0.00805418 40.2521 0.0240786C41.411 0.0630071 42.9044 0.148415 43.5832 0.277702C44.6193 0.475029 45.5979 0.774291 46.4117 1.16525C47.3677 1.62485 48.2246 2.21112 48.9646 2.90772C49.7061 3.60585 50.3302 4.4146 50.8196 5.31761C51.233 6.08098 51.5504 6.99807 51.7604 7.96969C51.9003 8.61629 51.9925 10.0353 52.0344 11.1351C52.0516 11.5845 52.0602 12.1662 52.0602 12.4346L52.0644 36.5615C52.0644 36.8288 52.0558 37.4107 52.0388 37.8606C51.9975 38.9534 51.9068 40.3618 51.7698 41.0019C51.5607 41.979 51.2433 42.9019 50.8286 43.6693C50.3413 44.571 49.7197 45.3789 48.9809 46.0768C48.2407 46.776 47.383 47.3648 46.4255 47.8262C45.6159 48.2162 44.6436 48.5153 43.6132 48.7133C42.9276 48.8451 41.4229 48.9322 40.2568 48.9717C39.7801 48.9879 39.1631 48.996 38.8788 48.996L13.2945 49C13.011 49 12.3939 48.9919 11.9169 48.9759Z" fill="white"/>
</mask>
<g mask="url(#mask0_822_2795)">
<path d="M20.3294 38.3306C16.4273 38.3342 12.6066 37.277 9.32332 35.2853C9.89205 35.3476 10.4641 35.3786 11.0367 35.3778C14.2695 35.3825 17.4102 34.3609 19.954 32.4763C18.4556 32.4495 17.0035 31.9808 15.8008 31.1361C14.5981 30.2915 13.7049 29.1131 13.2461 27.7654C13.6908 27.8468 14.1426 27.8877 14.5954 27.8881C15.2349 27.8881 15.8715 27.8079 16.4886 27.6494C14.8633 27.3394 13.4016 26.5078 12.3515 25.2959C11.3014 24.0839 10.7275 22.5661 10.7273 21.0001C10.7273 20.97 10.7273 20.942 10.7273 20.9141C11.7239 21.4381 12.8388 21.7291 13.9788 21.7629C12.4586 20.8039 11.3827 19.3333 10.9705 17.6509C10.5583 15.9686 10.8407 14.2012 11.7603 12.7087C13.5616 14.8039 15.8091 16.518 18.3571 17.7398C20.9051 18.9616 23.6966 19.6638 26.5504 19.8009C26.1871 18.3447 26.3434 16.816 26.9952 15.4525C27.647 14.089 28.7577 12.9672 30.1545 12.2617C31.5511 11.5561 33.1556 11.3063 34.7181 11.5512C36.2807 11.7961 37.7138 12.5219 38.7945 13.6156C40.3991 13.3143 41.938 12.7577 43.3451 11.9694C42.809 13.5399 41.6876 14.8733 40.1892 15.7218C41.6124 15.5593 43.0021 15.1971 44.3122 14.6472C43.3478 16.0094 42.1343 17.1986 40.7285 18.1589C40.7444 18.449 40.7511 18.7413 40.7511 19.0358C40.7511 27.9954 33.5268 38.3306 20.3204 38.3306" fill="white"/>
</g>
</g>
<defs>
<clipPath id="clip0_822_2795">
<rect width="52.1691" height="49" rx="15" fill="white"/>
</clipPath>
</defs>
</svg>
