<svg width="21" height="21" viewBox="0 0 21 21" fill="none" xmlns="http://www.w3.org/2000/svg">
<path d="M14.0564 3.2812C14.0563 2.51144 14.3198 1.76615 14.8007 1.17574C15.2816 0.58532 15.9494 0.187369 16.6872 0.0515099C17.4249 -0.0843494 18.1857 0.0505339 18.8364 0.432561C19.4871 0.814588 19.9863 1.41943 20.2467 2.14127C20.507 2.86311 20.5119 3.65597 20.2605 4.38115C20.0091 5.10632 19.5175 5.71763 18.8715 6.10812C18.2256 6.4986 17.4665 6.6434 16.7272 6.51718C15.9878 6.39095 15.3151 6.00175 14.827 5.41765L6.24252 9.51208C6.43987 10.1544 6.43987 10.8435 6.24252 11.4858L14.827 15.5802C15.343 14.9639 16.0635 14.5662 16.8487 14.4643C17.634 14.3624 18.4281 14.5635 19.0772 15.0286C19.7263 15.4938 20.1842 16.1899 20.3621 16.9819C20.5399 17.774 20.4252 18.6057 20.04 19.3158C19.6548 20.0259 19.0266 20.5639 18.2772 20.8255C17.5278 21.0871 16.7105 21.0536 15.9837 20.7316C15.257 20.4096 14.6725 19.822 14.3436 19.0826C14.0146 18.3433 13.9647 17.5048 14.2034 16.7298L5.61894 12.6354C5.19398 13.144 4.62754 13.5068 3.99582 13.6749C3.3641 13.843 2.6974 13.8083 2.08542 13.5756C1.47343 13.3429 0.945516 12.9234 0.572687 12.3733C0.199857 11.8233 0 11.1691 0 10.4989C0 9.82874 0.199857 9.17462 0.572687 8.62457C0.945516 8.07453 1.47343 7.65493 2.08542 7.42224C2.6974 7.18955 3.3641 7.15492 3.99582 7.32302C4.62754 7.49112 5.19398 7.85387 5.61894 8.36249L14.2034 4.26806C14.1057 3.94873 14.0561 3.61593 14.0564 3.2812Z" fill="black"/>
</svg>
