<svg width="37" height="36" viewBox="0 0 37 36" fill="none" xmlns="http://www.w3.org/2000/svg">
<path d="M7.70834 30C6.86042 30 6.13429 29.706 5.52996 29.118C4.92563 28.53 4.62397 27.824 4.625 27V6C4.625 5.175 4.92717 4.4685 5.5315 3.8805C6.13584 3.2925 6.86145 2.999 7.70834 3H29.2917C30.1396 3 30.8657 3.294 31.47 3.882C32.0744 4.47 32.376 5.176 32.375 6V14.5125C31.6556 14.1625 30.9037 13.906 30.1195 13.743C29.3354 13.58 28.5455 13.499 27.75 13.5C27.0049 13.5 26.2983 13.569 25.6302 13.707C24.9622 13.845 24.3069 14.0385 23.6646 14.2875C23.7417 14.0375 23.7997 13.7875 23.8388 13.5375C23.8779 13.2875 23.8969 13.025 23.8958 12.75C23.8958 11.3 23.3691 10.0625 22.3156 9.0375C21.2622 8.0125 19.9903 7.5 18.5 7.5C17.0097 7.5 15.7379 8.0125 14.6844 9.0375C13.6309 10.0625 13.1042 11.3 13.1042 12.75C13.1042 14.2 13.6309 15.4375 14.6844 16.4625C15.7379 17.4875 17.0097 18 18.5 18H18.8854C18.5514 18.45 18.2626 18.9315 18.019 19.4445C17.7754 19.9575 17.5632 20.4885 17.3823 21.0375C15.4809 21.1625 13.7142 21.6 12.082 22.35C10.4499 23.1 8.99203 24.075 7.70834 25.275V27H17.4208C17.6007 27.55 17.8063 28.075 18.0375 28.575C18.2688 29.075 18.5514 29.55 18.8854 30H7.70834ZM26.2083 31.5L25.7458 29.25C25.4375 29.125 25.1482 28.9935 24.8779 28.8555C24.6076 28.7175 24.3316 28.549 24.05 28.35L21.8146 29.025L20.2729 26.475L22.0458 24.975C21.9944 24.625 21.9688 24.3 21.9688 24C21.9688 23.7 21.9944 23.375 22.0458 23.025L20.2729 21.525L21.8146 18.975L24.05 19.65C24.3326 19.45 24.6091 19.2815 24.8794 19.1445C25.1497 19.0075 25.4385 18.876 25.7458 18.75L26.2083 16.5H29.2917L29.7542 18.75C30.0625 18.875 30.3518 19.0125 30.6221 19.1625C30.8924 19.3125 31.1684 19.5 31.45 19.725L33.6854 18.975L35.2271 21.6L33.4542 23.1C33.5056 23.4 33.5313 23.7125 33.5313 24.0375C33.5313 24.3625 33.5056 24.675 33.4542 24.975L35.2271 26.475L33.6854 29.025L31.45 28.35C31.1674 28.55 30.8914 28.719 30.6221 28.857C30.3529 28.995 30.0635 29.126 29.7542 29.25L29.2917 31.5H26.2083ZM27.75 27C28.5979 27 29.324 26.706 29.9284 26.118C30.5327 25.53 30.8344 24.824 30.8333 24C30.8333 23.175 30.5312 22.4685 29.9268 21.8805C29.3225 21.2925 28.5969 20.999 27.75 21C26.9021 21 26.176 21.294 25.5716 21.882C24.9673 22.47 24.6656 23.176 24.6667 24C24.6667 24.825 24.9688 25.5315 25.5732 26.1195C26.1775 26.7075 26.9031 27.001 27.75 27Z" fill="#946CC3"/>
</svg>
